JetBrains Mono-Thin.ufo
<glyph name="exclam" format="2">
	<advance width="600"/>
	<unicode hex="0021"/>
	<outline>
		<contour>
			<point x="273" y="205" type="line"/>
			<point x="303" y="205" type="line"/>
			<point x="377" y="570" type="line"/>
			<point x="403" y="730" type="line"/>
			<point x="341" y="730" type="line"/>
			<point x="315" y="570" type="line"/>
		</contour>
		<contour>
			<point x="256" y="-5" type="curve" smooth="yes"/>
			<point x="261" y="-5" type="line" smooth="yes"/>
			<point x="294" y="-5"/>
			<point x="320" y="17"/>
			<point x="325" y="51" type="curve" smooth="yes"/>
			<point x="330" y="83"/>
			<point x="312" y="105"/>
			<point x="279" y="105" type="curve" smooth="yes"/>
			<point x="274" y="105" type="line" smooth="yes"/>
			<point x="241" y="105"/>
			<point x="215" y="83"/>
			<point x="210" y="49" type="curve" smooth="yes"/>
			<point x="205" y="17"/>
			<point x="223" y="-5"/>
		</contour>
	</outline>
</glyph>
<glyph name="quotedbl" format="2">
	<advance width="600"/>
	<unicode hex="0022"/>
	<outline>
		<contour>
			<point x="401" y="430" type="line"/>
			<point x="448" y="430" type="line"/>
			<point x="478" y="560" type="line"/>
			<point x="505" y="730" type="line"/>
			<point x="439" y="730" type="line"/>
			<point x="412" y="560" type="line"/>
		</contour>
		<contour>
			<point x="201" y="430" type="line"/>
			<point x="248" y="430" type="line"/>
			<point x="278" y="560" type="line"/>
			<point x="305" y="730" type="line"/>
			<point x="239" y="730" type="line"/>
			<point x="212" y="560" type="line"/>
		</contour>
	</outline>
</glyph>
<glyph name="numbersign" format="2">
	<advance width="600"/>
	<unicode hex="0023"/>
	<outline>
		<contour>
			<point x="48" y="0" type="line"/>
			<point x="93" y="0" type="line"/>
			<point x="167" y="210" type="line"/>
			<point x="353" y="210" type="line"/>
			<point x="279" y="0" type="line"/>
			<point x="324" y="0" type="line"/>
			<point x="398" y="210" type="line"/>
			<point x="519" y="210" type="line"/>
			<point x="526" y="254" type="line"/>
			<point x="413" y="254" type="line"/>
			<point x="491" y="476" type="line"/>
			<point x="596" y="476" type="line"/>
			<point x="603" y="520" type="line"/>
			<point x="506" y="520" type="line"/>
			<point x="580" y="730" type="line"/>
			<point x="535" y="730" type="line"/>
			<point x="461" y="520" type="line"/>
			<point x="275" y="520" type="line"/>
			<point x="349" y="730" type="line"/>
			<point x="304" y="730" type="line"/>
			<point x="230" y="520" type="line"/>
			<point x="108" y="520" type="line"/>
			<point x="101" y="476" type="line"/>
			<point x="215" y="476" type="line"/>
			<point x="137" y="254" type="line"/>
			<point x="31" y="254" type="line"/>
			<point x="24" y="210" type="line"/>
			<point x="122" y="210" type="line"/>
		</contour>
		<contour>
			<point x="182" y="254" type="line"/>
			<point x="260" y="476" type="line"/>
			<point x="446" y="476" type="line"/>
			<point x="368" y="254" type="line"/>
		</contour>
	</outline>
</glyph>
<glyph name="dollar" format="2">
	<advance width="600"/>
	<unicode hex="0024"/>
	<outline>
		<contour>
			<point x="259" y="-10" type="curve" smooth="yes"/>
			<point x="390" y="-10"/>
			<point x="481" y="62"/>
			<point x="500" y="180" type="curve" smooth="yes"/>
			<point x="515" y="276"/>
			<point x="465" y="353"/>
			<point x="371" y="384" type="curve" smooth="yes"/>
			<point x="291" y="410" type="line" smooth="yes"/>
			<point x="222" y="433"/>
			<point x="188" y="489"/>
			<point x="200" y="563" type="curve" smooth="yes"/>
			<point x="213" y="645"/>
			<point x="278" y="695"/>
			<point x="371" y="695" type="curve" smooth="yes"/>
			<point x="462" y="695"/>
			<point x="512" y="637"/>
			<point x="498" y="548" type="curve"/>
			<point x="548" y="548" type="line"/>
			<point x="566" y="664"/>
			<point x="499" y="740"/>
			<point x="379" y="740" type="curve" smooth="yes"/>
			<point x="254" y="740"/>
			<point x="167" y="672"/>
			<point x="150" y="559" type="curve" smooth="yes"/>
			<point x="135" y="467"/>
			<point x="182" y="393"/>
			<point x="273" y="365" type="curve" smooth="yes"/>
			<point x="353" y="340" type="line" smooth="yes"/>
			<point x="425" y="317"/>
			<point x="461" y="254"/>
			<point x="449" y="177" type="curve" smooth="yes"/>
			<point x="435" y="89"/>
			<point x="366" y="35"/>
			<point x="267" y="35" type="curve" smooth="yes"/>
			<point x="164" y="35"/>
			<point x="106" y="94"/>
			<point x="120" y="185" type="curve"/>
			<point x="70" y="185" type="line"/>
			<point x="51" y="66"/>
			<point x="124" y="-10"/>
		</contour>
		<contour>
			<point x="219" y="-140" type="line"/>
			<point x="249" y="-140" type="line"/>
			<point x="330" y="370" type="line"/>
			<point x="300" y="370" type="line"/>
		</contour>
		<contour>
			<point x="300" y="370" type="line"/>
			<point x="330" y="370" type="line"/>
			<point x="406" y="850" type="line"/>
			<point x="376" y="850" type="line"/>
		</contour>
	</outline>
</glyph>
<glyph name="percent" format="2">
	<advance width="600"/>
	<unicode hex="0025"/>
	<outline>
		<contour>
			<point x="-24" y="0" type="line"/>
			<point x="21" y="0" type="line"/>
			<point x="651" y="730" type="line"/>
			<point x="607" y="730" type="line"/>
		</contour>
		<contour>
			<point x="395" y="-5" type="curve" smooth="yes"/>
			<point x="473" y="-5"/>
			<point x="529" y="45"/>
			<point x="542" y="125" type="curve" smooth="yes"/>
			<point x="554" y="200" type="line" smooth="yes"/>
			<point x="566" y="280"/>
			<point x="526" y="330"/>
			<point x="448" y="330" type="curve" smooth="yes"/>
			<point x="371" y="330"/>
			<point x="314" y="280"/>
			<point x="302" y="200" type="curve" smooth="yes"/>
			<point x="290" y="125" type="line" smooth="yes"/>
			<point x="277" y="45"/>
			<point x="318" y="-5"/>
		</contour>
		<contour>
			<point x="402" y="37" type="curve" smooth="yes"/>
			<point x="349" y="37"/>
			<point x="325" y="68"/>
			<point x="334" y="125" type="curve" smooth="yes"/>
			<point x="346" y="200" type="line" smooth="yes"/>
			<point x="355" y="257"/>
			<point x="389" y="288"/>
			<point x="442" y="288" type="curve" smooth="yes"/>
			<point x="495" y="288"/>
			<point x="519" y="257"/>
			<point x="510" y="200" type="curve" smooth="yes"/>
			<point x="498" y="125" type="line" smooth="yes"/>
			<point x="489" y="68"/>
			<point x="455" y="37"/>
		</contour>
		<contour>
			<point x="180" y="400" type="curve" smooth="yes"/>
			<point x="257" y="400"/>
			<point x="314" y="450"/>
			<point x="326" y="530" type="curve" smooth="yes"/>
			<point x="338" y="605" type="line" smooth="yes"/>
			<point x="351" y="685"/>
			<point x="310" y="735"/>
			<point x="233" y="735" type="curve" smooth="yes"/>
			<point x="155" y="735"/>
			<point x="99" y="685"/>
			<point x="86" y="605" type="curve" smooth="yes"/>
			<point x="74" y="530" type="line" smooth="yes"/>
			<point x="62" y="450"/>
			<point x="102" y="400"/>
		</contour>
		<contour>
			<point x="186" y="442" type="curve" smooth="yes"/>
			<point x="134" y="442"/>
			<point x="109" y="473"/>
			<point x="118" y="530" type="curve" smooth="yes"/>
			<point x="130" y="605" type="line" smooth="yes"/>
			<point x="139" y="662"/>
			<point x="173" y="693"/>
			<point x="226" y="693" type="curve" smooth="yes"/>
			<point x="279" y="693"/>
			<point x="303" y="662"/>
			<point x="294" y="605" type="curve" smooth="yes"/>
			<point x="282" y="530" type="line" smooth="yes"/>
			<point x="273" y="473"/>
			<point x="239" y="442"/>
		</contour>
	</outline>
</glyph>
<glyph name="ampersand" format="2">
	<advance width="600"/>
	<unicode hex="0026"/>
	<outline>
		<contour>
			<point x="213" y="414" type="curve" smooth="yes"/>
			<point x="464" y="0" type="line"/>
			<point x="517" y="0" type="line"/>
			<point x="257" y="443" type="line" smooth="yes"/>
			<point x="227" y="494"/>
			<point x="211" y="539"/>
			<point x="218" y="580" type="curve" smooth="yes"/>
			<point x="228" y="641"/>
			<point x="284" y="695"/>
			<point x="351" y="695" type="curve" smooth="yes"/>
			<point x="421" y="695"/>
			<point x="462" y="637"/>
			<point x="451" y="570" type="curve"/>
			<point x="501" y="570" type="line"/>
			<point x="517" y="667"/>
			<point x="461" y="740"/>
			<point x="358" y="740" type="curve" smooth="yes"/>
			<point x="259" y="740"/>
			<point x="182" y="670"/>
			<point x="168" y="580" type="curve" smooth="yes"/>
			<point x="160" y="532"/>
			<point x="172" y="480"/>
		</contour>
		<contour>
			<point x="174" y="-10" type="curve" smooth="yes"/>
			<point x="258" y="-10"/>
			<point x="336" y="37"/>
			<point x="402" y="132" type="curve" smooth="yes"/>
			<point x="560" y="360" type="line"/>
			<point x="510" y="360" type="line"/>
			<point x="367" y="155" type="line" smooth="yes"/>
			<point x="313" y="78"/>
			<point x="248" y="35"/>
			<point x="187" y="35" type="curve" smooth="yes"/>
			<point x="121" y="35"/>
			<point x="84" y="84"/>
			<point x="96" y="155" type="curve" smooth="yes"/>
			<point x="113" y="266" type="line" smooth="yes"/>
			<point x="125" y="339"/>
			<point x="174" y="386"/>
			<point x="238" y="386" type="curve" smooth="yes"/>
			<point x="252" y="386" type="line"/>
			<point x="259" y="431" type="line"/>
			<point x="244" y="431" type="line" smooth="yes"/>
			<point x="148" y="431"/>
			<point x="79" y="369"/>
			<point x="63" y="266" type="curve" smooth="yes"/>
			<point x="46" y="155" type="line" smooth="yes"/>
			<point x="29" y="52"/>
			<point x="78" y="-10"/>
		</contour>
	</outline>
</glyph>
<glyph name="quotesingle" format="2">
	<advance width="600"/>
	<unicode hex="0027"/>
	<outline>
		<contour>
			<point x="301" y="430" type="line"/>
			<point x="348" y="430" type="line"/>
			<point x="378" y="560" type="line"/>
			<point x="405" y="730" type="line"/>
			<point x="339" y="730" type="line"/>
			<point x="312" y="560" type="line"/>
		</contour>
	</outline>
</glyph>
<glyph name="parenleft" format="2">
	<advance width="600"/>
	<unicode hex="0028"/>
	<outline>
		<contour>
			<point x="421" y="-125" type="curve"/>
			<point x="429" y="-75" type="line"/>
			<point x="293" y="-39"/>
			<point x="229" y="83"/>
			<point x="256" y="255" type="curve" smooth="yes"/>
			<point x="290" y="465" type="line" smooth="yes"/>
			<point x="317" y="640"/>
			<point x="417" y="759"/>
			<point x="567" y="795" type="curve"/>
			<point x="575" y="845" type="line"/>
			<point x="384" y="799"/>
			<point x="267" y="669"/>
			<point x="235" y="465" type="curve" smooth="yes"/>
			<point x="201" y="255" type="line" smooth="yes"/>
			<point x="169" y="51"/>
			<point x="244" y="-79"/>
		</contour>
	</outline>
</glyph>
<glyph name="parenright" format="2">
	<advance width="600"/>
	<unicode hex="0029"/>
	<outline>
		<contour>
			<point x="59" y="-75" type="curve"/>
			<point x="51" y="-125" type="line"/>
			<point x="242" y="-79"/>
			<point x="359" y="51"/>
			<point x="391" y="255" type="curve" smooth="yes"/>
			<point x="425" y="465" type="line" smooth="yes"/>
			<point x="457" y="669"/>
			<point x="382" y="799"/>
			<point x="205" y="845" type="curve"/>
			<point x="197" y="795" type="line"/>
			<point x="335" y="759"/>
			<point x="397" y="640"/>
			<point x="370" y="465" type="curve" smooth="yes"/>
			<point x="336" y="255" type="line" smooth="yes"/>
			<point x="309" y="83"/>
			<point x="207" y="-39"/>
		</contour>
	</outline>
</glyph>
<glyph name="asterisk" format="2">
	<advance width="600"/>
	<unicode hex="002A"/>
	<outline>
		<contour>
			<point x="62" y="407" type="line"/>
			<point x="176" y="363" type="line" smooth="yes"/>
			<point x="227" y="343"/>
			<point x="255" y="342"/>
			<point x="278" y="339" type="curve"/>
			<point x="280" y="324" type="line"/>
			<point x="259" y="306"/>
			<point x="232" y="291"/>
			<point x="187" y="239" type="curve" smooth="yes"/>
			<point x="99" y="139" type="line"/>
			<point x="144" y="103" type="line"/>
			<point x="232" y="206" type="line" smooth="yes"/>
			<point x="277" y="259"/>
			<point x="285" y="287"/>
			<point x="300" y="310" type="curve"/>
			<point x="312" y="310" type="line"/>
			<point x="320" y="286"/>
			<point x="323" y="260"/>
			<point x="352" y="207" type="curve" smooth="yes"/>
			<point x="408" y="104" type="line"/>
			<point x="453" y="134" type="line"/>
			<point x="397" y="238" type="line" smooth="yes"/>
			<point x="369" y="289"/>
			<point x="350" y="305"/>
			<point x="335" y="323" type="curve"/>
			<point x="342" y="337" type="line"/>
			<point x="366" y="341"/>
			<point x="395" y="342"/>
			<point x="452" y="362" type="curve" smooth="yes"/>
			<point x="580" y="406" type="line"/>
			<point x="568" y="456" type="line"/>
			<point x="439" y="413" type="line" smooth="yes"/>
			<point x="383" y="394"/>
			<point x="359" y="377"/>
			<point x="337" y="364" type="curve"/>
			<point x="330" y="371" type="line"/>
			<point x="338" y="394"/>
			<point x="350" y="421"/>
			<point x="360" y="480" type="curve" smooth="yes"/>
			<point x="381" y="610" type="line"/>
			<point x="327" y="610" type="line"/>
			<point x="306" y="480" type="line" smooth="yes"/>
			<point x="296" y="421"/>
			<point x="301" y="395"/>
			<point x="302" y="371" type="curve"/>
			<point x="292" y="365" type="line"/>
			<point x="274" y="378"/>
			<point x="254" y="395"/>
			<point x="203" y="414" type="curve" smooth="yes"/>
			<point x="89" y="457" type="line"/>
		</contour>
	</outline>
</glyph>
<glyph name="plus" format="2">
	<advance width="600"/>
	<unicode hex="002B"/>
	<outline>
		<contour>
			<point x="244" y="100" type="line"/>
			<point x="294" y="100" type="line"/>
			<point x="328" y="310" type="line"/>
			<point x="528" y="310" type="line"/>
			<point x="535" y="355" type="line"/>
			<point x="335" y="355" type="line"/>
			<point x="368" y="565" type="line"/>
			<point x="318" y="565" type="line"/>
			<point x="285" y="355" type="line"/>
			<point x="85" y="355" type="line"/>
			<point x="78" y="310" type="line"/>
			<point x="278" y="310" type="line"/>
		</contour>
	</outline>
</glyph>
<glyph name="hyphen" format="2">
	<advance width="600"/>
	<unicode hex="002D"/>
	<outline>
		<contour>
			<point x="92" y="308" type="line"/>
			<point x="502" y="308" type="line"/>
			<point x="509" y="353" type="line"/>
			<point x="99" y="353" type="line"/>
		</contour>
	</outline>
</glyph>
<glyph name="period" format="2">
	<advance width="600"/>
	<unicode hex="002E"/>
	<outline>
		<contour>
			<point x="249" y="-10" type="curve" smooth="yes"/>
			<point x="259" y="-10" type="line" smooth="yes"/>
			<point x="302" y="-10"/>
			<point x="334" y="20"/>
			<point x="341" y="66" type="curve" smooth="yes"/>
			<point x="349" y="111"/>
			<point x="327" y="140"/>
			<point x="283" y="140" type="curve" smooth="yes"/>
			<point x="273" y="140" type="line" smooth="yes"/>
			<point x="230" y="140"/>
			<point x="199" y="112"/>
			<point x="191" y="66" type="curve" smooth="yes"/>
			<point x="184" y="20"/>
			<point x="207" y="-10"/>
		</contour>
	</outline>
</glyph>
<glyph name="slash" format="2">
	<advance width="600"/>
	<unicode hex="002F"/>
	<outline>
		<contour>
			<point x="34" y="-110" type="line"/>
			<point x="90" y="-110" type="line"/>
			<point x="592" y="830" type="line"/>
			<point x="536" y="830" type="line"/>
		</contour>
	</outline>
</glyph>
<glyph name="zero" format="2">
	<advance width="600"/>
	<unicode hex="0030"/>
	<outline>
		<contour>
			<point x="255" y="-10" type="curve" smooth="yes"/>
			<point x="383" y="-10"/>
			<point x="474" y="71"/>
			<point x="495" y="205" type="curve" smooth="yes"/>
			<point x="546" y="525" type="line" smooth="yes"/>
			<point x="567" y="659"/>
			<point x="502" y="740"/>
			<point x="374" y="740" type="curve" smooth="yes"/>
			<point x="245" y="740"/>
			<point x="153" y="658"/>
			<point x="132" y="525" type="curve" smooth="yes"/>
			<point x="81" y="205" type="line" smooth="yes"/>
			<point x="60" y="72"/>
			<point x="126" y="-10"/>
		</contour>
		<contour>
			<point x="263" y="40" type="curve" smooth="yes"/>
			<point x="168" y="40"/>
			<point x="120" y="103"/>
			<point x="136" y="205" type="curve" smooth="yes"/>
			<point x="187" y="525" type="line" smooth="yes"/>
			<point x="203" y="627"/>
			<point x="271" y="690"/>
			<point x="366" y="690" type="curve" smooth="yes"/>
			<point x="460" y="690"/>
			<point x="507" y="627"/>
			<point x="491" y="525" type="curve" smooth="yes"/>
			<point x="440" y="205" type="line" smooth="yes"/>
			<point x="424" y="102"/>
			<point x="357" y="40"/>
		</contour>
		<contour>
			<point x="304" y="305" type="curve" smooth="yes"/>
			<point x="334" y="305"/>
			<point x="358" y="327"/>
			<point x="363" y="360" type="curve" smooth="yes"/>
			<point x="365" y="375" type="line" smooth="yes"/>
			<point x="371" y="408"/>
			<point x="354" y="430"/>
			<point x="324" y="430" type="curve" smooth="yes"/>
			<point x="294" y="430"/>
			<point x="271" y="408"/>
			<point x="265" y="375" type="curve" smooth="yes"/>
			<point x="263" y="360" type="line" smooth="yes"/>
			<point x="258" y="327"/>
			<point x="274" y="305"/>
		</contour>
	</outline>
</glyph>
<glyph name="one" format="2">
	<advance width="600"/>
	<unicode hex="0031"/>
	<outline>
		<contour>
			<point x="56" y="0" type="line"/>
			<point x="486" y="0" type="line"/>
			<point x="493" y="45" type="line"/>
			<point x="320" y="45" type="line"/>
			<point x="429" y="730" type="line"/>
			<point x="363" y="730" type="line"/>
			<point x="158" y="595" type="line"/>
			<point x="149" y="539" type="line"/>
			<point x="371" y="685" type="line"/>
			<point x="270" y="45" type="line"/>
			<point x="63" y="45" type="line"/>
		</contour>
	</outline>
</glyph>
<glyph name="two" format="2">
	<advance width="600"/>
	<unicode hex="0032"/>
	<outline>
		<contour>
			<point x="52" y="0" type="line"/>
			<point x="486" y="0" type="line"/>
			<point x="493" y="45" type="line"/>
			<point x="113" y="45" type="line"/>
			<point x="359" y="256" type="line" smooth="yes"/>
			<point x="476" y="357"/>
			<point x="537" y="449"/>
			<point x="551" y="539" type="curve" smooth="yes"/>
			<point x="570" y="658"/>
			<point x="496" y="740"/>
			<point x="370" y="740" type="curve" smooth="yes"/>
			<point x="240" y="740"/>
			<point x="144" y="659"/>
			<point x="125" y="535" type="curve"/>
			<point x="175" y="535" type="line"/>
			<point x="190" y="634"/>
			<point x="263" y="696"/>
			<point x="363" y="696" type="curve" smooth="yes"/>
			<point x="463" y="696"/>
			<point x="517" y="634"/>
			<point x="501" y="536" type="curve" smooth="yes"/>
			<point x="488" y="457"/>
			<point x="436" y="381"/>
			<point x="330" y="289" type="curve" smooth="yes"/>
			<point x="61" y="55" type="line"/>
		</contour>
	</outline>
</glyph>
<glyph name="three" format="2">
	<advance width="600"/>
	<unicode hex="0033"/>
	<outline>
		<contour>
			<point x="244" y="-10" type="curve" smooth="yes"/>
			<point x="366" y="-10"/>
			<point x="457" y="68"/>
			<point x="476" y="190" type="curve" smooth="yes"/>
			<point x="488" y="265" type="line" smooth="yes"/>
			<point x="507" y="385"/>
			<point x="441" y="460"/>
			<point x="316" y="460" type="curve"/>
			<point x="315" y="452" type="line"/>
			<point x="543" y="680" type="line"/>
			<point x="551" y="730" type="line"/>
			<point x="187" y="730" type="line"/>
			<point x="179" y="685" type="line"/>
			<point x="492" y="685" type="line"/>
			<point x="268" y="460" type="line"/>
			<point x="261" y="415" type="line"/>
			<point x="312" y="415" type="line" smooth="yes"/>
			<point x="406" y="415"/>
			<point x="453" y="360"/>
			<point x="438" y="265" type="curve" smooth="yes"/>
			<point x="426" y="190" type="line" smooth="yes"/>
			<point x="411" y="94"/>
			<point x="345" y="35"/>
			<point x="252" y="35" type="curve" smooth="yes"/>
			<point x="158" y="35"/>
			<point x="111" y="93"/>
			<point x="126" y="190" type="curve"/>
			<point x="76" y="190" type="line"/>
			<point x="57" y="68"/>
			<point x="122" y="-10"/>
		</contour>
	</outline>
</glyph>
<glyph name="four" format="2">
	<advance width="600"/>
	<unicode hex="0034"/>
	<outline>
		<contour>
			<point x="391" y="0" type="line"/>
			<point x="441" y="0" type="line"/>
			<point x="508" y="420" type="line"/>
			<point x="458" y="420" type="line"/>
			<point x="425" y="215" type="line"/>
			<point x="140" y="215" type="line"/>
			<point x="147" y="256" type="line"/>
			<point x="518" y="730" type="line"/>
			<point x="463" y="730" type="line"/>
			<point x="99" y="270" type="line"/>
			<point x="83" y="170" type="line"/>
			<point x="418" y="170" type="line"/>
		</contour>
	</outline>
</glyph>
<glyph name="five" format="2">
	<advance width="600"/>
	<unicode hex="0035"/>
	<outline>
		<contour>
			<point x="254" y="-10" type="curve" smooth="yes"/>
			<point x="378" y="-10"/>
			<point x="468" y="73"/>
			<point x="488" y="204" type="curve" smooth="yes"/>
			<point x="499" y="270" type="line" smooth="yes"/>
			<point x="520" y="404"/>
			<point x="468" y="480"/>
			<point x="352" y="480" type="curve" smooth="yes"/>
			<point x="256" y="480"/>
			<point x="185" y="427"/>
			<point x="172" y="347" type="curve"/>
			<point x="202" y="380" type="line"/>
			<point x="181" y="380" type="line"/>
			<point x="232" y="685" type="line"/>
			<point x="544" y="685" type="line"/>
			<point x="552" y="730" type="line"/>
			<point x="192" y="730" type="line"/>
			<point x="123" y="326" type="line"/>
			<point x="173" y="326" type="line"/>
			<point x="201" y="395"/>
			<point x="255" y="435"/>
			<point x="325" y="435" type="curve" smooth="yes"/>
			<point x="421" y="435"/>
			<point x="465" y="374"/>
			<point x="449" y="270" type="curve" smooth="yes"/>
			<point x="438" y="204" type="line" smooth="yes"/>
			<point x="421" y="97"/>
			<point x="357" y="35"/>
			<point x="262" y="35" type="curve" smooth="yes"/>
			<point x="171" y="35"/>
			<point x="125" y="84"/>
			<point x="132" y="166" type="curve"/>
			<point x="82" y="166" type="line"/>
			<point x="73" y="57"/>
			<point x="138" y="-10"/>
		</contour>
	</outline>
</glyph>
<glyph name="six" format="2">
	<advance width="600"/>
	<unicode hex="0036"/>
	<outline>
		<contour>
			<point x="255" y="-10" type="curve" smooth="yes"/>
			<point x="384" y="-9"/>
			<point x="484" y="83"/>
			<point x="506" y="220" type="curve" smooth="yes"/>
			<point x="527" y="352"/>
			<point x="463" y="440"/>
			<point x="346" y="440" type="curve" smooth="yes"/>
			<point x="254" y="440"/>
			<point x="199" y="384"/>
			<point x="199" y="384" type="curve"/>
			<point x="196" y="387" type="line"/>
			<point x="458" y="730" type="line"/>
			<point x="402" y="730" type="line"/>
			<point x="160" y="406" type="line" smooth="yes"/>
			<point x="114" y="345"/>
			<point x="86" y="282"/>
			<point x="76" y="220" type="curve" smooth="yes"/>
			<point x="54" y="82"/>
			<point x="126" y="-10"/>
		</contour>
		<contour>
			<point x="262" y="35" type="curve" smooth="yes"/>
			<point x="160" y="35"/>
			<point x="106" y="109"/>
			<point x="125" y="220" type="curve" smooth="yes"/>
			<point x="144" y="326"/>
			<point x="221" y="396"/>
			<point x="319" y="396" type="curve" smooth="yes"/>
			<point x="418" y="396"/>
			<point x="473" y="325"/>
			<point x="456" y="220" type="curve" smooth="yes"/>
			<point x="438" y="109"/>
			<point x="361" y="35"/>
		</contour>
	</outline>
</glyph>
<glyph name="seven" format="2">
	<advance width="600"/>
	<unicode hex="0037"/>
	<outline>
		<contour>
			<point x="166" y="0" type="line"/>
			<point x="224" y="0" type="line"/>
			<point x="588" y="675" type="line"/>
			<point x="597" y="730" type="line"/>
			<point x="157" y="730" type="line"/>
			<point x="124" y="527" type="line"/>
			<point x="179" y="527" type="line"/>
			<point x="204" y="679" type="line"/>
			<point x="539" y="679" type="line"/>
		</contour>
	</outline>
</glyph>
<glyph name="eight" format="2">
	<advance width="600"/>
	<unicode hex="0038"/>
	<outline>
		<contour>
			<point x="254" y="-10" type="curve" smooth="yes"/>
			<point x="391" y="-10"/>
			<point x="485" y="67"/>
			<point x="504" y="190" type="curve" smooth="yes"/>
			<point x="518" y="277"/>
			<point x="481" y="358"/>
			<point x="399" y="383" type="curve"/>
			<point x="399" y="384" type="line"/>
			<point x="475" y="398"/>
			<point x="532" y="463"/>
			<point x="546" y="547" type="curve" smooth="yes"/>
			<point x="564" y="664"/>
			<point x="499" y="740"/>
			<point x="373" y="740" type="curve" smooth="yes"/>
			<point x="247" y="740"/>
			<point x="158" y="664"/>
			<point x="140" y="547" type="curve" smooth="yes"/>
			<point x="126" y="463"/>
			<point x="163" y="398"/>
			<point x="235" y="384" type="curve"/>
			<point x="235" y="383" type="line"/>
			<point x="145" y="358"/>
			<point x="82" y="277"/>
			<point x="68" y="190" type="curve" smooth="yes"/>
			<point x="49" y="67"/>
			<point x="117" y="-10"/>
		</contour>
		<contour>
			<point x="262" y="40" type="curve" smooth="yes"/>
			<point x="160" y="40"/>
			<point x="104" y="99"/>
			<point x="118" y="192" type="curve" smooth="yes"/>
			<point x="133" y="286"/>
			<point x="209" y="355"/>
			<point x="312" y="355" type="curve" smooth="yes"/>
			<point x="415" y="355"/>
			<point x="469" y="286"/>
			<point x="454" y="192" type="curve" smooth="yes"/>
			<point x="440" y="99"/>
			<point x="364" y="40"/>
		</contour>
		<contour>
			<point x="320" y="405" type="curve" smooth="yes"/>
			<point x="228" y="405"/>
			<point x="176" y="460"/>
			<point x="190" y="547" type="curve" smooth="yes"/>
			<point x="203" y="634"/>
			<point x="273" y="690"/>
			<point x="365" y="690" type="curve" smooth="yes"/>
			<point x="457" y="690"/>
			<point x="509" y="634"/>
			<point x="496" y="547" type="curve" smooth="yes"/>
			<point x="482" y="460"/>
			<point x="412" y="405"/>
		</contour>
	</outline>
</glyph>
<glyph name="nine" format="2">
	<advance width="600"/>
	<unicode hex="0039"/>
	<outline>
		<contour>
			<point x="168" y="0" type="line"/>
			<point x="227" y="0" type="line"/>
			<point x="469" y="324" type="line" smooth="yes"/>
			<point x="515" y="386"/>
			<point x="542" y="448"/>
			<point x="552" y="510" type="curve" smooth="yes"/>
			<point x="574" y="648"/>
			<point x="503" y="740"/>
			<point x="373" y="740" type="curve" smooth="yes"/>
			<point x="245" y="740"/>
			<point x="144" y="647"/>
			<point x="122" y="510" type="curve" smooth="yes"/>
			<point x="101" y="378"/>
			<point x="165" y="290"/>
			<point x="282" y="290" type="curve" smooth="yes"/>
			<point x="374" y="290"/>
			<point x="428" y="346"/>
			<point x="428" y="346" type="curve"/>
			<point x="431" y="343" type="line"/>
		</contour>
		<contour>
			<point x="309" y="334" type="curve" smooth="yes"/>
			<point x="210" y="334"/>
			<point x="156" y="405"/>
			<point x="172" y="510" type="curve" smooth="yes"/>
			<point x="190" y="622"/>
			<point x="268" y="695"/>
			<point x="366" y="695" type="curve" smooth="yes"/>
			<point x="468" y="695"/>
			<point x="523" y="622"/>
			<point x="503" y="511" type="curve" smooth="yes"/>
			<point x="484" y="404"/>
			<point x="407" y="334"/>
		</contour>
	</outline>
</glyph>
<glyph name="colon" format="2">
	<advance width="600"/>
	<unicode hex="003A"/>
	<outline>
		<contour>
			<point x="318" y="420" type="curve" smooth="yes"/>
			<point x="328" y="420" type="line" smooth="yes"/>
			<point x="370" y="420"/>
			<point x="402" y="448"/>
			<point x="409" y="490" type="curve" smooth="yes"/>
			<point x="415" y="532"/>
			<point x="392" y="560"/>
			<point x="350" y="560" type="curve" smooth="yes"/>
			<point x="340" y="560" type="line" smooth="yes"/>
			<point x="297" y="560"/>
			<point x="264" y="532"/>
			<point x="258" y="490" type="curve" smooth="yes"/>
			<point x="251" y="448"/>
			<point x="275" y="420"/>
		</contour>
		<contour>
			<point x="249" y="-10" type="curve" smooth="yes"/>
			<point x="259" y="-10" type="line" smooth="yes"/>
			<point x="301" y="-10"/>
			<point x="334" y="18"/>
			<point x="341" y="60" type="curve" smooth="yes"/>
			<point x="347" y="102"/>
			<point x="324" y="130"/>
			<point x="282" y="130" type="curve" smooth="yes"/>
			<point x="272" y="130" type="line" smooth="yes"/>
			<point x="229" y="130"/>
			<point x="196" y="102"/>
			<point x="190" y="60" type="curve" smooth="yes"/>
			<point x="183" y="18"/>
			<point x="207" y="-10"/>
		</contour>
	</outline>
</glyph>
<glyph name="semicolon" format="2">
	<advance width="600"/>
	<unicode hex="003B"/>
	<outline>
		<contour>
			<point x="121" y="-160" type="line"/>
			<point x="161" y="-160" type="line"/>
			<point x="335" y="151" type="line"/>
			<point x="245" y="151" type="line"/>
		</contour>
		<contour>
			<point x="318" y="420" type="curve" smooth="yes"/>
			<point x="328" y="420" type="line" smooth="yes"/>
			<point x="370" y="420"/>
			<point x="402" y="448"/>
			<point x="409" y="490" type="curve" smooth="yes"/>
			<point x="415" y="532"/>
			<point x="392" y="560"/>
			<point x="350" y="560" type="curve" smooth="yes"/>
			<point x="340" y="560" type="line" smooth="yes"/>
			<point x="297" y="560"/>
			<point x="264" y="532"/>
			<point x="258" y="490" type="curve" smooth="yes"/>
			<point x="251" y="448"/>
			<point x="275" y="420"/>
		</contour>
	</outline>
</glyph>
<glyph name="less" format="2">
	<advance width="600"/>
	<unicode hex="003C"/>
	<outline>
		<contour>
			<point x="479" y="80" type="line"/>
			<point x="487" y="131" type="line"/>
			<point x="221" y="287" type="line" smooth="yes"/>
			<point x="186" y="307"/>
			<point x="145" y="329"/>
			<point x="145" y="329" type="curve"/>
			<point x="145" y="329"/>
			<point x="193" y="351"/>
			<point x="234" y="371" type="curve" smooth="yes"/>
			<point x="549" y="522" type="line"/>
			<point x="558" y="580" type="line"/>
			<point x="102" y="353" type="line"/>
			<point x="95" y="307" type="line"/>
		</contour>
	</outline>
</glyph>
<glyph name="equal" format="2">
	<advance width="600"/>
	<unicode hex="003D"/>
	<outline>
		<contour>
			<point x="118" y="421" type="line"/>
			<point x="528" y="421" type="line"/>
			<point x="535" y="466" type="line"/>
			<point x="125" y="466" type="line"/>
		</contour>
		<contour>
			<point x="82" y="195" type="line"/>
			<point x="492" y="195" type="line"/>
			<point x="499" y="240" type="line"/>
			<point x="89" y="240" type="line"/>
		</contour>
	</outline>
</glyph>
<glyph name="greater" format="2">
	<advance width="600"/>
	<unicode hex="003E"/>
	<outline>
		<contour>
			<point x="59" y="80" type="line"/>
			<point x="515" y="312" type="line"/>
			<point x="523" y="358" type="line"/>
			<point x="138" y="580" type="line"/>
			<point x="130" y="533" type="line"/>
			<point x="397" y="378" type="line" smooth="yes"/>
			<point x="432" y="358"/>
			<point x="472" y="336"/>
			<point x="472" y="336" type="curve"/>
			<point x="472" y="336"/>
			<point x="425" y="315"/>
			<point x="384" y="295" type="curve" smooth="yes"/>
			<point x="68" y="138" type="line"/>
		</contour>
	</outline>
</glyph>
<glyph name="question" format="2">
	<advance width="600"/>
	<unicode hex="003F"/>
	<outline>
		<contour>
			<point x="229" y="205" type="line"/>
			<point x="279" y="205" type="line"/>
			<point x="299" y="330" type="line"/>
			<point x="427" y="330"/>
			<point x="521" y="408"/>
			<point x="540" y="530" type="curve" smooth="yes"/>
			<point x="559" y="651"/>
			<point x="489" y="730"/>
			<point x="362" y="730" type="curve" smooth="yes"/>
			<point x="242" y="730" type="line"/>
			<point x="235" y="685" type="line"/>
			<point x="355" y="685" type="line" smooth="yes"/>
			<point x="451" y="685"/>
			<point x="505" y="624"/>
			<point x="490" y="530" type="curve" smooth="yes"/>
			<point x="475" y="436"/>
			<point x="403" y="375"/>
			<point x="306" y="375" type="curve" smooth="yes"/>
			<point x="256" y="375" type="line"/>
		</contour>
		<contour>
			<point x="216" y="-5" type="curve" smooth="yes"/>
			<point x="221" y="-5" type="line" smooth="yes"/>
			<point x="254" y="-5"/>
			<point x="280" y="17"/>
			<point x="285" y="50" type="curve" smooth="yes"/>
			<point x="290" y="83"/>
			<point x="272" y="105"/>
			<point x="239" y="105" type="curve" smooth="yes"/>
			<point x="234" y="105" type="line" smooth="yes"/>
			<point x="201" y="105"/>
			<point x="175" y="83"/>
			<point x="170" y="50" type="curve" smooth="yes"/>
			<point x="165" y="17"/>
			<point x="183" y="-5"/>
		</contour>
	</outline>
</glyph>
<glyph name="at" format="2">
	<advance width="600"/>
	<unicode hex="0040"/>
	<outline>
		<contour>
			<point x="253" y="-179" type="curve" smooth="yes"/>
			<point x="328" y="-179" type="line"/>
			<point x="335" y="-134" type="line"/>
			<point x="260" y="-134" type="line" smooth="yes"/>
			<point x="128" y="-134"/>
			<point x="65" y="-37"/>
			<point x="89" y="116" type="curve" smooth="yes"/>
			<point x="141" y="445" type="line" smooth="yes"/>
			<point x="167" y="603"/>
			<point x="252" y="696"/>
			<point x="381" y="696" type="curve" smooth="yes"/>
			<point x="493" y="696"/>
			<point x="549" y="616"/>
			<point x="528" y="485" type="curve" smooth="yes"/>
			<point x="527" y="480" type="line"/>
			<point x="521" y="410" type="line"/>
			<point x="494" y="410" type="line"/>
			<point x="513" y="390" type="line"/>
			<point x="522" y="451"/>
			<point x="485" y="485"/>
			<point x="411" y="485" type="curve" smooth="yes"/>
			<point x="324" y="485"/>
			<point x="270" y="434"/>
			<point x="255" y="340" type="curve" smooth="yes"/>
			<point x="234" y="210" type="line" smooth="yes"/>
			<point x="218" y="110"/>
			<point x="257" y="55"/>
			<point x="343" y="55" type="curve" smooth="yes"/>
			<point x="413" y="55"/>
			<point x="466" y="93"/>
			<point x="475" y="150" type="curve"/>
			<point x="452" y="130" type="line"/>
			<point x="477" y="130" type="line"/>
			<point x="466" y="65" type="line"/>
			<point x="511" y="65" type="line"/>
			<point x="578" y="485" type="line" smooth="yes"/>
			<point x="603" y="641"/>
			<point x="529" y="740"/>
			<point x="388" y="740" type="curve" smooth="yes"/>
			<point x="230" y="740"/>
			<point x="120" y="628"/>
			<point x="91" y="445" type="curve" smooth="yes"/>
			<point x="39" y="116" type="line" smooth="yes"/>
			<point x="11" y="-64"/>
			<point x="91" y="-179"/>
		</contour>
		<contour>
			<point x="367" y="100" type="curve" smooth="yes"/>
			<point x="301" y="100"/>
			<point x="273" y="137"/>
			<point x="284" y="210" type="curve" smooth="yes"/>
			<point x="305" y="340" type="line" smooth="yes"/>
			<point x="315" y="406"/>
			<point x="355" y="440"/>
			<point x="420" y="440" type="curve" smooth="yes"/>
			<point x="485" y="440"/>
			<point x="515" y="404"/>
			<point x="505" y="340" type="curve" smooth="yes"/>
			<point x="484" y="210" type="line" smooth="yes"/>
			<point x="473" y="140"/>
			<point x="431" y="100"/>
		</contour>
	</outline>
</glyph>
<glyph name="A" format="2">
	<advance width="600"/>
	<unicode hex="0041"/>
	<outline>
		<contour>
			<point x="24" y="0" type="line"/>
			<point x="77" y="0" type="line"/>
			<point x="166" y="210" type="line"/>
			<point x="416" y="210" type="line"/>
			<point x="439" y="0" type="line"/>
			<point x="488" y="0" type="line"/>
			<point x="403" y="730" type="line"/>
			<point x="341" y="730" type="line"/>
		</contour>
		<contour>
			<point x="185" y="255" type="line"/>
			<point x="312" y="550" type="line" smooth="yes"/>
			<point x="343" y="622"/>
			<point x="361" y="673"/>
			<point x="366" y="688" type="curve"/>
			<point x="367" y="673"/>
			<point x="371" y="622"/>
			<point x="379" y="550" type="curve" smooth="yes"/>
			<point x="411" y="255" type="line"/>
		</contour>
	</outline>
</glyph>
<glyph name="B" format="2">
	<advance width="600"/>
	<unicode hex="0042"/>
	<outline>
		<contour>
			<point x="66" y="0" type="line"/>
			<point x="257" y="0" type="line" smooth="yes"/>
			<point x="389" y="0"/>
			<point x="484" y="78"/>
			<point x="504" y="200" type="curve" smooth="yes"/>
			<point x="521" y="310"/>
			<point x="464" y="380"/>
			<point x="356" y="380" type="curve"/>
			<point x="355" y="370" type="line"/>
			<point x="451" y="370"/>
			<point x="527" y="439"/>
			<point x="543" y="542" type="curve" smooth="yes"/>
			<point x="561" y="656"/>
			<point x="494" y="730"/>
			<point x="373" y="730" type="curve" smooth="yes"/>
			<point x="182" y="730" type="line"/>
		</contour>
		<contour>
			<point x="264" y="45" type="curve" smooth="yes"/>
			<point x="123" y="45" type="line"/>
			<point x="172" y="353" type="line"/>
			<point x="313" y="353" type="line" smooth="yes"/>
			<point x="415" y="353"/>
			<point x="469" y="294"/>
			<point x="454" y="199" type="curve" smooth="yes"/>
			<point x="438" y="104"/>
			<point x="366" y="45"/>
		</contour>
		<contour>
			<point x="320" y="398" type="curve" smooth="yes"/>
			<point x="179" y="398" type="line"/>
			<point x="225" y="685" type="line"/>
			<point x="366" y="685" type="line" smooth="yes"/>
			<point x="459" y="685"/>
			<point x="507" y="630"/>
			<point x="493" y="541" type="curve" smooth="yes"/>
			<point x="479" y="452"/>
			<point x="414" y="398"/>
		</contour>
	</outline>
</glyph>
<glyph name="D" format="2">
	<advance width="600"/>
	<unicode hex="0044"/>
	<outline>
		<contour>
			<point x="66" y="0" type="line"/>
			<point x="226" y="0" type="line" smooth="yes"/>
			<point x="361" y="0"/>
			<point x="465" y="88"/>
			<point x="486" y="220" type="curve" smooth="yes"/>
			<point x="532" y="510" type="line" smooth="yes"/>
			<point x="553" y="642"/>
			<point x="476" y="730"/>
			<point x="342" y="730" type="curve" smooth="yes"/>
			<point x="182" y="730" type="line"/>
		</contour>
		<contour>
			<point x="233" y="45" type="curve" smooth="yes"/>
			<point x="123" y="45" type="line"/>
			<point x="225" y="685" type="line"/>
			<point x="335" y="685" type="line" smooth="yes"/>
			<point x="439" y="685"/>
			<point x="498" y="614"/>
			<point x="482" y="510" type="curve" smooth="yes"/>
			<point x="436" y="220" type="line" smooth="yes"/>
			<point x="419" y="115"/>
			<point x="338" y="45"/>
		</contour>
	</outline>
</glyph>
<glyph name="E" format="2">
	<advance width="600"/>
	<unicode hex="0045"/>
	<outline>
		<contour>
			<point x="76" y="0" type="line"/>
			<point x="466" y="0" type="line"/>
			<point x="473" y="45" type="line"/>
			<point x="133" y="45" type="line"/>
			<point x="183" y="358" type="line"/>
			<point x="488" y="358" type="line"/>
			<point x="495" y="403" type="line"/>
			<point x="190" y="403" type="line"/>
			<point x="234" y="685" type="line"/>
			<point x="574" y="685" type="line"/>
			<point x="582" y="730" type="line"/>
			<point x="192" y="730" type="line"/>
		</contour>
	</outline>
</glyph>
<glyph name="F" format="2">
	<advance width="600"/>
	<unicode hex="0046"/>
	<outline>
		<contour>
			<point x="71" y="0" type="line"/>
			<point x="121" y="0" type="line"/>
			<point x="176" y="347" type="line"/>
			<point x="501" y="347" type="line"/>
			<point x="508" y="392" type="line"/>
			<point x="183" y="392" type="line"/>
			<point x="229" y="685" type="line"/>
			<point x="589" y="685" type="line"/>
			<point x="597" y="730" type="line"/>
			<point x="187" y="730" type="line"/>
		</contour>
	</outline>
</glyph>
<glyph name="G" format="2">
	<advance width="600"/>
	<unicode hex="0047"/>
	<outline>
		<contour>
			<point x="260" y="-10" type="curve" smooth="yes"/>
			<point x="385" y="-10"/>
			<point x="477" y="72"/>
			<point x="498" y="200" type="curve" smooth="yes"/>
			<point x="522" y="355" type="line"/>
			<point x="299" y="355" type="line"/>
			<point x="292" y="310" type="line"/>
			<point x="465" y="310" type="line"/>
			<point x="448" y="200" type="line" smooth="yes"/>
			<point x="431" y="98"/>
			<point x="363" y="35"/>
			<point x="268" y="35" type="curve" smooth="yes"/>
			<point x="174" y="35"/>
			<point x="126" y="94"/>
			<point x="141" y="190" type="curve" smooth="yes"/>
			<point x="197" y="540" type="line" smooth="yes"/>
			<point x="212" y="636"/>
			<point x="279" y="695"/>
			<point x="372" y="695" type="curve" smooth="yes"/>
			<point x="467" y="695"/>
			<point x="516" y="632"/>
			<point x="500" y="530" type="curve"/>
			<point x="550" y="530" type="line"/>
			<point x="570" y="658"/>
			<point x="503" y="740"/>
			<point x="379" y="740" type="curve" smooth="yes"/>
			<point x="257" y="740"/>
			<point x="166" y="662"/>
			<point x="147" y="540" type="curve" smooth="yes"/>
			<point x="91" y="190" type="line" smooth="yes"/>
			<point x="72" y="69"/>
			<point x="138" y="-10"/>
		</contour>
	</outline>
</glyph>
<glyph name="H" format="2">
	<advance width="600"/>
	<unicode hex="0048"/>
	<outline>
		<contour>
			<point x="66" y="0" type="line"/>
			<point x="116" y="0" type="line"/>
			<point x="172" y="356" type="line"/>
			<point x="452" y="356" type="line"/>
			<point x="396" y="0" type="line"/>
			<point x="446" y="0" type="line"/>
			<point x="562" y="730" type="line"/>
			<point x="512" y="730" type="line"/>
			<point x="460" y="401" type="line"/>
			<point x="180" y="401" type="line"/>
			<point x="232" y="730" type="line"/>
			<point x="182" y="730" type="line"/>
		</contour>
	</outline>
</glyph>
<glyph name="I" format="2">
	<advance width="600"/>
	<unicode hex="0049"/>
	<outline>
		<contour>
			<point x="66" y="0" type="line"/>
			<point x="446" y="0" type="line"/>
			<point x="453" y="46" type="line"/>
			<point x="289" y="46" type="line"/>
			<point x="391" y="685" type="line"/>
			<point x="555" y="685" type="line"/>
			<point x="562" y="731" type="line"/>
			<point x="182" y="731" type="line"/>
			<point x="175" y="685" type="line"/>
			<point x="341" y="685" type="line"/>
			<point x="239" y="46" type="line"/>
			<point x="73" y="46" type="line"/>
		</contour>
	</outline>
</glyph>
<glyph name="J" format="2">
	<advance width="600"/>
	<unicode hex="004A"/>
	<outline>
		<contour>
			<point x="230" y="-10" type="curve" smooth="yes"/>
			<point x="362" y="-10"/>
			<point x="447" y="65"/>
			<point x="468" y="199" type="curve" smooth="yes"/>
			<point x="552" y="730" type="line"/>
			<point x="315" y="730" type="line"/>
			<point x="307" y="680" type="line"/>
			<point x="494" y="680" type="line"/>
			<point x="418" y="199" type="line" smooth="yes"/>
			<point x="402" y="99"/>
			<point x="331" y="35"/>
			<point x="237" y="35" type="curve" smooth="yes"/>
			<point x="141" y="35"/>
			<point x="92" y="97"/>
			<point x="108" y="200" type="curve"/>
			<point x="58" y="200" type="line"/>
			<point x="38" y="69"/>
			<point x="102" y="-10"/>
		</contour>
	</outline>
</glyph>
<glyph name="K" format="2">
	<advance width="600"/>
	<unicode hex="004B"/>
	<outline>
		<contour>
			<point x="66" y="0" type="line"/>
			<point x="116" y="0" type="line"/>
			<point x="172" y="356" type="line"/>
			<point x="326" y="356" type="line"/>
			<point x="439" y="0" type="line"/>
			<point x="496" y="0" type="line"/>
			<point x="373" y="378" type="line"/>
			<point x="602" y="731" type="line"/>
			<point x="543" y="731" type="line"/>
			<point x="331" y="401" type="line"/>
			<point x="180" y="401" type="line"/>
			<point x="232" y="731" type="line"/>
			<point x="182" y="731" type="line"/>
		</contour>
	</outline>
</glyph>
<glyph name="L" format="2">
	<advance width="600"/>
	<unicode hex="004C"/>
	<outline>
		<contour>
			<point x="76" y="0" type="line"/>
			<point x="481" y="0" type="line"/>
			<point x="488" y="45" type="line"/>
			<point x="133" y="45" type="line"/>
			<point x="242" y="730" type="line"/>
			<point x="192" y="730" type="line"/>
		</contour>
	</outline>
</glyph>
<glyph name="M" format="2">
	<advance width="600"/>
	<unicode hex="004D"/>
	<outline>
		<contour>
			<point x="48" y="0" type="line"/>
			<point x="97" y="0" type="line"/>
			<point x="167" y="440" type="line" smooth="yes"/>
			<point x="189" y="580"/>
			<point x="203" y="705"/>
			<point x="203" y="705" type="curve"/>
			<point x="281" y="325" type="line"/>
			<point x="334" y="325" type="line"/>
			<point x="532" y="705" type="line"/>
			<point x="532" y="705"/>
			<point x="507" y="580"/>
			<point x="485" y="440" type="curve" smooth="yes"/>
			<point x="415" y="0" type="line"/>
			<point x="464" y="0" type="line"/>
			<point x="580" y="730" type="line"/>
			<point x="506" y="730" type="line"/>
			<point x="361" y="450" type="line" smooth="yes"/>
			<point x="339" y="409"/>
			<point x="314" y="359"/>
			<point x="314" y="359" type="curve"/>
			<point x="314" y="359"/>
			<point x="305" y="410"/>
			<point x="297" y="450" type="curve" smooth="yes"/>
			<point x="239" y="730" type="line"/>
			<point x="164" y="730" type="line"/>
		</contour>
	</outline>
</glyph>
<glyph name="N" format="2">
	<advance width="600"/>
	<unicode hex="004E"/>
	<outline>
		<contour>
			<point x="66" y="0" type="line"/>
			<point x="114" y="0" type="line"/>
			<point x="203" y="560" type="line" smooth="yes"/>
			<point x="214" y="630"/>
			<point x="219" y="675"/>
			<point x="219" y="675" type="curve"/>
			<point x="376" y="0" type="line"/>
			<point x="446" y="0" type="line"/>
			<point x="562" y="730" type="line"/>
			<point x="514" y="730" type="line"/>
			<point x="425" y="170" type="line" smooth="yes"/>
			<point x="422" y="149"/>
			<point x="411" y="55"/>
			<point x="411" y="55" type="curve"/>
			<point x="251" y="730" type="line"/>
			<point x="182" y="730" type="line"/>
		</contour>
	</outline>
</glyph>
<glyph name="O" format="2">
	<advance width="600"/>
	<unicode hex="004F"/>
	<outline>
		<contour>
			<point x="254" y="-10" type="curve" smooth="yes"/>
			<point x="377" y="-10"/>
			<point x="461" y="64"/>
			<point x="481" y="190" type="curve" smooth="yes"/>
			<point x="537" y="540" type="line" smooth="yes"/>
			<point x="556" y="661"/>
			<point x="491" y="740"/>
			<point x="373" y="740" type="curve" smooth="yes"/>
			<point x="255" y="740"/>
			<point x="166" y="661"/>
			<point x="147" y="540" type="curve" smooth="yes"/>
			<point x="91" y="190" type="line" smooth="yes"/>
			<point x="72" y="68"/>
			<point x="136" y="-10"/>
		</contour>
		<contour>
			<point x="261" y="34" type="curve" smooth="yes"/>
			<point x="170" y="34"/>
			<point x="125" y="91"/>
			<point x="141" y="190" type="curve" smooth="yes"/>
			<point x="197" y="540" type="line" smooth="yes"/>
			<point x="212" y="638"/>
			<point x="275" y="696"/>
			<point x="366" y="696" type="curve" smooth="yes"/>
			<point x="457" y="696"/>
			<point x="502" y="638"/>
			<point x="487" y="540" type="curve" smooth="yes"/>
			<point x="431" y="190" type="line" smooth="yes"/>
			<point x="415" y="93"/>
			<point x="351" y="34"/>
		</contour>
	</outline>
</glyph>
<glyph name="P" format="2">
	<advance width="600"/>
	<unicode hex="0050"/>
	<outline>
		<contour>
			<point x="66" y="0" type="line"/>
			<point x="116" y="0" type="line"/>
			<point x="167" y="324" type="line"/>
			<point x="332" y="324" type="line" smooth="yes"/>
			<point x="459" y="324"/>
			<point x="555" y="404"/>
			<point x="574" y="527" type="curve" smooth="yes"/>
			<point x="594" y="650"/>
			<point x="524" y="730"/>
			<point x="397" y="730" type="curve" smooth="yes"/>
			<point x="182" y="730" type="line"/>
		</contour>
		<contour>
			<point x="339" y="369" type="curve" smooth="yes"/>
			<point x="174" y="369" type="line"/>
			<point x="225" y="685" type="line"/>
			<point x="390" y="685" type="line" smooth="yes"/>
			<point x="487" y="685"/>
			<point x="540" y="624"/>
			<point x="524" y="527" type="curve" smooth="yes"/>
			<point x="509" y="431"/>
			<point x="437" y="369"/>
		</contour>
	</outline>
</glyph>
<glyph name="Q" format="2">
	<advance width="600"/>
	<unicode hex="0051"/>
	<outline>
		<contour>
			<point x="376" y="-180" type="line"/>
			<point x="437" y="-180" type="line"/>
			<point x="353" y="10" type="line"/>
			<point x="421" y="40"/>
			<point x="468" y="106"/>
			<point x="481" y="190" type="curve" smooth="yes"/>
			<point x="537" y="540" type="line" smooth="yes"/>
			<point x="555" y="656"/>
			<point x="493" y="740"/>
			<point x="374" y="740" type="curve" smooth="yes"/>
			<point x="254" y="740"/>
			<point x="166" y="662"/>
			<point x="147" y="540" type="curve" smooth="yes"/>
			<point x="91" y="190" type="line" smooth="yes"/>
			<point x="72" y="69"/>
			<point x="137" y="-10"/>
			<point x="255" y="-10" type="curve" smooth="yes"/>
			<point x="283" y="-10"/>
			<point x="309" y="-5"/>
			<point x="309" y="-5" type="curve"/>
			<point x="295" y="0" type="line"/>
		</contour>
		<contour>
			<point x="263" y="35" type="curve" smooth="yes"/>
			<point x="170" y="35"/>
			<point x="126" y="92"/>
			<point x="141" y="190" type="curve" smooth="yes"/>
			<point x="197" y="540" type="line" smooth="yes"/>
			<point x="212" y="638"/>
			<point x="275" y="695"/>
			<point x="367" y="695" type="curve" smooth="yes"/>
			<point x="457" y="695"/>
			<point x="502" y="637"/>
			<point x="487" y="540" type="curve" smooth="yes"/>
			<point x="431" y="190" type="line" smooth="yes"/>
			<point x="416" y="92"/>
			<point x="353" y="35"/>
		</contour>
	</outline>
</glyph>
<glyph name="R" format="2">
	<advance width="600"/>
	<unicode hex="0052"/>
	<outline>
		<contour>
			<point x="66" y="0" type="line"/>
			<point x="116" y="0" type="line"/>
			<point x="168" y="330" type="line"/>
			<point x="313" y="330" type="line"/>
			<point x="426" y="0" type="line"/>
			<point x="486" y="0" type="line"/>
			<point x="368" y="332" type="line"/>
			<point x="472" y="347"/>
			<point x="548" y="422"/>
			<point x="565" y="528" type="curve" smooth="yes"/>
			<point x="584" y="652"/>
			<point x="516" y="730"/>
			<point x="387" y="730" type="curve" smooth="yes"/>
			<point x="182" y="730" type="line"/>
		</contour>
		<contour>
			<point x="330" y="375" type="curve" smooth="yes"/>
			<point x="175" y="375" type="line"/>
			<point x="225" y="685" type="line"/>
			<point x="380" y="685" type="line" smooth="yes"/>
			<point x="477" y="685"/>
			<point x="530" y="624"/>
			<point x="515" y="530" type="curve" smooth="yes"/>
			<point x="500" y="436"/>
			<point x="427" y="375"/>
		</contour>
	</outline>
</glyph>
<glyph name="S" format="2">
	<advance width="600"/>
	<unicode hex="0053"/>
	<outline>
		<contour>
			<point x="259" y="-10" type="curve" smooth="yes"/>
			<point x="390" y="-10"/>
			<point x="481" y="62"/>
			<point x="500" y="180" type="curve" smooth="yes"/>
			<point x="515" y="276"/>
			<point x="465" y="353"/>
			<point x="371" y="384" type="curve" smooth="yes"/>
			<point x="291" y="410" type="line" smooth="yes"/>
			<point x="222" y="433"/>
			<point x="188" y="489"/>
			<point x="200" y="563" type="curve" smooth="yes"/>
			<point x="213" y="645"/>
			<point x="278" y="695"/>
			<point x="371" y="695" type="curve" smooth="yes"/>
			<point x="464" y="695"/>
			<point x="512" y="639"/>
			<point x="498" y="548" type="curve"/>
			<point x="548" y="548" type="line"/>
			<point x="566" y="662"/>
			<point x="497" y="740"/>
			<point x="379" y="740" type="curve" smooth="yes"/>
			<point x="254" y="740"/>
			<point x="167" y="672"/>
			<point x="150" y="559" type="curve" smooth="yes"/>
			<point x="135" y="467"/>
			<point x="182" y="393"/>
			<point x="273" y="365" type="curve" smooth="yes"/>
			<point x="353" y="340" type="line" smooth="yes"/>
			<point x="425" y="317"/>
			<point x="461" y="254"/>
			<point x="449" y="177" type="curve" smooth="yes"/>
			<point x="435" y="89"/>
			<point x="366" y="35"/>
			<point x="267" y="35" type="curve" smooth="yes"/>
			<point x="163" y="35"/>
			<point x="106" y="93"/>
			<point x="120" y="185" type="curve"/>
			<point x="70" y="185" type="line"/>
			<point x="52" y="67"/>
			<point x="126" y="-10"/>
		</contour>
	</outline>
</glyph>
<glyph name="T" format="2">
	<advance width="600"/>
	<unicode hex="0054"/>
	<outline>
		<contour>
			<point x="232" y="0" type="line"/>
			<point x="282" y="0" type="line"/>
			<point x="391" y="685" type="line"/>
			<point x="605" y="685" type="line"/>
			<point x="612" y="730" type="line"/>
			<point x="132" y="730" type="line"/>
			<point x="125" y="685" type="line"/>
			<point x="341" y="685" type="line"/>
		</contour>
	</outline>
</glyph>
<glyph name="U" format="2">
	<advance width="600"/>
	<unicode hex="0055"/>
	<outline>
		<contour>
			<point x="255" y="-10" type="curve" smooth="yes"/>
			<point x="372" y="-10"/>
			<point x="459" y="69"/>
			<point x="478" y="190" type="curve" smooth="yes"/>
			<point x="564" y="730" type="line"/>
			<point x="514" y="730" type="line"/>
			<point x="428" y="190" type="line" smooth="yes"/>
			<point x="413" y="93"/>
			<point x="352" y="35"/>
			<point x="263" y="35" type="curve" smooth="yes"/>
			<point x="172" y="35"/>
			<point x="129" y="92"/>
			<point x="144" y="190" type="curve" smooth="yes"/>
			<point x="230" y="730" type="line"/>
			<point x="180" y="730" type="line"/>
			<point x="94" y="190" type="line" smooth="yes"/>
			<point x="75" y="69"/>
			<point x="139" y="-10"/>
		</contour>
	</outline>
</glyph>
<glyph name="V" format="2">
	<advance width="600"/>
	<unicode hex="0056"/>
	<outline>
		<contour>
			<point x="224" y="0" type="line"/>
			<point x="288" y="0" type="line"/>
			<point x="604" y="730" type="line"/>
			<point x="552" y="730" type="line"/>
			<point x="317" y="180" type="line" smooth="yes"/>
			<point x="283" y="100"/>
			<point x="261" y="40"/>
			<point x="261" y="40" type="curve"/>
			<point x="261" y="40"/>
			<point x="259" y="100"/>
			<point x="250" y="180" type="curve" smooth="yes"/>
			<point x="190" y="730" type="line"/>
			<point x="140" y="730" type="line"/>
		</contour>
	</outline>
</glyph>
<glyph name="W" format="2">
	<advance width="600"/>
	<unicode hex="0057"/>
	<outline>
		<contour>
			<point x="86" y="0" type="line"/>
			<point x="156" y="0" type="line"/>
			<point x="319" y="530" type="line" smooth="yes"/>
			<point x="341" y="601"/>
			<point x="368" y="690"/>
			<point x="368" y="690" type="curve"/>
			<point x="368" y="690"/>
			<point x="364" y="600"/>
			<point x="363" y="530" type="curve" smooth="yes"/>
			<point x="353" y="0" type="line"/>
			<point x="425" y="0" type="line"/>
			<point x="631" y="730" type="line"/>
			<point x="584" y="730" type="line"/>
			<point x="436" y="190" type="line" smooth="yes"/>
			<point x="422" y="139"/>
			<point x="391" y="35"/>
			<point x="391" y="35" type="curve"/>
			<point x="391" y="35"/>
			<point x="393" y="139"/>
			<point x="394" y="190" type="curve" smooth="yes"/>
			<point x="406" y="730" type="line"/>
			<point x="341" y="730" type="line"/>
			<point x="178" y="190" type="line" smooth="yes"/>
			<point x="163" y="140"/>
			<point x="132" y="35"/>
			<point x="132" y="35" type="curve"/>
			<point x="132" y="35"/>
			<point x="136" y="140"/>
			<point x="138" y="190" type="curve" smooth="yes"/>
			<point x="156" y="730" type="line"/>
			<point x="112" y="730" type="line"/>
		</contour>
	</outline>
</glyph>
<glyph name="X" format="2">
	<advance width="600"/>
	<unicode hex="0058"/>
	<outline>
		<contour>
			<point x="9" y="0" type="line"/>
			<point x="66" y="0" type="line"/>
			<point x="246" y="252" type="line" smooth="yes"/>
			<point x="267" y="281"/>
			<point x="312" y="345"/>
			<point x="312" y="345" type="curve"/>
			<point x="312" y="345"/>
			<point x="340" y="281"/>
			<point x="351" y="252" type="curve" smooth="yes"/>
			<point x="449" y="0" type="line"/>
			<point x="503" y="0" type="line"/>
			<point x="344" y="380" type="line"/>
			<point x="604" y="730" type="line"/>
			<point x="548" y="730" type="line"/>
			<point x="388" y="508" type="line" smooth="yes"/>
			<point x="365" y="476"/>
			<point x="322" y="415"/>
			<point x="322" y="415" type="curve"/>
			<point x="322" y="415"/>
			<point x="295" y="477"/>
			<point x="282" y="508" type="curve" smooth="yes"/>
			<point x="194" y="730" type="line"/>
			<point x="140" y="730" type="line"/>
			<point x="290" y="382" type="line"/>
		</contour>
	</outline>
</glyph>
<glyph name="Y" format="2">
	<advance width="600"/>
	<unicode hex="0059"/>
	<outline>
		<contour>
			<point x="231" y="0" type="line"/>
			<point x="281" y="0" type="line"/>
			<point x="325" y="280" type="line"/>
			<point x="621" y="730" type="line"/>
			<point x="569" y="730" type="line"/>
			<point x="353" y="400" type="line" smooth="yes"/>
			<point x="327" y="359"/>
			<point x="308" y="330"/>
			<point x="308" y="330" type="curve"/>
			<point x="308" y="330"/>
			<point x="299" y="360"/>
			<point x="285" y="400" type="curve" smooth="yes"/>
			<point x="173" y="730" type="line"/>
			<point x="122" y="730" type="line"/>
			<point x="275" y="280" type="line"/>
		</contour>
	</outline>
</glyph>
<glyph name="Z" format="2">
	<advance width="600"/>
	<unicode hex="005A"/>
	<outline>
		<contour>
			<point x="47" y="0" type="line"/>
			<point x="464" y="0" type="line"/>
			<point x="471" y="45" type="line"/>
			<point x="105" y="45" type="line"/>
			<point x="558" y="674" type="line"/>
			<point x="567" y="730" type="line"/>
			<point x="167" y="730" type="line"/>
			<point x="160" y="685" type="line"/>
			<point x="512" y="685" type="line"/>
			<point x="55" y="49" type="line"/>
		</contour>
	</outline>
</glyph>
<glyph name="bracketleft" format="2">
	<advance width="600"/>
	<unicode hex="005B"/>
	<outline>
		<contour>
			<point x="159" y="-110" type="line"/>
			<point x="384" y="-110" type="line"/>
			<point x="391" y="-65" type="line"/>
			<point x="216" y="-65" type="line"/>
			<point x="350" y="785" type="line"/>
			<point x="525" y="785" type="line"/>
			<point x="532" y="830" type="line"/>
			<point x="307" y="830" type="line"/>
		</contour>
	</outline>
</glyph>
<glyph name="backslash" format="2">
	<advance width="600"/>
	<unicode hex="005C"/>
	<outline>
		<contour>
			<point x="393" y="-110" type="line"/>
			<point x="441" y="-110" type="line"/>
			<point x="233" y="830" type="line"/>
			<point x="185" y="830" type="line"/>
		</contour>
	</outline>
</glyph>
<glyph name="bracketright" format="2">
	<advance width="600"/>
	<unicode hex="005D"/>
	<outline>
		<contour>
			<point x="94" y="-110" type="line"/>
			<point x="319" y="-110" type="line"/>
			<point x="467" y="830" type="line"/>
			<point x="242" y="830" type="line"/>
			<point x="235" y="785" type="line"/>
			<point x="410" y="785" type="line"/>
			<point x="276" y="-65" type="line"/>
			<point x="101" y="-65" type="line"/>
		</contour>
	</outline>
</glyph>
<glyph name="asciicircum" format="2">
	<advance width="600"/>
	<unicode hex="005E"/>
	<outline>
		<contour>
			<point x="110" y="340" type="line"/>
			<point x="171" y="340" type="line"/>
			<point x="326" y="600" type="line" smooth="yes"/>
			<point x="347" y="635"/>
			<point x="368" y="678"/>
			<point x="368" y="678" type="curve"/>
			<point x="368" y="678"/>
			<point x="377" y="635"/>
			<point x="386" y="600" type="curve" smooth="yes"/>
			<point x="456" y="340" type="line"/>
			<point x="510" y="340" type="line"/>
			<point x="401" y="730" type="line"/>
			<point x="348" y="730" type="line"/>
		</contour>
	</outline>
</glyph>
<glyph name="underscore" format="2">
	<advance width="600"/>
	<unicode hex="005F"/>
	<outline>
		<contour>
			<point x="5" y="-70" type="line"/>
			<point x="485" y="-70" type="line"/>
			<point x="492" y="-25" type="line"/>
			<point x="12" y="-25" type="line"/>
		</contour>
	</outline>
</glyph>
<glyph name="grave" format="2">
	<advance width="600"/>
	<unicode hex="0060"/>
	<outline>
		<contour>
			<point x="385" y="645" type="line"/>
			<point x="431" y="645" type="line"/>
			<point x="338" y="785" type="line"/>
			<point x="282" y="785" type="line"/>
		</contour>
	</outline>
</glyph>
<glyph name="a" format="2">
	<advance width="600"/>
	<unicode hex="0061"/>
	<outline>
		<contour>
			<point x="232" y="-10" type="curve" smooth="yes"/>
			<point x="327" y="-10"/>
			<point x="397" y="48"/>
			<point x="411" y="140" type="curve"/>
			<point x="389" y="89" type="line"/>
			<point x="393" y="89" type="line"/>
			<point x="384" y="36"/>
			<point x="411" y="0"/>
			<point x="461" y="0" type="curve" smooth="yes"/>
			<point x="515" y="0" type="line"/>
			<point x="522" y="44" type="line"/>
			<point x="475" y="44" type="line" smooth="yes"/>
			<point x="450" y="44"/>
			<point x="439" y="61"/>
			<point x="443" y="89" type="curve" smooth="yes"/>
			<point x="516" y="550" type="line"/>
			<point x="466" y="550" type="line"/>
			<point x="454" y="475" type="line"/>
			<point x="426" y="475" type="line"/>
			<point x="454" y="410" type="line"/>
			<point x="468" y="502"/>
			<point x="417" y="560"/>
			<point x="323" y="560" type="curve" smooth="yes"/>
			<point x="217" y="560"/>
			<point x="136" y="482"/>
			<point x="117" y="361" type="curve" smooth="yes"/>
			<point x="90" y="190" type="line" smooth="yes"/>
			<point x="71" y="68"/>
			<point x="126" y="-10"/>
		</contour>
		<contour>
			<point x="248" y="31" type="curve" smooth="yes"/>
			<point x="164" y="31"/>
			<point x="124" y="90"/>
			<point x="140" y="190" type="curve" smooth="yes"/>
			<point x="167" y="361" type="line" smooth="yes"/>
			<point x="183" y="461"/>
			<point x="241" y="519"/>
			<point x="325" y="519" type="curve" smooth="yes"/>
			<point x="410" y="519"/>
			<point x="452" y="460"/>
			<point x="436" y="361" type="curve" smooth="yes"/>
			<point x="409" y="190" type="line" smooth="yes"/>
			<point x="393" y="91"/>
			<point x="333" y="31"/>
		</contour>
	</outline>
</glyph>
<glyph name="b" format="2">
	<advance width="600"/>
	<unicode hex="0062"/>
	<outline>
		<contour>
			<point x="267" y="-10" type="curve" smooth="yes"/>
			<point x="377" y="-10"/>
			<point x="462" y="69"/>
			<point x="481" y="189" type="curve" smooth="yes"/>
			<point x="508" y="360" type="line" smooth="yes"/>
			<point x="527" y="480"/>
			<point x="468" y="560"/>
			<point x="358" y="560" type="curve" smooth="yes"/>
			<point x="262" y="560"/>
			<point x="185" y="501"/>
			<point x="171" y="410" type="curve"/>
			<point x="209" y="475" type="line"/>
			<point x="191" y="475" type="line"/>
			<point x="208" y="580" type="line"/>
			<point x="232" y="730" type="line"/>
			<point x="182" y="730" type="line"/>
			<point x="66" y="0" type="line"/>
			<point x="116" y="0" type="line"/>
			<point x="128" y="75" type="line"/>
			<point x="156" y="75" type="line"/>
			<point x="128" y="140" type="line"/>
			<point x="114" y="49"/>
			<point x="172" y="-10"/>
		</contour>
		<contour>
			<point x="264" y="33" type="curve" smooth="yes"/>
			<point x="174" y="33"/>
			<point x="130" y="91"/>
			<point x="146" y="189" type="curve" smooth="yes"/>
			<point x="173" y="360" type="line" smooth="yes"/>
			<point x="188" y="458"/>
			<point x="250" y="517"/>
			<point x="341" y="517" type="curve" smooth="yes"/>
			<point x="430" y="517"/>
			<point x="474" y="458"/>
			<point x="458" y="360" type="curve" smooth="yes"/>
			<point x="431" y="189" type="line" smooth="yes"/>
			<point x="415" y="91"/>
			<point x="353" y="33"/>
		</contour>
	</outline>
</glyph>
<glyph name="d" format="2">
	<advance width="600"/>
	<unicode hex="0064"/>
	<outline>
		<contour>
			<point x="242" y="-10" type="curve" smooth="yes"/>
			<point x="337" y="-10"/>
			<point x="414" y="49"/>
			<point x="428" y="140" type="curve"/>
			<point x="380" y="75" type="line"/>
			<point x="408" y="75" type="line"/>
			<point x="396" y="0" type="line"/>
			<point x="446" y="0" type="line"/>
			<point x="562" y="730" type="line"/>
			<point x="512" y="730" type="line"/>
			<point x="488" y="580" type="line"/>
			<point x="471" y="475" type="line"/>
			<point x="453" y="475" type="line"/>
			<point x="471" y="410" type="line"/>
			<point x="485" y="501"/>
			<point x="427" y="560"/>
			<point x="332" y="560" type="curve" smooth="yes"/>
			<point x="222" y="560"/>
			<point x="137" y="480"/>
			<point x="118" y="360" type="curve" smooth="yes"/>
			<point x="91" y="189" type="line" smooth="yes"/>
			<point x="72" y="69"/>
			<point x="132" y="-10"/>
		</contour>
		<contour>
			<point x="259" y="33" type="curve" smooth="yes"/>
			<point x="170" y="33"/>
			<point x="125" y="91"/>
			<point x="141" y="189" type="curve" smooth="yes"/>
			<point x="168" y="360" type="line" smooth="yes"/>
			<point x="184" y="458"/>
			<point x="246" y="517"/>
			<point x="335" y="517" type="curve" smooth="yes"/>
			<point x="426" y="517"/>
			<point x="468" y="458"/>
			<point x="453" y="360" type="curve" smooth="yes"/>
			<point x="426" y="189" type="line" smooth="yes"/>
			<point x="410" y="91"/>
			<point x="348" y="33"/>
		</contour>
	</outline>
</glyph>
<glyph name="e" format="2">
	<advance width="600"/>
	<unicode hex="0065"/>
	<outline>
		<contour>
			<point x="255" y="-10" type="curve" smooth="yes"/>
			<point x="358" y="-10"/>
			<point x="438" y="46"/>
			<point x="471" y="135" type="curve"/>
			<point x="421" y="135" type="line"/>
			<point x="393" y="72"/>
			<point x="337" y="34"/>
			<point x="262" y="34" type="curve" smooth="yes"/>
			<point x="169" y="34"/>
			<point x="126" y="94"/>
			<point x="141" y="190" type="curve" smooth="yes"/>
			<point x="153" y="265" type="line"/>
			<point x="493" y="265" type="line"/>
			<point x="508" y="360" type="line" smooth="yes"/>
			<point x="527" y="481"/>
			<point x="466" y="560"/>
			<point x="346" y="560" type="curve" smooth="yes"/>
			<point x="224" y="560"/>
			<point x="137" y="481"/>
			<point x="118" y="360" type="curve" smooth="yes"/>
			<point x="91" y="190" type="line" smooth="yes"/>
			<point x="72" y="68"/>
			<point x="133" y="-10"/>
		</contour>
		<contour>
			<point x="458" y="360" type="curve" smooth="yes"/>
			<point x="448" y="299" type="line"/>
			<point x="461" y="308" type="line"/>
			<point x="160" y="308" type="line"/>
			<point x="168" y="360" type="line" smooth="yes"/>
			<point x="183" y="457"/>
			<point x="245" y="516"/>
			<point x="339" y="516" type="curve" smooth="yes"/>
			<point x="431" y="516"/>
			<point x="473" y="456"/>
		</contour>
	</outline>
</glyph>
<glyph name="f" format="2">
	<advance width="600"/>
	<unicode hex="0066"/>
	<outline>
		<contour>
			<point x="-43" y="-180" type="line"/>
			<point x="23" y="-180" type="line" smooth="yes"/>
			<point x="145" y="-180"/>
			<point x="229" y="-109"/>
			<point x="248" y="10" type="curve" smooth="yes"/>
			<point x="326" y="505" type="line"/>
			<point x="559" y="505" type="line"/>
			<point x="566" y="550" type="line"/>
			<point x="333" y="550" type="line"/>
			<point x="342" y="605" type="line" smooth="yes"/>
			<point x="350" y="656"/>
			<point x="383" y="685"/>
			<point x="434" y="685" type="curve" smooth="yes"/>
			<point x="587" y="685" type="line"/>
			<point x="595" y="730" type="line"/>
			<point x="442" y="730" type="line" smooth="yes"/>
			<point x="361" y="730"/>
			<point x="304" y="683"/>
			<point x="292" y="605" type="curve" smooth="yes"/>
			<point x="283" y="550" type="line"/>
			<point x="113" y="550" type="line"/>
			<point x="106" y="505" type="line"/>
			<point x="276" y="505" type="line"/>
			<point x="198" y="10" type="line" smooth="yes"/>
			<point x="183" y="-84"/>
			<point x="125" y="-135"/>
			<point x="31" y="-135" type="curve" smooth="yes"/>
			<point x="-35" y="-135" type="line"/>
		</contour>
	</outline>
</glyph>
<glyph name="g" format="2">
	<advance width="600"/>
	<unicode hex="0067"/>
	<outline>
		<contour>
			<point x="101" y="-180" type="line"/>
			<point x="246" y="-180" type="line" smooth="yes"/>
			<point x="358" y="-180"/>
			<point x="426" y="-124"/>
			<point x="444" y="-15" type="curve" smooth="yes"/>
			<point x="533" y="550" type="line"/>
			<point x="483" y="550" type="line"/>
			<point x="471" y="475" type="line"/>
			<point x="453" y="475" type="line"/>
			<point x="471" y="410" type="line"/>
			<point x="485" y="501"/>
			<point x="427" y="560"/>
			<point x="332" y="560" type="curve" smooth="yes"/>
			<point x="222" y="560"/>
			<point x="137" y="480"/>
			<point x="118" y="360" type="curve" smooth="yes"/>
			<point x="99" y="239" type="line" smooth="yes"/>
			<point x="80" y="119"/>
			<point x="139" y="40"/>
			<point x="249" y="40" type="curve" smooth="yes"/>
			<point x="345" y="40"/>
			<point x="422" y="99"/>
			<point x="436" y="190" type="curve"/>
			<point x="388" y="125" type="line"/>
			<point x="416" y="125" type="line"/>
			<point x="401" y="30" type="line"/>
			<point x="394" y="-15" type="line" smooth="yes"/>
			<point x="381" y="-94"/>
			<point x="332" y="-135"/>
			<point x="254" y="-135" type="curve" smooth="yes"/>
			<point x="109" y="-135" type="line"/>
		</contour>
		<contour>
			<point x="266" y="83" type="curve" smooth="yes"/>
			<point x="177" y="83"/>
			<point x="133" y="141"/>
			<point x="149" y="239" type="curve" smooth="yes"/>
			<point x="168" y="360" type="line" smooth="yes"/>
			<point x="184" y="458"/>
			<point x="246" y="517"/>
			<point x="335" y="517" type="curve" smooth="yes"/>
			<point x="426" y="517"/>
			<point x="469" y="458"/>
			<point x="453" y="360" type="curve" smooth="yes"/>
			<point x="434" y="239" type="line" smooth="yes"/>
			<point x="418" y="141"/>
			<point x="356" y="83"/>
		</contour>
	</outline>
</glyph>
<glyph name="h" format="2">
	<advance width="600"/>
	<unicode hex="0068"/>
	<outline>
		<contour>
			<point x="66" y="0" type="line"/>
			<point x="116" y="0" type="line"/>
			<point x="173" y="360" type="line" smooth="yes"/>
			<point x="188" y="457"/>
			<point x="253" y="517"/>
			<point x="341" y="517" type="curve" smooth="yes"/>
			<point x="427" y="517"/>
			<point x="471" y="459"/>
			<point x="455" y="360" type="curve" smooth="yes"/>
			<point x="398" y="0" type="line"/>
			<point x="448" y="0" type="line"/>
			<point x="506" y="367" type="line" smooth="yes"/>
			<point x="525" y="485"/>
			<point x="466" y="560"/>
			<point x="358" y="560" type="curve" smooth="yes"/>
			<point x="262" y="560"/>
			<point x="188" y="501"/>
			<point x="174" y="410" type="curve"/>
			<point x="214" y="470" type="line"/>
			<point x="190" y="470" type="line"/>
			<point x="208" y="580" type="line"/>
			<point x="232" y="730" type="line"/>
			<point x="182" y="730" type="line"/>
		</contour>
	</outline>
</glyph>
<glyph name="i" format="2">
	<advance width="600"/>
	<unicode hex="0069"/>
	<outline>
		<contour>
			<point x="51" y="0" type="line"/>
			<point x="491" y="0" type="line"/>
			<point x="498" y="45" type="line"/>
			<point x="309" y="45" type="line"/>
			<point x="389" y="550" type="line"/>
			<point x="163" y="550" type="line"/>
			<point x="156" y="505" type="line"/>
			<point x="332" y="505" type="line"/>
			<point x="259" y="45" type="line"/>
			<point x="58" y="45" type="line"/>
		</contour>
		<contour>
			<point x="369" y="650" type="curve" smooth="yes"/>
			<point x="374" y="650" type="line" smooth="yes"/>
			<point x="407" y="650"/>
			<point x="432" y="672"/>
			<point x="438" y="705" type="curve" smooth="yes"/>
			<point x="443" y="738"/>
			<point x="424" y="760"/>
			<point x="391" y="760" type="curve" smooth="yes"/>
			<point x="386" y="760" type="line" smooth="yes"/>
			<point x="353" y="760"/>
			<point x="328" y="738"/>
			<point x="323" y="705" type="curve" smooth="yes"/>
			<point x="317" y="672"/>
			<point x="336" y="650"/>
		</contour>
	</outline>
</glyph>
<glyph name="j" format="2">
	<advance width="600"/>
	<unicode hex="006A"/>
	<outline>
		<contour>
			<point x="22" y="-180" type="line"/>
			<point x="157" y="-180" type="line" smooth="yes"/>
			<point x="279" y="-180"/>
			<point x="363" y="-109"/>
			<point x="382" y="10" type="curve" smooth="yes"/>
			<point x="467" y="550" type="line"/>
			<point x="167" y="550" type="line"/>
			<point x="160" y="505" type="line"/>
			<point x="410" y="505" type="line"/>
			<point x="332" y="10" type="line" smooth="yes"/>
			<point x="317" y="-84"/>
			<point x="259" y="-135"/>
			<point x="165" y="-135" type="curve" smooth="yes"/>
			<point x="30" y="-135" type="line"/>
		</contour>
		<contour>
			<point x="448" y="645" type="curve" smooth="yes"/>
			<point x="453" y="645" type="line" smooth="yes"/>
			<point x="486" y="645"/>
			<point x="512" y="667"/>
			<point x="517" y="700" type="curve" smooth="yes"/>
			<point x="522" y="733"/>
			<point x="504" y="755"/>
			<point x="471" y="755" type="curve" smooth="yes"/>
			<point x="466" y="755" type="line" smooth="yes"/>
			<point x="433" y="755"/>
			<point x="407" y="733"/>
			<point x="402" y="700" type="curve" smooth="yes"/>
			<point x="397" y="667"/>
			<point x="415" y="645"/>
		</contour>
	</outline>
</glyph>
<glyph name="k" format="2">
	<advance width="600"/>
	<unicode hex="006B"/>
	<outline>
		<contour>
			<point x="69" y="0" type="line"/>
			<point x="119" y="0" type="line"/>
			<point x="161" y="264" type="line"/>
			<point x="297" y="264" type="line"/>
			<point x="428" y="0" type="line"/>
			<point x="486" y="0" type="line"/>
			<point x="343" y="285" type="line"/>
			<point x="570" y="550" type="line"/>
			<point x="508" y="550" type="line"/>
			<point x="302" y="309" type="line"/>
			<point x="168" y="309" type="line"/>
			<point x="235" y="730" type="line"/>
			<point x="185" y="730" type="line"/>
		</contour>
	</outline>
</glyph>
<glyph name="l" format="2">
	<advance width="600"/>
	<unicode hex="006C"/>
	<outline>
		<contour>
			<point x="321" y="0" type="curve" smooth="yes"/>
			<point x="496" y="0" type="line"/>
			<point x="503" y="45" type="line"/>
			<point x="328" y="45" type="line" smooth="yes"/>
			<point x="269" y="45"/>
			<point x="243" y="76"/>
			<point x="252" y="135" type="curve" smooth="yes"/>
			<point x="347" y="730" type="line"/>
			<point x="122" y="730" type="line"/>
			<point x="115" y="685" type="line"/>
			<point x="290" y="685" type="line"/>
			<point x="202" y="135" type="line" smooth="yes"/>
			<point x="189" y="48"/>
			<point x="231" y="0"/>
		</contour>
	</outline>
</glyph>
<glyph name="m" format="2">
	<advance width="600"/>
	<unicode hex="006D"/>
	<outline>
		<contour>
			<point x="35" y="0" type="line"/>
			<point x="84" y="0" type="line"/>
			<point x="151" y="425" type="line"/>
			<point x="163" y="482"/>
			<point x="199" y="518"/>
			<point x="243" y="518" type="curve" smooth="yes"/>
			<point x="288" y="518"/>
			<point x="308" y="482"/>
			<point x="299" y="425" type="curve" smooth="yes"/>
			<point x="232" y="0" type="line"/>
			<point x="280" y="0" type="line"/>
			<point x="347" y="425" type="line" smooth="yes"/>
			<point x="356" y="481"/>
			<point x="392" y="518"/>
			<point x="439" y="518" type="curve" smooth="yes"/>
			<point x="483" y="518"/>
			<point x="504" y="482"/>
			<point x="495" y="425" type="curve" smooth="yes"/>
			<point x="428" y="0" type="line"/>
			<point x="477" y="0" type="line"/>
			<point x="545" y="431" type="line" smooth="yes"/>
			<point x="558" y="511"/>
			<point x="527" y="560"/>
			<point x="461" y="560" type="curve" smooth="yes"/>
			<point x="402" y="560"/>
			<point x="361" y="521"/>
			<point x="353" y="461" type="curve"/>
			<point x="357" y="475" type="line"/>
			<point x="349" y="475" type="line"/>
			<point x="351" y="461" type="line"/>
			<point x="353" y="524"/>
			<point x="322" y="560"/>
			<point x="265" y="560" type="curve" smooth="yes"/>
			<point x="206" y="560"/>
			<point x="164" y="521"/>
			<point x="156" y="461" type="curve"/>
			<point x="160" y="475" type="line"/>
			<point x="154" y="475" type="line"/>
			<point x="166" y="550" type="line"/>
			<point x="122" y="550" type="line"/>
		</contour>
	</outline>
</glyph>
<glyph name="n" format="2">
	<advance width="600"/>
	<unicode hex="006E"/>
	<outline>
		<contour>
			<point x="66" y="0" type="line"/>
			<point x="116" y="0" type="line"/>
			<point x="173" y="360" type="line" smooth="yes"/>
			<point x="188" y="457"/>
			<point x="253" y="517"/>
			<point x="341" y="517" type="curve" smooth="yes"/>
			<point x="428" y="517"/>
			<point x="471" y="458"/>
			<point x="455" y="360" type="curve" smooth="yes"/>
			<point x="398" y="0" type="line"/>
			<point x="448" y="0" type="line"/>
			<point x="506" y="367" type="line" smooth="yes"/>
			<point x="524" y="482"/>
			<point x="464" y="560"/>
			<point x="358" y="560" type="curve" smooth="yes"/>
			<point x="260" y="560"/>
			<point x="188" y="499"/>
			<point x="173" y="404" type="curve"/>
			<point x="211" y="455" type="line"/>
			<point x="188" y="455" type="line"/>
			<point x="203" y="550" type="line"/>
			<point x="153" y="550" type="line"/>
		</contour>
	</outline>
</glyph>
<glyph name="o" format="2">
	<advance width="600"/>
	<unicode hex="006F"/>
	<outline>
		<contour>
			<point x="254" y="-10" type="curve" smooth="yes"/>
			<point x="373" y="-10"/>
			<point x="462" y="68"/>
			<point x="481" y="190" type="curve" smooth="yes"/>
			<point x="508" y="360" type="line" smooth="yes"/>
			<point x="527" y="481"/>
			<point x="463" y="560"/>
			<point x="345" y="560" type="curve" smooth="yes"/>
			<point x="227" y="560"/>
			<point x="137" y="481"/>
			<point x="118" y="360" type="curve" smooth="yes"/>
			<point x="91" y="190" type="line" smooth="yes"/>
			<point x="72" y="68"/>
			<point x="136" y="-10"/>
		</contour>
		<contour>
			<point x="261" y="34" type="curve" smooth="yes"/>
			<point x="170" y="34"/>
			<point x="125" y="91"/>
			<point x="141" y="190" type="curve" smooth="yes"/>
			<point x="168" y="360" type="line" smooth="yes"/>
			<point x="184" y="458"/>
			<point x="247" y="516"/>
			<point x="338" y="516" type="curve" smooth="yes"/>
			<point x="429" y="516"/>
			<point x="474" y="458"/>
			<point x="458" y="360" type="curve" smooth="yes"/>
			<point x="431" y="190" type="line" smooth="yes"/>
			<point x="415" y="91"/>
			<point x="353" y="34"/>
		</contour>
	</outline>
</glyph>
<glyph name="p" format="2">
	<advance width="600"/>
	<unicode hex="0070"/>
	<outline>
		<contour>
			<point x="37" y="-180" type="line"/>
			<point x="87" y="-180" type="line"/>
			<point x="116" y="0" type="line"/>
			<point x="128" y="75" type="line"/>
			<point x="146" y="75" type="line"/>
			<point x="128" y="140" type="line"/>
			<point x="114" y="50"/>
			<point x="170" y="-10"/>
			<point x="267" y="-10" type="curve" smooth="yes"/>
			<point x="377" y="-10"/>
			<point x="462" y="70"/>
			<point x="481" y="190" type="curve" smooth="yes"/>
			<point x="508" y="361" type="line" smooth="yes"/>
			<point x="527" y="481"/>
			<point x="468" y="560"/>
			<point x="358" y="560" type="curve" smooth="yes"/>
			<point x="259" y="560"/>
			<point x="185" y="500"/>
			<point x="171" y="410" type="curve"/>
			<point x="219" y="475" type="line"/>
			<point x="191" y="475" type="line"/>
			<point x="203" y="550" type="line"/>
			<point x="153" y="550" type="line"/>
		</contour>
		<contour>
			<point x="264" y="33" type="curve" smooth="yes"/>
			<point x="174" y="33"/>
			<point x="130" y="91"/>
			<point x="146" y="190" type="curve" smooth="yes"/>
			<point x="173" y="361" type="line" smooth="yes"/>
			<point x="189" y="459"/>
			<point x="251" y="517"/>
			<point x="340" y="517" type="curve" smooth="yes"/>
			<point x="430" y="517"/>
			<point x="474" y="459"/>
			<point x="458" y="361" type="curve" smooth="yes"/>
			<point x="431" y="190" type="line" smooth="yes"/>
			<point x="415" y="91"/>
			<point x="353" y="33"/>
		</contour>
	</outline>
</glyph>
<glyph name="q" format="2">
	<advance width="600"/>
	<unicode hex="0071"/>
	<outline>
		<contour>
			<point x="367" y="-180" type="line"/>
			<point x="417" y="-180" type="line"/>
			<point x="533" y="550" type="line"/>
			<point x="483" y="550" type="line"/>
			<point x="471" y="475" type="line"/>
			<point x="443" y="475" type="line"/>
			<point x="471" y="410" type="line"/>
			<point x="485" y="501"/>
			<point x="427" y="560"/>
			<point x="332" y="560" type="curve" smooth="yes"/>
			<point x="222" y="560"/>
			<point x="137" y="481"/>
			<point x="118" y="361" type="curve" smooth="yes"/>
			<point x="91" y="190" type="line" smooth="yes"/>
			<point x="72" y="70"/>
			<point x="132" y="-10"/>
			<point x="241" y="-10" type="curve" smooth="yes"/>
			<point x="337" y="-10"/>
			<point x="414" y="49"/>
			<point x="428" y="140" type="curve"/>
			<point x="390" y="75" type="line"/>
			<point x="408" y="75" type="line"/>
			<point x="391" y="-30" type="line"/>
		</contour>
		<contour>
			<point x="258" y="33" type="curve" smooth="yes"/>
			<point x="169" y="33"/>
			<point x="126" y="92"/>
			<point x="141" y="190" type="curve" smooth="yes"/>
			<point x="168" y="361" type="line" smooth="yes"/>
			<point x="184" y="459"/>
			<point x="246" y="517"/>
			<point x="335" y="517" type="curve" smooth="yes"/>
			<point x="425" y="517"/>
			<point x="469" y="459"/>
			<point x="453" y="361" type="curve" smooth="yes"/>
			<point x="426" y="190" type="line" smooth="yes"/>
			<point x="411" y="92"/>
			<point x="350" y="33"/>
		</contour>
	</outline>
</glyph>
<glyph name="r" format="2">
	<advance width="600"/>
	<unicode hex="0072"/>
	<outline>
		<contour>
			<point x="83" y="0" type="line"/>
			<point x="133" y="0" type="line"/>
			<point x="190" y="360" type="line" smooth="yes"/>
			<point x="206" y="459"/>
			<point x="268" y="517"/>
			<point x="358" y="517" type="curve" smooth="yes"/>
			<point x="448" y="517"/>
			<point x="492" y="459"/>
			<point x="476" y="360" type="curve" smooth="yes"/>
			<point x="471" y="330" type="line"/>
			<point x="526" y="330" type="line"/>
			<point x="531" y="360" type="line" smooth="yes"/>
			<point x="551" y="483"/>
			<point x="489" y="560"/>
			<point x="373" y="560" type="curve" smooth="yes"/>
			<point x="274" y="560"/>
			<point x="206" y="504"/>
			<point x="191" y="410" type="curve"/>
			<point x="230" y="475" type="line"/>
			<point x="208" y="475" type="line"/>
			<point x="220" y="550" type="line"/>
			<point x="170" y="550" type="line"/>
		</contour>
	</outline>
</glyph>
<glyph name="s" format="2">
	<advance width="600"/>
	<unicode hex="0073"/>
	<outline>
		<contour>
			<point x="226" y="-10" type="curve" smooth="yes"/>
			<point x="293" y="-10" type="line" smooth="yes"/>
			<point x="395" y="-10"/>
			<point x="471" y="52"/>
			<point x="486" y="147" type="curve" smooth="yes"/>
			<point x="499" y="228"/>
			<point x="454" y="286"/>
			<point x="372" y="298" type="curve" smooth="yes"/>
			<point x="270" y="313" type="line" smooth="yes"/>
			<point x="203" y="323"/>
			<point x="172" y="357"/>
			<point x="180" y="412" type="curve" smooth="yes"/>
			<point x="190" y="475"/>
			<point x="244" y="515"/>
			<point x="320" y="515" type="curve" smooth="yes"/>
			<point x="362" y="515" type="line" smooth="yes"/>
			<point x="432" y="515"/>
			<point x="475" y="477"/>
			<point x="474" y="425" type="curve"/>
			<point x="524" y="425" type="line"/>
			<point x="527" y="506"/>
			<point x="469" y="560"/>
			<point x="369" y="560" type="curve" smooth="yes"/>
			<point x="327" y="560" type="line" smooth="yes"/>
			<point x="221" y="560"/>
			<point x="144" y="502"/>
			<point x="129" y="411" type="curve" smooth="yes"/>
			<point x="116" y="329"/>
			<point x="162" y="277"/>
			<point x="254" y="264" type="curve" smooth="yes"/>
			<point x="358" y="249" type="line" smooth="yes"/>
			<point x="415" y="241"/>
			<point x="445" y="197"/>
			<point x="436" y="140" type="curve" smooth="yes"/>
			<point x="426" y="76"/>
			<point x="373" y="35"/>
			<point x="301" y="35" type="curve" smooth="yes"/>
			<point x="234" y="35" type="line" smooth="yes"/>
			<point x="165" y="35"/>
			<point x="121" y="77"/>
			<point x="120" y="135" type="curve"/>
			<point x="70" y="135" type="line"/>
			<point x="66" y="50"/>
			<point x="126" y="-10"/>
		</contour>
	</outline>
</glyph>
<glyph name="t" format="2">
	<advance width="600"/>
	<unicode hex="0074"/>
	<outline>
		<contour>
			<point x="316" y="0" type="curve" smooth="yes"/>
			<point x="451" y="0" type="line"/>
			<point x="458" y="45" type="line"/>
			<point x="323" y="45" type="line" smooth="yes"/>
			<point x="271" y="45"/>
			<point x="248" y="73"/>
			<point x="256" y="125" type="curve" smooth="yes"/>
			<point x="316" y="505" type="line"/>
			<point x="541" y="505" type="line"/>
			<point x="548" y="550" type="line"/>
			<point x="323" y="550" type="line"/>
			<point x="347" y="700" type="line"/>
			<point x="297" y="700" type="line"/>
			<point x="273" y="550" type="line"/>
			<point x="113" y="550" type="line"/>
			<point x="106" y="505" type="line"/>
			<point x="266" y="505" type="line"/>
			<point x="206" y="125" type="line" smooth="yes"/>
			<point x="193" y="44"/>
			<point x="232" y="0"/>
		</contour>
	</outline>
</glyph>
<glyph name="u" format="2">
	<advance width="600"/>
	<unicode hex="0075"/>
	<outline>
		<contour>
			<point x="253" y="-10" type="curve" smooth="yes"/>
			<point x="373" y="-10"/>
			<point x="459" y="68"/>
			<point x="479" y="194" type="curve" smooth="yes"/>
			<point x="535" y="550" type="line"/>
			<point x="485" y="550" type="line"/>
			<point x="429" y="194" type="line" smooth="yes"/>
			<point x="413" y="94"/>
			<point x="350" y="35"/>
			<point x="261" y="35" type="curve" smooth="yes"/>
			<point x="172" y="35"/>
			<point x="129" y="94"/>
			<point x="145" y="194" type="curve" smooth="yes"/>
			<point x="201" y="550" type="line"/>
			<point x="151" y="550" type="line"/>
			<point x="95" y="194" type="line" smooth="yes"/>
			<point x="75" y="67"/>
			<point x="134" y="-10"/>
		</contour>
	</outline>
</glyph>
<glyph name="v" format="2">
	<advance width="600"/>
	<unicode hex="0076"/>
	<outline>
		<contour>
			<point x="225" y="0" type="line"/>
			<point x="287" y="0" type="line"/>
			<point x="567" y="550" type="line"/>
			<point x="514" y="550" type="line"/>
			<point x="310" y="140" type="line" smooth="yes"/>
			<point x="285" y="90"/>
			<point x="262" y="37"/>
			<point x="262" y="37" type="curve"/>
			<point x="262" y="37"/>
			<point x="253" y="90"/>
			<point x="244" y="140" type="curve" smooth="yes"/>
			<point x="169" y="550" type="line"/>
			<point x="119" y="550" type="line"/>
		</contour>
	</outline>
</glyph>
<glyph name="w" format="2">
	<advance width="600"/>
	<unicode hex="0077"/>
	<outline>
		<contour>
			<point x="99" y="0" type="line"/>
			<point x="165" y="0" type="line"/>
			<point x="299" y="391" type="line" smooth="yes"/>
			<point x="316" y="440"/>
			<point x="338" y="510"/>
			<point x="338" y="510" type="curve"/>
			<point x="338" y="510"/>
			<point x="338" y="440"/>
			<point x="339" y="391" type="curve" smooth="yes"/>
			<point x="346" y="0" type="line"/>
			<point x="412" y="0" type="line"/>
			<point x="593" y="550" type="line"/>
			<point x="545" y="550" type="line"/>
			<point x="412" y="141" type="line" smooth="yes"/>
			<point x="399" y="100"/>
			<point x="383" y="32"/>
			<point x="383" y="32" type="curve"/>
			<point x="383" y="32"/>
			<point x="384" y="100"/>
			<point x="382" y="140" type="curve" smooth="yes"/>
			<point x="368" y="550" type="line"/>
			<point x="318" y="550" type="line"/>
			<point x="173" y="140" type="line" smooth="yes"/>
			<point x="159" y="100"/>
			<point x="141" y="32"/>
			<point x="141" y="32" type="curve"/>
			<point x="141" y="32"/>
			<point x="144" y="100"/>
			<point x="143" y="141" type="curve" smooth="yes"/>
			<point x="140" y="550" type="line"/>
			<point x="93" y="550" type="line"/>
		</contour>
	</outline>
</glyph>
<glyph name="x" format="2">
	<advance width="600"/>
	<unicode hex="0078"/>
	<outline>
		<contour>
			<point x="31" y="0" type="line"/>
			<point x="91" y="0" type="line"/>
			<point x="266" y="210" type="line" smooth="yes"/>
			<point x="280" y="226"/>
			<point x="297" y="248"/>
			<point x="297" y="248" type="curve"/>
			<point x="297" y="248"/>
			<point x="310" y="227"/>
			<point x="318" y="210" type="curve" smooth="yes"/>
			<point x="426" y="0" type="line"/>
			<point x="481" y="0" type="line"/>
			<point x="331" y="281" type="line"/>
			<point x="557" y="550" type="line"/>
			<point x="496" y="550" type="line"/>
			<point x="332" y="350" type="line" smooth="yes"/>
			<point x="321" y="336"/>
			<point x="305" y="315"/>
			<point x="305" y="315" type="curve"/>
			<point x="305" y="315"/>
			<point x="295" y="335"/>
			<point x="287" y="350" type="curve" smooth="yes"/>
			<point x="186" y="550" type="line"/>
			<point x="130" y="550" type="line"/>
			<point x="272" y="283" type="line"/>
		</contour>
	</outline>
</glyph>
<glyph name="y" format="2">
	<advance width="600"/>
	<unicode hex="0079"/>
	<outline>
		<contour>
			<point x="101" y="-180" type="line"/>
			<point x="246" y="-180" type="line" smooth="yes"/>
			<point x="358" y="-180"/>
			<point x="426" y="-124"/>
			<point x="444" y="-15" type="curve" smooth="yes"/>
			<point x="533" y="550" type="line"/>
			<point x="483" y="550" type="line"/>
			<point x="434" y="239" type="line" smooth="yes"/>
			<point x="418" y="141"/>
			<point x="356" y="83"/>
			<point x="266" y="83" type="curve" smooth="yes"/>
			<point x="177" y="83"/>
			<point x="133" y="141"/>
			<point x="149" y="239" type="curve" smooth="yes"/>
			<point x="197" y="550" type="line"/>
			<point x="147" y="550" type="line"/>
			<point x="99" y="239" type="line" smooth="yes"/>
			<point x="80" y="119"/>
			<point x="139" y="40"/>
			<point x="249" y="40" type="curve" smooth="yes"/>
			<point x="345" y="40"/>
			<point x="422" y="99"/>
			<point x="436" y="190" type="curve"/>
			<point x="388" y="125" type="line"/>
			<point x="416" y="125" type="line"/>
			<point x="401" y="30" type="line" smooth="yes"/>
			<point x="399" y="22"/>
			<point x="395" y="-6"/>
			<point x="394" y="-15" type="curve" smooth="yes"/>
			<point x="381" y="-94"/>
			<point x="333" y="-135"/>
			<point x="254" y="-135" type="curve" smooth="yes"/>
			<point x="109" y="-135" type="line"/>
		</contour>
	</outline>
</glyph>
<glyph name="z" format="2">
	<advance width="600"/>
	<unicode hex="007A"/>
	<outline>
		<contour>
			<point x="59" y="0" type="line"/>
			<point x="453" y="0" type="line"/>
			<point x="460" y="44" type="line"/>
			<point x="122" y="44" type="line"/>
			<point x="520" y="504" type="line"/>
			<point x="527" y="550" type="line"/>
			<point x="155" y="550" type="line"/>
			<point x="148" y="506" type="line"/>
			<point x="463" y="506" type="line"/>
			<point x="66" y="45" type="line"/>
		</contour>
	</outline>
</glyph>
<glyph name="braceleft" format="2">
	<advance width="600"/>
	<unicode hex="007B"/>
	<outline>
		<contour>
			<point x="384" y="-110" type="curve" smooth="yes"/>
			<point x="439" y="-110" type="line"/>
			<point x="446" y="-65" type="line"/>
			<point x="391" y="-65" type="line" smooth="yes"/>
			<point x="329" y="-65"/>
			<point x="292" y="-25"/>
			<point x="307" y="40" type="curve" smooth="yes"/>
			<point x="354" y="237" type="line" smooth="yes"/>
			<point x="371" y="313"/>
			<point x="335" y="364"/>
			<point x="269" y="364" type="curve"/>
			<point x="268" y="357" type="line"/>
			<point x="334" y="357"/>
			<point x="386" y="407"/>
			<point x="392" y="482" type="curve" smooth="yes"/>
			<point x="409" y="680" type="line" smooth="yes"/>
			<point x="414" y="745"/>
			<point x="463" y="785"/>
			<point x="525" y="785" type="curve" smooth="yes"/>
			<point x="580" y="785" type="line"/>
			<point x="587" y="830" type="line"/>
			<point x="532" y="830" type="line" smooth="yes"/>
			<point x="436" y="830"/>
			<point x="367" y="775"/>
			<point x="359" y="680" type="curve" smooth="yes"/>
			<point x="342" y="482" type="line" smooth="yes"/>
			<point x="336" y="408"/>
			<point x="309" y="382"/>
			<point x="227" y="382" type="curve" smooth="yes"/>
			<point x="117" y="382" type="line"/>
			<point x="109" y="336" type="line"/>
			<point x="219" y="336" type="line" smooth="yes"/>
			<point x="305" y="336"/>
			<point x="320" y="308"/>
			<point x="304" y="237" type="curve" smooth="yes"/>
			<point x="257" y="40" type="line" smooth="yes"/>
			<point x="235" y="-55"/>
			<point x="288" y="-110"/>
		</contour>
	</outline>
</glyph>
<glyph name="bar" format="2">
	<advance width="600"/>
	<unicode hex="007C"/>
	<outline>
		<contour>
			<point x="214" y="-110" type="line"/>
			<point x="264" y="-110" type="line"/>
			<point x="412" y="830" type="line"/>
			<point x="362" y="830" type="line"/>
		</contour>
	</outline>
</glyph>
<glyph name="braceright" format="2">
	<advance width="600"/>
	<unicode hex="007D"/>
	<outline>
		<contour>
			<point x="39" y="-110" type="line"/>
			<point x="93" y="-110" type="line" smooth="yes"/>
			<point x="189" y="-110"/>
			<point x="258" y="-55"/>
			<point x="266" y="40" type="curve" smooth="yes"/>
			<point x="284" y="237" type="line" smooth="yes"/>
			<point x="290" y="308"/>
			<point x="313" y="336"/>
			<point x="399" y="336" type="curve" smooth="yes"/>
			<point x="509" y="336" type="line"/>
			<point x="517" y="382" type="line"/>
			<point x="407" y="382" type="line" smooth="yes"/>
			<point x="325" y="382"/>
			<point x="305" y="408"/>
			<point x="322" y="482" type="curve" smooth="yes"/>
			<point x="368" y="680" type="line" smooth="yes"/>
			<point x="389" y="775"/>
			<point x="337" y="830"/>
			<point x="241" y="830" type="curve" smooth="yes"/>
			<point x="187" y="830" type="line"/>
			<point x="180" y="785" type="line"/>
			<point x="234" y="785" type="line" smooth="yes"/>
			<point x="296" y="785"/>
			<point x="333" y="745"/>
			<point x="318" y="680" type="curve" smooth="yes"/>
			<point x="272" y="482" type="line" smooth="yes"/>
			<point x="255" y="407"/>
			<point x="291" y="357"/>
			<point x="358" y="357" type="curve"/>
			<point x="359" y="364" type="line"/>
			<point x="292" y="364"/>
			<point x="240" y="313"/>
			<point x="234" y="237" type="curve" smooth="yes"/>
			<point x="216" y="40" type="line" smooth="yes"/>
			<point x="211" y="-25"/>
			<point x="162" y="-65"/>
			<point x="100" y="-65" type="curve" smooth="yes"/>
			<point x="46" y="-65" type="line"/>
		</contour>
	</outline>
</glyph>
<glyph name="asciitilde" format="2">
	<advance width="600"/>
	<unicode hex="007E"/>
	<outline>
		<contour>
			<point x="417" y="260" type="curve" smooth="yes"/>
			<point x="478" y="260"/>
			<point x="518" y="299"/>
			<point x="530" y="370" type="curve" smooth="yes"/>
			<point x="542" y="445" type="line"/>
			<point x="497" y="445" type="line"/>
			<point x="485" y="370" type="line" smooth="yes"/>
			<point x="478" y="327"/>
			<point x="454" y="302"/>
			<point x="419" y="302" type="curve" smooth="yes"/>
			<point x="330" y="302"/>
			<point x="329" y="445"/>
			<point x="212" y="445" type="curve" smooth="yes"/>
			<point x="149" y="445"/>
			<point x="105" y="405"/>
			<point x="94" y="335" type="curve" smooth="yes"/>
			<point x="82" y="260" type="line"/>
			<point x="127" y="260" type="line"/>
			<point x="139" y="335" type="line" smooth="yes"/>
			<point x="146" y="378"/>
			<point x="171" y="403"/>
			<point x="210" y="403" type="curve" smooth="yes"/>
			<point x="295" y="403"/>
			<point x="295" y="260"/>
		</contour>
	</outline>
</glyph>
<glyph name="exclamdown" format="2">
	<advance width="600"/>
	<unicode hex="00A1"/>
	<outline>
		<contour>
			<point x="199" y="-180" type="line"/>
			<point x="261" y="-180" type="line"/>
			<point x="287" y="-20" type="line"/>
			<point x="329" y="345" type="line"/>
			<point x="299" y="345" type="line"/>
			<point x="225" y="-20" type="line"/>
		</contour>
		<contour>
			<point x="323" y="445" type="curve" smooth="yes"/>
			<point x="328" y="445" type="line" smooth="yes"/>
			<point x="361" y="445"/>
			<point x="387" y="467"/>
			<point x="392" y="501" type="curve" smooth="yes"/>
			<point x="397" y="533"/>
			<point x="379" y="555"/>
			<point x="346" y="555" type="curve" smooth="yes"/>
			<point x="341" y="555" type="line" smooth="yes"/>
			<point x="308" y="555"/>
			<point x="282" y="533"/>
			<point x="277" y="499" type="curve" smooth="yes"/>
			<point x="272" y="467"/>
			<point x="290" y="445"/>
		</contour>
	</outline>
</glyph>
<glyph name="cent" format="2">
	<advance width="600"/>
	<unicode hex="00A2"/>
	<outline>
		<contour>
			<point x="215" y="-140" type="line"/>
			<point x="263" y="-140" type="line"/>
			<point x="394" y="690" type="line"/>
			<point x="346" y="690" type="line"/>
		</contour>
		<component base="c"/>
	</outline>
</glyph>
<glyph name="sterling" format="2">
	<advance width="600"/>
	<unicode hex="00A3"/>
	<outline>
		<contour>
			<point x="39" y="50" type="curve"/>
			<point x="31" y="0" type="line"/>
			<point x="491" y="0" type="line"/>
			<point x="498" y="45" type="line"/>
			<point x="93" y="45" type="line"/>
			<point x="93" y="45"/>
			<point x="229" y="122"/>
			<point x="247" y="235" type="curve" smooth="yes"/>
			<point x="268" y="364"/>
			<point x="179" y="422"/>
			<point x="198" y="545" type="curve" smooth="yes"/>
			<point x="213" y="638"/>
			<point x="277" y="695"/>
			<point x="365" y="695" type="curve" smooth="yes"/>
			<point x="468" y="695"/>
			<point x="523" y="640"/>
			<point x="509" y="550" type="curve"/>
			<point x="559" y="550" type="line"/>
			<point x="576" y="667"/>
			<point x="504" y="740"/>
			<point x="373" y="740" type="curve" smooth="yes"/>
			<point x="253" y="740"/>
			<point x="167" y="666"/>
			<point x="148" y="546" type="curve" smooth="yes"/>
			<point x="128" y="416"/>
			<point x="219" y="372"/>
			<point x="197" y="235" type="curve" smooth="yes"/>
			<point x="180" y="125"/>
			<point x="39" y="50"/>
		</contour>
		<contour>
			<point x="82" y="320" type="line"/>
			<point x="442" y="320" type="line"/>
			<point x="449" y="365" type="line"/>
			<point x="89" y="365" type="line"/>
		</contour>
	</outline>
</glyph>
<glyph name="currency" format="2">
	<advance width="600"/>
	<unicode hex="00A4"/>
	<outline>
		<contour>
			<point x="281" y="163" type="curve" smooth="yes"/>
			<point x="396" y="163"/>
			<point x="485" y="240"/>
			<point x="503" y="355" type="curve" smooth="yes"/>
			<point x="521" y="470"/>
			<point x="457" y="547"/>
			<point x="342" y="547" type="curve" smooth="yes"/>
			<point x="226" y="547"/>
			<point x="136" y="470"/>
			<point x="118" y="355" type="curve" smooth="yes"/>
			<point x="100" y="240"/>
			<point x="165" y="163"/>
		</contour>
		<contour>
			<point x="64" y="109" type="line"/>
			<point x="179" y="208" type="line"/>
			<point x="150" y="243" type="line"/>
			<point x="35" y="144" type="line"/>
		</contour>
		<contour>
			<point x="481" y="109" type="line"/>
			<point x="522" y="144" type="line"/>
			<point x="439" y="243" type="line"/>
			<point x="398" y="208" type="line"/>
		</contour>
		<contour>
			<point x="289" y="216" type="curve" smooth="yes"/>
			<point x="206" y="216"/>
			<point x="159" y="272"/>
			<point x="172" y="355" type="curve" smooth="yes"/>
			<point x="185" y="438"/>
			<point x="250" y="494"/>
			<point x="333" y="494" type="curve" smooth="yes"/>
			<point x="416" y="494"/>
			<point x="462" y="438"/>
			<point x="449" y="355" type="curve" smooth="yes"/>
			<point x="436" y="272"/>
			<point x="372" y="216"/>
		</contour>
		<contour>
			<point x="185" y="469" type="line"/>
			<point x="226" y="504" type="line"/>
			<point x="143" y="603" type="line"/>
			<point x="102" y="568" type="line"/>
		</contour>
		<contour>
			<point x="473" y="463" type="line"/>
			<point x="588" y="562" type="line"/>
			<point x="559" y="597" type="line"/>
			<point x="444" y="498" type="line"/>
		</contour>
	</outline>
</glyph>
<glyph name="yen" format="2">
	<advance width="600"/>
	<unicode hex="00A5"/>
	<outline>
		<contour>
			<point x="59" y="270" type="line"/>
			<point x="539" y="270" type="line"/>
			<point x="547" y="320" type="line"/>
			<point x="67" y="320" type="line"/>
		</contour>
		<contour>
			<point x="39" y="145" type="line"/>
			<point x="519" y="145" type="line"/>
			<point x="527" y="195" type="line"/>
			<point x="47" y="195" type="line"/>
		</contour>
		<component base="Y"/>
	</outline>
</glyph>
<glyph name="brokenbar" format="2">
	<advance width="600"/>
	<unicode hex="00A6"/>
	<outline>
		<contour>
			<point x="302" y="450" type="line"/>
			<point x="352" y="450" type="line"/>
			<point x="412" y="830" type="line"/>
			<point x="362" y="830" type="line"/>
		</contour>
		<contour>
			<point x="214" y="-110" type="line"/>
			<point x="264" y="-110" type="line"/>
			<point x="324" y="270" type="line"/>
			<point x="274" y="270" type="line"/>
		</contour>
	</outline>
</glyph>
<glyph name="section" format="2">
	<advance width="600"/>
	<unicode hex="00A7"/>
	<outline>
		<contour>
			<point x="203" y="-155" type="curve" smooth="yes"/>
			<point x="270" y="-155" type="line" smooth="yes"/>
			<point x="372" y="-155"/>
			<point x="448" y="-93"/>
			<point x="463" y="2" type="curve" smooth="yes"/>
			<point x="482" y="120"/>
			<point x="380" y="147"/>
			<point x="380" y="147" type="curve"/>
			<point x="381" y="151" type="line"/>
			<point x="446" y="165"/>
			<point x="499" y="225"/>
			<point x="510" y="297" type="curve" smooth="yes"/>
			<point x="523" y="378"/>
			<point x="477" y="438"/>
			<point x="398" y="458" type="curve" smooth="yes"/>
			<point x="296" y="483" type="line" smooth="yes"/>
			<point x="232" y="499"/>
			<point x="200" y="537"/>
			<point x="209" y="592" type="curve" smooth="yes"/>
			<point x="219" y="655"/>
			<point x="273" y="695"/>
			<point x="348" y="695" type="curve" smooth="yes"/>
			<point x="390" y="695" type="line" smooth="yes"/>
			<point x="460" y="695"/>
			<point x="503" y="657"/>
			<point x="503" y="605" type="curve"/>
			<point x="553" y="605" type="line"/>
			<point x="556" y="686"/>
			<point x="497" y="740"/>
			<point x="397" y="740" type="curve" smooth="yes"/>
			<point x="355" y="740" type="line" smooth="yes"/>
			<point x="249" y="740"/>
			<point x="172" y="682"/>
			<point x="158" y="591" type="curve" smooth="yes"/>
			<point x="140" y="477"/>
			<point x="246" y="453"/>
			<point x="246" y="453" type="curve"/>
			<point x="246" y="449" type="line"/>
			<point x="176" y="430"/>
			<point x="123" y="373"/>
			<point x="112" y="302" type="curve" smooth="yes"/>
			<point x="99" y="220"/>
			<point x="145" y="161"/>
			<point x="234" y="139" type="curve" smooth="yes"/>
			<point x="337" y="114" type="line" smooth="yes"/>
			<point x="392" y="101"/>
			<point x="422" y="52"/>
			<point x="413" y="-6" type="curve" smooth="yes"/>
			<point x="403" y="-69"/>
			<point x="350" y="-110"/>
			<point x="278" y="-110" type="curve" smooth="yes"/>
			<point x="211" y="-110" type="line" smooth="yes"/>
			<point x="142" y="-110"/>
			<point x="98" y="-68"/>
			<point x="97" y="-10" type="curve"/>
			<point x="47" y="-10" type="line"/>
			<point x="43" y="-95"/>
			<point x="104" y="-155"/>
		</contour>
		<contour>
			<point x="318" y="171" type="curve" smooth="yes"/>
			<point x="250" y="188" type="line" smooth="yes"/>
			<point x="185" y="204"/>
			<point x="154" y="248"/>
			<point x="163" y="303" type="curve" smooth="yes"/>
			<point x="175" y="378"/>
			<point x="252" y="441"/>
			<point x="314" y="426" type="curve" smooth="yes"/>
			<point x="384" y="409" type="line"/>
			<point x="438" y="396"/>
			<point x="469" y="347"/>
			<point x="460" y="289" type="curve" smooth="yes"/>
			<point x="448" y="215"/>
			<point x="378" y="156"/>
		</contour>
	</outline>
</glyph>
<glyph name="dieresis" format="2">
	<advance width="600"/>
	<unicode hex="00A8"/>
	<outline>
		<contour>
			<point x="458" y="640" type="curve" smooth="yes"/>
			<point x="488" y="640"/>
			<point x="511" y="662"/>
			<point x="516" y="695" type="curve" smooth="yes"/>
			<point x="521" y="728"/>
			<point x="506" y="750"/>
			<point x="476" y="750" type="curve" smooth="yes"/>
			<point x="445" y="750"/>
			<point x="421" y="728"/>
			<point x="416" y="695" type="curve" smooth="yes"/>
			<point x="411" y="662"/>
			<point x="427" y="640"/>
		</contour>
		<contour>
			<point x="257" y="640" type="curve" smooth="yes"/>
			<point x="287" y="640"/>
			<point x="311" y="662"/>
			<point x="316" y="695" type="curve" smooth="yes"/>
			<point x="321" y="728"/>
			<point x="305" y="750"/>
			<point x="275" y="750" type="curve" smooth="yes"/>
			<point x="244" y="750"/>
			<point x="221" y="728"/>
			<point x="216" y="695" type="curve" smooth="yes"/>
			<point x="211" y="662"/>
			<point x="226" y="640"/>
		</contour>
	</outline>
</glyph>
<glyph name="copyright" format="2">
	<advance width="600"/>
	<unicode hex="00A9"/>
	<outline>
		<contour>
			<point x="273" y="110" type="curve" smooth="yes"/>
			<point x="423" y="110"/>
			<point x="537" y="205"/>
			<point x="559" y="350" type="curve" smooth="yes"/>
			<point x="583" y="500" type="line" smooth="yes"/>
			<point x="606" y="645"/>
			<point x="523" y="740"/>
			<point x="373" y="740" type="curve" smooth="yes"/>
			<point x="224" y="740"/>
			<point x="110" y="645"/>
			<point x="87" y="500" type="curve" smooth="yes"/>
			<point x="63" y="350" type="line" smooth="yes"/>
			<point x="41" y="205"/>
			<point x="124" y="110"/>
		</contour>
		<contour>
			<point x="279" y="148" type="curve" smooth="yes"/>
			<point x="157" y="148"/>
			<point x="87" y="229"/>
			<point x="106" y="350" type="curve" smooth="yes"/>
			<point x="130" y="500" type="line" smooth="yes"/>
			<point x="149" y="621"/>
			<point x="245" y="702"/>
			<point x="367" y="702" type="curve" smooth="yes"/>
			<point x="490" y="702"/>
			<point x="559" y="621"/>
			<point x="540" y="500" type="curve" smooth="yes"/>
			<point x="516" y="350" type="line" smooth="yes"/>
			<point x="497" y="229"/>
			<point x="402" y="148"/>
		</contour>
		<contour>
			<point x="300" y="245" type="curve" smooth="yes"/>
			<point x="368" y="245"/>
			<point x="421" y="291"/>
			<point x="432" y="360" type="curve"/>
			<point x="387" y="360" type="line"/>
			<point x="380" y="315"/>
			<point x="348" y="285"/>
			<point x="306" y="285" type="curve" smooth="yes"/>
			<point x="264" y="285"/>
			<point x="241" y="315"/>
			<point x="248" y="360" type="curve" smooth="yes"/>
			<point x="269" y="490" type="line" smooth="yes"/>
			<point x="276" y="535"/>
			<point x="308" y="565"/>
			<point x="350" y="565" type="curve" smooth="yes"/>
			<point x="392" y="565"/>
			<point x="415" y="535"/>
			<point x="408" y="490" type="curve"/>
			<point x="453" y="490" type="line"/>
			<point x="464" y="559"/>
			<point x="425" y="605"/>
			<point x="357" y="605" type="curve" smooth="yes"/>
			<point x="288" y="605"/>
			<point x="235" y="559"/>
			<point x="224" y="490" type="curve" smooth="yes"/>
			<point x="203" y="360" type="line" smooth="yes"/>
			<point x="192" y="291"/>
			<point x="231" y="245"/>
		</contour>
	</outline>
</glyph>
<glyph name="ordfeminine" format="2">
	<advance width="600"/>
	<unicode hex="00AA"/>
	<outline>
		<contour>
			<point x="411" y="455" type="line"/>
			<point x="443" y="455" type="line"/>
			<point x="474" y="650" type="line" smooth="yes"/>
			<point x="483" y="704"/>
			<point x="444" y="740"/>
			<point x="378" y="740" type="curve" smooth="yes"/>
			<point x="321" y="740"/>
			<point x="272" y="708"/>
			<point x="256" y="660" type="curve"/>
			<point x="291" y="660" type="line"/>
			<point x="301" y="690"/>
			<point x="334" y="710"/>
			<point x="373" y="710" type="curve" smooth="yes"/>
			<point x="418" y="710"/>
			<point x="445" y="686"/>
			<point x="439" y="650" type="curve" smooth="yes"/>
			<point x="417" y="510" type="line"/>
			<point x="420" y="510" type="line"/>
		</contour>
		<contour>
			<point x="301" y="450" type="curve" smooth="yes"/>
			<point x="351" y="450"/>
			<point x="398" y="474"/>
			<point x="417" y="510" type="curve"/>
			<point x="428" y="510" type="line"/>
			<point x="435" y="555" type="line"/>
			<point x="424" y="555" type="line"/>
			<point x="416" y="508"/>
			<point x="375" y="478"/>
			<point x="319" y="478" type="curve" smooth="yes"/>
			<point x="275" y="478"/>
			<point x="250" y="500"/>
			<point x="256" y="535" type="curve" smooth="yes"/>
			<point x="261" y="568"/>
			<point x="288" y="590"/>
			<point x="324" y="590" type="curve" smooth="yes"/>
			<point x="440" y="590" type="line"/>
			<point x="445" y="620" type="line"/>
			<point x="329" y="620" type="line" smooth="yes"/>
			<point x="272" y="620"/>
			<point x="229" y="586"/>
			<point x="221" y="535" type="curve" smooth="yes"/>
			<point x="212" y="483"/>
			<point x="243" y="450"/>
		</contour>
	</outline>
</glyph>
<glyph name="guillemotleft" format="2">
	<advance width="600"/>
	<unicode hex="00AB"/>
	<outline>
		<contour>
			<point x="452" y="40" type="line"/>
			<point x="507" y="40" type="line"/>
			<point x="339" y="278" type="line"/>
			<point x="590" y="520" type="line"/>
			<point x="528" y="520" type="line"/>
			<point x="280" y="280" type="line"/>
		</contour>
		<contour>
			<point x="222" y="40" type="line"/>
			<point x="277" y="40" type="line"/>
			<point x="109" y="278" type="line"/>
			<point x="360" y="520" type="line"/>
			<point x="298" y="520" type="line"/>
			<point x="50" y="280" type="line"/>
		</contour>
	</outline>
</glyph>
<glyph name="logicalnot" format="2">
	<advance width="600"/>
	<unicode hex="00AC"/>
	<outline>
		<contour>
			<point x="470" y="215" type="line"/>
			<point x="520" y="215" type="line"/>
			<point x="549" y="400" type="line"/>
			<point x="89" y="400" type="line"/>
			<point x="82" y="355" type="line"/>
			<point x="492" y="355" type="line"/>
		</contour>
	</outline>
</glyph>
<glyph name="registered" format="2">
	<advance width="600"/>
	<unicode hex="00AE"/>
	<outline>
		<contour>
			<point x="273" y="110" type="curve" smooth="yes"/>
			<point x="423" y="110"/>
			<point x="537" y="205"/>
			<point x="559" y="350" type="curve" smooth="yes"/>
			<point x="583" y="500" type="line" smooth="yes"/>
			<point x="606" y="645"/>
			<point x="523" y="740"/>
			<point x="373" y="740" type="curve" smooth="yes"/>
			<point x="224" y="740"/>
			<point x="110" y="645"/>
			<point x="87" y="500" type="curve" smooth="yes"/>
			<point x="63" y="350" type="line" smooth="yes"/>
			<point x="41" y="205"/>
			<point x="124" y="110"/>
		</contour>
		<contour>
			<point x="363" y="250" type="line"/>
			<point x="411" y="250" type="line"/>
			<point x="365" y="409" type="line"/>
			<point x="319" y="409" type="line"/>
		</contour>
		<contour>
			<point x="279" y="148" type="curve" smooth="yes"/>
			<point x="157" y="148"/>
			<point x="87" y="229"/>
			<point x="106" y="350" type="curve"/>
			<point x="130" y="500" type="line" smooth="yes"/>
			<point x="149" y="621"/>
			<point x="245" y="702"/>
			<point x="367" y="702" type="curve" smooth="yes"/>
			<point x="490" y="702"/>
			<point x="559" y="621"/>
			<point x="540" y="500" type="curve" smooth="yes"/>
			<point x="516" y="350" type="line" smooth="yes"/>
			<point x="497" y="229"/>
			<point x="402" y="148"/>
		</contour>
		<contour>
			<point x="196" y="250" type="line"/>
			<point x="241" y="250" type="line"/>
			<point x="264" y="395" type="line"/>
			<point x="324" y="395" type="line" smooth="yes"/>
			<point x="388" y="395"/>
			<point x="437" y="437"/>
			<point x="447" y="498" type="curve" smooth="yes"/>
			<point x="457" y="560"/>
			<point x="420" y="600"/>
			<point x="356" y="600" type="curve" smooth="yes"/>
			<point x="251" y="600" type="line"/>
		</contour>
		<contour>
			<point x="330" y="435" type="curve" smooth="yes"/>
			<point x="270" y="435" type="line"/>
			<point x="290" y="560" type="line"/>
			<point x="350" y="560" type="line" smooth="yes"/>
			<point x="390" y="560"/>
			<point x="413" y="534"/>
			<point x="407" y="497" type="curve" smooth="yes"/>
			<point x="401" y="460"/>
			<point x="370" y="435"/>
		</contour>
	</outline>
</glyph>
<glyph name="macron" format="2">
	<advance width="600"/>
	<unicode hex="00AF"/>
	<outline>
		<contour>
			<point x="244" y="680" type="line"/>
			<point x="484" y="680" type="line"/>
			<point x="491" y="725" type="line"/>
			<point x="251" y="725" type="line"/>
		</contour>
	</outline>
</glyph>
<glyph name="degree" format="2">
	<advance width="600"/>
	<unicode hex="00B0"/>
	<outline>
		<contour>
			<point x="327" y="450" type="curve" smooth="yes"/>
			<point x="414" y="450"/>
			<point x="481" y="508"/>
			<point x="495" y="595" type="curve" smooth="yes"/>
			<point x="509" y="682"/>
			<point x="460" y="740"/>
			<point x="373" y="740" type="curve" smooth="yes"/>
			<point x="286" y="740"/>
			<point x="219" y="683"/>
			<point x="205" y="595" type="curve" smooth="yes"/>
			<point x="191" y="508"/>
			<point x="240" y="450"/>
		</contour>
		<contour>
			<point x="334" y="490" type="curve" smooth="yes"/>
			<point x="274" y="490"/>
			<point x="240" y="532"/>
			<point x="250" y="595" type="curve" smooth="yes"/>
			<point x="260" y="659"/>
			<point x="307" y="701"/>
			<point x="367" y="701" type="curve" smooth="yes"/>
			<point x="427" y="701"/>
			<point x="460" y="659"/>
			<point x="450" y="595" type="curve" smooth="yes"/>
			<point x="440" y="532"/>
			<point x="394" y="490"/>
		</contour>
	</outline>
</glyph>
<glyph name="plusminus" format="2">
	<advance width="600"/>
	<unicode hex="00B1"/>
	<outline>
		<contour>
			<point x="26" y="0" type="line"/>
			<point x="486" y="0" type="line"/>
			<point x="493" y="45" type="line"/>
			<point x="285" y="45" type="line"/>
			<point x="328" y="315" type="line"/>
			<point x="536" y="315" type="line"/>
			<point x="543" y="360" type="line"/>
			<point x="335" y="360" type="line"/>
			<point x="368" y="570" type="line"/>
			<point x="319" y="570" type="line"/>
			<point x="286" y="360" type="line"/>
			<point x="83" y="360" type="line"/>
			<point x="76" y="315" type="line"/>
			<point x="279" y="315" type="line"/>
			<point x="236" y="45" type="line"/>
			<point x="33" y="45" type="line"/>
		</contour>
	</outline>
</glyph>
<glyph name="uni00B2" format="2">
	<advance width="600"/>
	<unicode hex="00B2"/>
	<outline>
		<contour>
			<point x="191" y="405" type="line"/>
			<point x="471" y="405" type="line"/>
			<point x="477" y="445" type="line"/>
			<point x="248" y="445" type="line"/>
			<point x="387" y="541" type="line" smooth="yes"/>
			<point x="451" y="585"/>
			<point x="495" y="648"/>
			<point x="504" y="704" type="curve" smooth="yes"/>
			<point x="518" y="788"/>
			<point x="473" y="840"/>
			<point x="388" y="840" type="curve" smooth="yes"/>
			<point x="303" y="840"/>
			<point x="241" y="785"/>
			<point x="227" y="698" type="curve"/>
			<point x="272" y="698" type="line"/>
			<point x="282" y="761"/>
			<point x="325" y="800"/>
			<point x="382" y="800" type="curve" smooth="yes"/>
			<point x="439" y="800"/>
			<point x="469" y="762"/>
			<point x="459" y="701" type="curve" smooth="yes"/>
			<point x="452" y="660"/>
			<point x="417" y="611"/>
			<point x="367" y="575" type="curve" smooth="yes"/>
			<point x="199" y="456" type="line"/>
		</contour>
	</outline>
</glyph>
<glyph name="uni00B3" format="2">
	<advance width="600"/>
	<unicode hex="00B3"/>
	<outline>
		<contour>
			<point x="303" y="395" type="curve" smooth="yes"/>
			<point x="389" y="395"/>
			<point x="449" y="446"/>
			<point x="462" y="530" type="curve" smooth="yes"/>
			<point x="475" y="612"/>
			<point x="430" y="665"/>
			<point x="346" y="665" type="curve"/>
			<point x="344" y="648" type="line"/>
			<point x="477" y="787" type="line"/>
			<point x="484" y="830" type="line"/>
			<point x="263" y="830" type="line"/>
			<point x="257" y="790" type="line"/>
			<point x="432" y="790" type="line"/>
			<point x="318" y="673" type="line"/>
			<point x="311" y="627" type="line"/>
			<point x="340" y="627" type="line" smooth="yes"/>
			<point x="396" y="627"/>
			<point x="427" y="589"/>
			<point x="417" y="530" type="curve" smooth="yes"/>
			<point x="407" y="472"/>
			<point x="365" y="435"/>
			<point x="309" y="435" type="curve" smooth="yes"/>
			<point x="251" y="435"/>
			<point x="220" y="472"/>
			<point x="229" y="530" type="curve"/>
			<point x="184" y="530" type="line"/>
			<point x="171" y="448"/>
			<point x="218" y="395"/>
		</contour>
	</outline>
</glyph>
<glyph name="acute" format="2">
	<advance width="600"/>
	<unicode hex="00B4"/>
	<outline>
		<contour>
			<point x="283" y="645" type="line"/>
			<point x="333" y="645" type="line"/>
			<point x="480" y="785" type="line"/>
			<point x="420" y="785" type="line"/>
		</contour>
	</outline>
</glyph>
<glyph name="uni00B5" format="2">
	<advance width="600"/>
	<unicode hex="00B5"/>
	<outline>
		<contour>
			<point x="28" y="-180" type="line"/>
			<point x="83" y="-180" type="line"/>
			<point x="106" y="-3" type="line" smooth="yes"/>
			<point x="111" y="38"/>
			<point x="110" y="73"/>
			<point x="108" y="73" type="curve"/>
			<point x="111" y="73" type="line"/>
			<point x="131" y="20"/>
			<point x="185" y="-10"/>
			<point x="260" y="-10" type="curve" smooth="yes"/>
			<point x="384" y="-10"/>
			<point x="466" y="64"/>
			<point x="487" y="194" type="curve" smooth="yes"/>
			<point x="544" y="550" type="line"/>
			<point x="489" y="550" type="line"/>
			<point x="432" y="194" type="line" smooth="yes"/>
			<point x="416" y="92"/>
			<point x="359" y="40"/>
			<point x="262" y="40" type="curve" smooth="yes"/>
			<point x="166" y="40"/>
			<point x="126" y="92"/>
			<point x="142" y="194" type="curve" smooth="yes"/>
			<point x="199" y="550" type="line"/>
			<point x="144" y="550" type="line"/>
		</contour>
	</outline>
</glyph>
<glyph name="paragraph" format="2">
	<advance width="600"/>
	<unicode hex="00B6"/>
	<outline>
		<contour>
			<point x="275" y="310" type="curve"/>
			<point x="197" y="-180" type="line"/>
			<point x="247" y="-180" type="line"/>
			<point x="392" y="730" type="line"/>
			<point x="342" y="730" type="line" smooth="yes"/>
			<point x="240" y="730"/>
			<point x="162" y="670"/>
			<point x="148" y="580" type="curve" smooth="yes"/>
			<point x="129" y="460" type="line" smooth="yes"/>
			<point x="115" y="370"/>
			<point x="173" y="310"/>
		</contour>
		<contour>
			<point x="367" y="-180" type="line"/>
			<point x="417" y="-180" type="line"/>
			<point x="562" y="730" type="line"/>
			<point x="512" y="730" type="line"/>
		</contour>
	</outline>
</glyph>
<glyph name="cedilla" format="2">
	<advance width="600"/>
	<unicode hex="00B8"/>
	<outline>
		<contour>
			<point x="136" y="-195" type="line"/>
			<point x="216" y="-195" type="line" smooth="yes"/>
			<point x="276" y="-195"/>
			<point x="321" y="-161"/>
			<point x="328" y="-118" type="curve" smooth="yes"/>
			<point x="341" y="-40"/>
			<point x="231" y="-34"/>
			<point x="231" y="-34" type="curve"/>
			<point x="264" y="26" type="line"/>
			<point x="222" y="26" type="line"/>
			<point x="173" y="-64" type="line"/>
			<point x="244" y="-64"/>
			<point x="286" y="-86"/>
			<point x="282" y="-118" type="curve" smooth="yes"/>
			<point x="279" y="-140"/>
			<point x="254" y="-160"/>
			<point x="222" y="-160" type="curve" smooth="yes"/>
			<point x="142" y="-160" type="line"/>
		</contour>
	</outline>
</glyph>
<glyph name="uni00B9" format="2">
	<advance width="600"/>
	<unicode hex="00B9"/>
	<outline>
		<contour>
			<point x="191" y="405" type="line"/>
			<point x="471" y="405" type="line"/>
			<point x="477" y="445" type="line"/>
			<point x="371" y="445" type="line"/>
			<point x="432" y="830" type="line"/>
			<point x="365" y="830" type="line"/>
			<point x="254" y="751" type="line"/>
			<point x="246" y="698" type="line"/>
			<point x="382" y="794" type="line"/>
			<point x="326" y="445" type="line"/>
			<point x="197" y="445" type="line"/>
		</contour>
	</outline>
</glyph>
<glyph name="ordmasculine" format="2">
	<advance width="600"/>
	<unicode hex="00BA"/>
	<outline>
		<contour>
			<point x="326" y="445" type="curve" smooth="yes"/>
			<point x="391" y="445"/>
			<point x="441" y="483"/>
			<point x="451" y="540" type="curve" smooth="yes"/>
			<point x="467" y="645" type="line" smooth="yes"/>
			<point x="476" y="702"/>
			<point x="438" y="740"/>
			<point x="373" y="740" type="curve" smooth="yes"/>
			<point x="308" y="740"/>
			<point x="258" y="702"/>
			<point x="249" y="645" type="curve" smooth="yes"/>
			<point x="233" y="540" type="line" smooth="yes"/>
			<point x="223" y="483"/>
			<point x="261" y="445"/>
		</contour>
		<contour>
			<point x="331" y="475" type="curve" smooth="yes"/>
			<point x="286" y="475"/>
			<point x="260" y="501"/>
			<point x="267" y="540" type="curve" smooth="yes"/>
			<point x="283" y="645" type="line" smooth="yes"/>
			<point x="289" y="684"/>
			<point x="323" y="710"/>
			<point x="368" y="710" type="curve" smooth="yes"/>
			<point x="413" y="710"/>
			<point x="439" y="684"/>
			<point x="433" y="645" type="curve" smooth="yes"/>
			<point x="417" y="540" type="line" smooth="yes"/>
			<point x="410" y="501"/>
			<point x="376" y="475"/>
		</contour>
	</outline>
</glyph>
<glyph name="guillemotright" format="2">
	<advance width="600"/>
	<unicode hex="00BB"/>
	<outline>
		<contour>
			<point x="241" y="40" type="line"/>
			<point x="302" y="40" type="line"/>
			<point x="550" y="280" type="line"/>
			<point x="378" y="520" type="line"/>
			<point x="323" y="520" type="line"/>
			<point x="490" y="284" type="line"/>
		</contour>
		<contour>
			<point x="11" y="40" type="line"/>
			<point x="72" y="40" type="line"/>
			<point x="320" y="280" type="line"/>
			<point x="148" y="520" type="line"/>
			<point x="93" y="520" type="line"/>
			<point x="260" y="284" type="line"/>
		</contour>
	</outline>
</glyph>
<glyph name="onequarter" format="2">
	<advance width="600"/>
	<unicode hex="00BC"/>
	<outline>
		<contour>
			<point x="456" y="0" type="line"/>
			<point x="501" y="0" type="line"/>
			<point x="535" y="216" type="line"/>
			<point x="490" y="216" type="line"/>
			<point x="473" y="110" type="line"/>
			<point x="338" y="110" type="line"/>
			<point x="341" y="126" type="line"/>
			<point x="509" y="325" type="line"/>
			<point x="459" y="325" type="line"/>
			<point x="298" y="140" type="line"/>
			<point x="287" y="70" type="line"/>
			<point x="467" y="70" type="line"/>
		</contour>
		<contour>
			<point x="58" y="406" type="line"/>
			<point x="333" y="406" type="line"/>
			<point x="340" y="446" type="line"/>
			<point x="229" y="446" type="line"/>
			<point x="274" y="731" type="line"/>
			<point x="204" y="731" type="line"/>
			<point x="123" y="670" type="line"/>
			<point x="114" y="615" type="line"/>
			<point x="186" y="669" type="line" smooth="yes"/>
			<point x="209" y="687"/>
			<point x="224" y="701"/>
			<point x="224" y="701" type="curve"/>
			<point x="184" y="446" type="line"/>
			<point x="65" y="446" type="line"/>
		</contour>
		<component base="fraction"/>
	</outline>
</glyph>
<glyph name="onehalf" format="2">
	<advance width="600"/>
	<unicode hex="00BD"/>
	<outline>
		<contour>
			<point x="54" y="0" type="line"/>
			<point x="100" y="0" type="line"/>
			<point x="574" y="730" type="line"/>
			<point x="528" y="730" type="line"/>
		</contour>
		<contour>
			<point x="286" y="0" type="line"/>
			<point x="526" y="0" type="line"/>
			<point x="532" y="40" type="line"/>
			<point x="409" y="40" type="line"/>
			<point x="386" y="40"/>
			<point x="351" y="40"/>
			<point x="351" y="40" type="curve"/>
			<point x="352" y="44" type="line"/>
			<point x="436" y="92" type="line" smooth="yes"/>
			<point x="505" y="132"/>
			<point x="544" y="177"/>
			<point x="552" y="227" type="curve" smooth="yes"/>
			<point x="561" y="287"/>
			<point x="523" y="330"/>
			<point x="456" y="330" type="curve" smooth="yes"/>
			<point x="385" y="330"/>
			<point x="331" y="284"/>
			<point x="320" y="216" type="curve"/>
			<point x="365" y="216" type="line"/>
			<point x="372" y="260"/>
			<point x="406" y="290"/>
			<point x="450" y="290" type="curve" smooth="yes"/>
			<point x="491" y="290"/>
			<point x="513" y="264"/>
			<point x="506" y="224" type="curve" smooth="yes"/>
			<point x="501" y="188"/>
			<point x="475" y="158"/>
			<point x="421" y="126" type="curve" smooth="yes"/>
			<point x="294" y="51" type="line"/>
		</contour>
		<contour>
			<point x="58" y="406" type="line"/>
			<point x="333" y="406" type="line"/>
			<point x="340" y="446" type="line"/>
			<point x="229" y="446" type="line"/>
			<point x="274" y="731" type="line"/>
			<point x="204" y="731" type="line"/>
			<point x="123" y="670" type="line"/>
			<point x="114" y="615" type="line"/>
			<point x="186" y="669" type="line" smooth="yes"/>
			<point x="209" y="687"/>
			<point x="224" y="701"/>
			<point x="224" y="701" type="curve"/>
			<point x="184" y="446" type="line"/>
			<point x="65" y="446" type="line"/>
		</contour>
	</outline>
</glyph>
<glyph name="threequarters" format="2">
	<advance width="600"/>
	<unicode hex="00BE"/>
	<outline>
		<contour>
			<point x="456" y="0" type="line"/>
			<point x="501" y="0" type="line"/>
			<point x="535" y="216" type="line"/>
			<point x="490" y="216" type="line"/>
			<point x="473" y="110" type="line"/>
			<point x="338" y="110" type="line"/>
			<point x="341" y="126" type="line"/>
			<point x="509" y="325" type="line"/>
			<point x="459" y="325" type="line"/>
			<point x="298" y="140" type="line"/>
			<point x="287" y="70" type="line"/>
			<point x="467" y="70" type="line"/>
		</contour>
		<contour>
			<point x="173" y="400" type="curve" smooth="yes"/>
			<point x="243" y="400"/>
			<point x="296" y="444"/>
			<point x="306" y="510" type="curve" smooth="yes"/>
			<point x="315" y="569"/>
			<point x="274" y="609"/>
			<point x="207" y="609" type="curve"/>
			<point x="206" y="599" type="line"/>
			<point x="321" y="685" type="line"/>
			<point x="328" y="730" type="line"/>
			<point x="128" y="730" type="line"/>
			<point x="122" y="690" type="line"/>
			<point x="278" y="690" type="line"/>
			<point x="179" y="618" type="line"/>
			<point x="172" y="575" type="line"/>
			<point x="202" y="575" type="line" smooth="yes"/>
			<point x="244" y="575"/>
			<point x="268" y="549"/>
			<point x="261" y="510" type="curve" smooth="yes"/>
			<point x="253" y="468"/>
			<point x="222" y="440"/>
			<point x="179" y="440" type="curve" smooth="yes"/>
			<point x="135" y="440"/>
			<point x="110" y="466"/>
			<point x="117" y="505" type="curve"/>
			<point x="72" y="505" type="line"/>
			<point x="62" y="442"/>
			<point x="102" y="400"/>
		</contour>
		<component base="fraction"/>
	</outline>
</glyph>
<glyph name="questiondown" format="2">
	<advance width="600"/>
	<unicode hex="00BF"/>
	<outline>
		<contour>
			<point x="239" y="-169" type="curve" smooth="yes"/>
			<point x="359" y="-169" type="line"/>
			<point x="366" y="-124" type="line"/>
			<point x="246" y="-124" type="line" smooth="yes"/>
			<point x="150" y="-124"/>
			<point x="95" y="-68"/>
			<point x="110" y="26" type="curve" smooth="yes"/>
			<point x="125" y="120"/>
			<point x="196" y="176"/>
			<point x="293" y="176" type="curve" smooth="yes"/>
			<point x="343" y="176" type="line"/>
			<point x="370" y="345" type="line"/>
			<point x="320" y="345" type="line"/>
			<point x="300" y="221" type="line"/>
			<point x="172" y="221"/>
			<point x="79" y="148"/>
			<point x="60" y="26" type="curve" smooth="yes"/>
			<point x="41" y="-95"/>
			<point x="112" y="-169"/>
		</contour>
		<contour>
			<point x="361" y="446" type="curve" smooth="yes"/>
			<point x="366" y="446" type="line" smooth="yes"/>
			<point x="399" y="446"/>
			<point x="424" y="468"/>
			<point x="429" y="500" type="curve" smooth="yes"/>
			<point x="435" y="534"/>
			<point x="416" y="556"/>
			<point x="383" y="556" type="curve" smooth="yes"/>
			<point x="378" y="556" type="line" smooth="yes"/>
			<point x="345" y="556"/>
			<point x="320" y="534"/>
			<point x="315" y="502" type="curve" smooth="yes"/>
			<point x="309" y="468"/>
			<point x="328" y="446"/>
		</contour>
	</outline>
</glyph>
<glyph name="AE" format="2">
	<advance width="600"/>
	<unicode hex="00C6"/>
	<outline>
		<contour>
			<point x="-10" y="0" type="line"/>
			<point x="40" y="0" type="line"/>
			<point x="130" y="215" type="line"/>
			<point x="301" y="215" type="line"/>
			<point x="267" y="0" type="line"/>
			<point x="525" y="0" type="line"/>
			<point x="532" y="45" type="line"/>
			<point x="323" y="45" type="line"/>
			<point x="373" y="357" type="line"/>
			<point x="546" y="357" type="line"/>
			<point x="553" y="402" type="line"/>
			<point x="380" y="402" type="line"/>
			<point x="425" y="685" type="line"/>
			<point x="634" y="685" type="line"/>
			<point x="641" y="730" type="line"/>
			<point x="294" y="730" type="line"/>
		</contour>
		<contour>
			<point x="150" y="260" type="line"/>
			<point x="324" y="685" type="line"/>
			<point x="376" y="685" type="line"/>
			<point x="308" y="260" type="line"/>
		</contour>
	</outline>
</glyph>
<glyph name="multiply" format="2">
	<advance width="600"/>
	<unicode hex="00D7"/>
	<outline>
		<contour>
			<point x="124" y="143" type="line"/>
			<point x="302" y="296" type="line"/>
			<point x="429" y="144" type="line"/>
			<point x="467" y="176" type="line"/>
			<point x="339" y="328" type="line"/>
			<point x="516" y="483" type="line"/>
			<point x="488" y="516" type="line"/>
			<point x="309" y="363" type="line"/>
			<point x="181" y="515" type="line"/>
			<point x="144" y="482" type="line"/>
			<point x="272" y="332" type="line"/>
			<point x="95" y="177" type="line"/>
		</contour>
	</outline>
</glyph>
<glyph name="Oslash" format="2">
	<advance width="600"/>
	<unicode hex="00D8"/>
	<outline>
		<contour>
			<point x="-1" y="-40" type="line"/>
			<point x="47" y="-40" type="line"/>
			<point x="626" y="750" type="line"/>
			<point x="578" y="750" type="line"/>
		</contour>
		<component base="O"/>
	</outline>
</glyph>
<glyph name="Thorn" format="2">
	<advance width="600"/>
	<unicode hex="00DE"/>
	<outline>
		<contour>
			<point x="61" y="0" type="line"/>
			<point x="111" y="0" type="line"/>
			<point x="142" y="195" type="line"/>
			<point x="320" y="195" type="line" smooth="yes"/>
			<point x="441" y="195"/>
			<point x="528" y="266"/>
			<point x="546" y="380" type="curve" smooth="yes"/>
			<point x="564" y="494"/>
			<point x="500" y="565"/>
			<point x="378" y="565" type="curve" smooth="yes"/>
			<point x="200" y="565" type="line"/>
			<point x="227" y="730" type="line"/>
			<point x="177" y="730" type="line"/>
		</contour>
		<contour>
			<point x="327" y="241" type="curve" smooth="yes"/>
			<point x="149" y="241" type="line"/>
			<point x="193" y="520" type="line"/>
			<point x="371" y="520" type="line" smooth="yes"/>
			<point x="462" y="520"/>
			<point x="510" y="467"/>
			<point x="496" y="380" type="curve" smooth="yes"/>
			<point x="483" y="294"/>
			<point x="418" y="241"/>
		</contour>
	</outline>
</glyph>
<glyph name="germandbls" format="2">
	<advance width="600"/>
	<unicode hex="00DF"/>
	<outline>
		<contour>
			<point x="-118" y="-180" type="line"/>
			<point x="-97" y="-180" type="line" smooth="yes"/>
			<point x="19" y="-180"/>
			<point x="98" y="-113"/>
			<point x="116" y="0" type="curve" smooth="yes"/>
			<point x="202" y="543" type="line" smooth="yes"/>
			<point x="217" y="635"/>
			<point x="283" y="695"/>
			<point x="371" y="695" type="curve" smooth="yes"/>
			<point x="463" y="695"/>
			<point x="507" y="637"/>
			<point x="492" y="545" type="curve" smooth="yes"/>
			<point x="478" y="457"/>
			<point x="413" y="397"/>
			<point x="324" y="397" type="curve" smooth="yes"/>
			<point x="284" y="397" type="line"/>
			<point x="277" y="352" type="line"/>
			<point x="317" y="352" type="line" smooth="yes"/>
			<point x="422" y="352"/>
			<point x="468" y="297"/>
			<point x="453" y="200" type="curve" smooth="yes"/>
			<point x="437" y="102"/>
			<point x="373" y="44"/>
			<point x="268" y="45" type="curve" smooth="yes"/>
			<point x="206" y="45" type="line"/>
			<point x="199" y="0" type="line"/>
			<point x="261" y="0" type="line" smooth="yes"/>
			<point x="393" y="0"/>
			<point x="484" y="80"/>
			<point x="504" y="208" type="curve" smooth="yes"/>
			<point x="521" y="314"/>
			<point x="464" y="380"/>
			<point x="356" y="380" type="curve"/>
			<point x="355" y="370" type="line"/>
			<point x="449" y="370"/>
			<point x="526" y="444"/>
			<point x="543" y="550" type="curve" smooth="yes"/>
			<point x="561" y="666"/>
			<point x="500" y="740"/>
			<point x="378" y="740" type="curve" smooth="yes"/>
			<point x="261" y="740"/>
			<point x="171" y="661"/>
			<point x="152" y="543" type="curve" smooth="yes"/>
			<point x="66" y="0" type="line" smooth="yes"/>
			<point x="52" y="-91"/>
			<point x="2" y="-135"/>
			<point x="-89" y="-135" type="curve" smooth="yes"/>
			<point x="-111" y="-135" type="line"/>
		</contour>
	</outline>
</glyph>
<glyph name="ae" format="2">
	<advance width="600"/>
	<unicode hex="00E6"/>
	<outline>
		<contour>
			<point x="128" y="-10" type="curve" smooth="yes"/>
			<point x="239" y="-10"/>
			<point x="269" y="75"/>
			<point x="269" y="75" type="curve"/>
			<point x="272" y="75" type="line"/>
			<point x="272" y="75"/>
			<point x="275" y="-10"/>
			<point x="380" y="-10" type="curve" smooth="yes"/>
			<point x="461" y="-10"/>
			<point x="517" y="43"/>
			<point x="537" y="125" type="curve"/>
			<point x="487" y="125" type="line"/>
			<point x="473" y="72"/>
			<point x="437" y="35"/>
			<point x="385" y="35" type="curve" smooth="yes"/>
			<point x="328" y="35"/>
			<point x="297" y="79"/>
			<point x="306" y="140" type="curve" smooth="yes"/>
			<point x="326" y="268" type="line"/>
			<point x="558" y="268" type="line"/>
			<point x="581" y="410" type="line" smooth="yes"/>
			<point x="595" y="500"/>
			<point x="552" y="560"/>
			<point x="468" y="560" type="curve" smooth="yes"/>
			<point x="371" y="560"/>
			<point x="335" y="474"/>
			<point x="335" y="474" type="curve"/>
			<point x="333" y="474" type="line"/>
			<point x="333" y="474"/>
			<point x="330" y="560"/>
			<point x="225" y="560" type="curve" smooth="yes"/>
			<point x="144" y="560"/>
			<point x="83" y="507"/>
			<point x="63" y="425" type="curve"/>
			<point x="113" y="425" type="line"/>
			<point x="127" y="478"/>
			<point x="169" y="516"/>
			<point x="221" y="516" type="curve" smooth="yes"/>
			<point x="277" y="516"/>
			<point x="309" y="471"/>
			<point x="299" y="410" type="curve" smooth="yes"/>
			<point x="284" y="313" type="line"/>
			<point x="176" y="313" type="line" smooth="yes"/>
			<point x="95" y="313"/>
			<point x="38" y="263"/>
			<point x="25" y="185" type="curve" smooth="yes"/>
			<point x="18" y="139" type="line" smooth="yes"/>
			<point x="4" y="50"/>
			<point x="45" y="-10"/>
		</contour>
		<contour>
			<point x="144" y="32" type="curve" smooth="yes"/>
			<point x="88" y="32"/>
			<point x="58" y="77"/>
			<point x="68" y="139" type="curve" smooth="yes"/>
			<point x="75" y="185" type="line" smooth="yes"/>
			<point x="83" y="234"/>
			<point x="121" y="268"/>
			<point x="168" y="268" type="curve" smooth="yes"/>
			<point x="276" y="268" type="line"/>
			<point x="256" y="140" type="line" smooth="yes"/>
			<point x="246" y="78"/>
			<point x="199" y="32"/>
		</contour>
		<contour>
			<point x="334" y="313" type="line"/>
			<point x="349" y="410" type="line" smooth="yes"/>
			<point x="358" y="470"/>
			<point x="404" y="516"/>
			<point x="458" y="516" type="curve" smooth="yes"/>
			<point x="512" y="516"/>
			<point x="540" y="470"/>
			<point x="531" y="410" type="curve" smooth="yes"/>
			<point x="516" y="313" type="line"/>
		</contour>
	</outline>
</glyph>
<glyph name="eth" format="2">
	<advance width="600"/>
	<unicode hex="00F0"/>
	<outline>
		<contour>
			<point x="254" y="-10" type="curve" smooth="yes"/>
			<point x="390" y="-10"/>
			<point x="489" y="74"/>
			<point x="510" y="211" type="curve" smooth="yes"/>
			<point x="524" y="303"/>
			<point x="500" y="398"/>
			<point x="435" y="511" type="curve" smooth="yes"/>
			<point x="308" y="730" type="line"/>
			<point x="258" y="730" type="line"/>
			<point x="394" y="491" type="line" smooth="yes"/>
			<point x="450" y="392"/>
			<point x="456" y="347"/>
			<point x="456" y="347" type="curve"/>
			<point x="453" y="347" type="line"/>
			<point x="453" y="347"/>
			<point x="415" y="436"/>
			<point x="315" y="436" type="curve" smooth="yes"/>
			<point x="186" y="436"/>
			<point x="91" y="350"/>
			<point x="70" y="215" type="curve" smooth="yes"/>
			<point x="49" y="83"/>
			<point x="125" y="-10"/>
		</contour>
		<contour>
			<point x="262" y="40" type="curve" smooth="yes"/>
			<point x="163" y="40"/>
			<point x="108" y="110"/>
			<point x="125" y="215" type="curve" smooth="yes"/>
			<point x="142" y="322"/>
			<point x="217" y="390"/>
			<point x="318" y="390" type="curve" smooth="yes"/>
			<point x="413" y="390"/>
			<point x="471" y="318"/>
			<point x="455" y="216" type="curve" smooth="yes"/>
			<point x="438" y="109"/>
			<point x="362" y="40"/>
		</contour>
		<contour>
			<point x="159" y="509" type="line"/>
			<point x="528" y="669" type="line"/>
			<point x="535" y="715" type="line"/>
			<point x="166" y="555" type="line"/>
		</contour>
	</outline>
</glyph>
<glyph name="divide" format="2">
	<advance width="600"/>
	<unicode hex="00F7"/>
	<outline>
		<contour>
			<point x="105" y="309" type="line"/>
			<point x="505" y="309" type="line"/>
			<point x="513" y="359" type="line"/>
			<point x="113" y="359" type="line"/>
		</contour>
		<contour>
			<point x="267" y="100" type="curve" smooth="yes"/>
			<point x="272" y="100" type="line" smooth="yes"/>
			<point x="305" y="100"/>
			<point x="330" y="122"/>
			<point x="335" y="154" type="curve" smooth="yes"/>
			<point x="341" y="188"/>
			<point x="322" y="210"/>
			<point x="289" y="210" type="curve" smooth="yes"/>
			<point x="284" y="210" type="line" smooth="yes"/>
			<point x="251" y="210"/>
			<point x="226" y="188"/>
			<point x="221" y="156" type="curve" smooth="yes"/>
			<point x="215" y="122"/>
			<point x="234" y="100"/>
		</contour>
		<contour>
			<point x="323" y="455" type="curve" smooth="yes"/>
			<point x="328" y="455" type="line" smooth="yes"/>
			<point x="361" y="455"/>
			<point x="387" y="477"/>
			<point x="392" y="510" type="curve" smooth="yes"/>
			<point x="397" y="543"/>
			<point x="378" y="565"/>
			<point x="345" y="565" type="curve" smooth="yes"/>
			<point x="340" y="565" type="line" smooth="yes"/>
			<point x="307" y="565"/>
			<point x="282" y="543"/>
			<point x="277" y="510" type="curve" smooth="yes"/>
			<point x="272" y="477"/>
			<point x="290" y="455"/>
		</contour>
	</outline>
</glyph>
<glyph name="thorn" format="2">
	<advance width="600"/>
	<unicode hex="00FE"/>
	<outline>
		<contour>
			<point x="38" y="-180" type="line"/>
			<point x="87" y="-180" type="line"/>
			<point x="125" y="59" type="line"/>
			<point x="76" y="59" type="line"/>
		</contour>
		<component base="b"/>
	</outline>
</glyph>
<glyph name="dcroat" format="2">
	<advance width="600"/>
	<unicode hex="0111"/>
	<outline>
		<contour>
			<point x="242" y="-10" type="curve" smooth="yes"/>
			<point x="337" y="-10"/>
			<point x="414" y="49"/>
			<point x="428" y="140" type="curve"/>
			<point x="380" y="75" type="line"/>
			<point x="408" y="75" type="line"/>
			<point x="396" y="0" type="line"/>
			<point x="446" y="0" type="line"/>
			<point x="562" y="730" type="line"/>
			<point x="512" y="730" type="line"/>
			<point x="478" y="520" type="line"/>
			<point x="462" y="415" type="line"/>
			<point x="444" y="415" type="line"/>
			<point x="461" y="350" type="line"/>
			<point x="476" y="441"/>
			<point x="418" y="500"/>
			<point x="322" y="500" type="curve" smooth="yes"/>
			<point x="212" y="500"/>
			<point x="127" y="420"/>
			<point x="109" y="300" type="curve" smooth="yes"/>
			<point x="91" y="189" type="line" smooth="yes"/>
			<point x="72" y="69"/>
			<point x="132" y="-10"/>
		</contour>
		<contour>
			<point x="259" y="33" type="curve" smooth="yes"/>
			<point x="170" y="33"/>
			<point x="125" y="91"/>
			<point x="141" y="189" type="curve" smooth="yes"/>
			<point x="159" y="300" type="line" smooth="yes"/>
			<point x="174" y="398"/>
			<point x="236" y="457"/>
			<point x="325" y="457" type="curve" smooth="yes"/>
			<point x="417" y="457"/>
			<point x="459" y="398"/>
			<point x="444" y="300" type="curve" smooth="yes"/>
			<point x="426" y="189" type="line" smooth="yes"/>
			<point x="410" y="91"/>
			<point x="348" y="33"/>
		</contour>
		<contour>
			<point x="309" y="586" type="line"/>
			<point x="639" y="586" type="line"/>
			<point x="646" y="631" type="line"/>
			<point x="316" y="631" type="line"/>
		</contour>
	</outline>
</glyph>
<glyph name="uni0123" format="2">
	<advance width="600"/>
	<unicode hex="0123"/>
	<outline>
		<contour>
			<point x="186" y="640" type="line"/>
			<point x="251" y="640" type="line"/>
			<point x="341" y="785" type="line"/>
			<point x="291" y="785" type="line"/>
		</contour>
		<component base="g"/>
	</outline>
</glyph>
<glyph name="Hbar" format="2">
	<advance width="600"/>
	<unicode hex="0126"/>
	<outline>
		<contour>
			<point x="52" y="540" type="line"/>
			<point x="632" y="540" type="line"/>
			<point x="638" y="584" type="line"/>
			<point x="58" y="584" type="line"/>
		</contour>
		<component base="H"/>
	</outline>
</glyph>
<glyph name="dotlessi" format="2">
	<advance width="600"/>
	<unicode hex="0131"/>
	<outline>
		<contour>
			<point x="51" y="0" type="line"/>
			<point x="491" y="0" type="line"/>
			<point x="498" y="45" type="line"/>
			<point x="309" y="45" type="line"/>
			<point x="389" y="550" type="line"/>
			<point x="163" y="550" type="line"/>
			<point x="156" y="505" type="line"/>
			<point x="332" y="505" type="line"/>
			<point x="259" y="45" type="line"/>
			<point x="58" y="45" type="line"/>
		</contour>
	</outline>
</glyph>
<glyph name="IJ" format="2">
	<advance width="600"/>
	<unicode hex="0132"/>
	<outline>
		<contour>
			<point x="211" y="0" type="line"/>
			<point x="266" y="0" type="line" smooth="yes"/>
			<point x="406" y="0"/>
			<point x="505" y="87"/>
			<point x="527" y="230" type="curve" smooth="yes"/>
			<point x="605" y="720" type="line"/>
			<point x="380" y="720" type="line"/>
			<point x="372" y="670" type="line"/>
			<point x="542" y="670" type="line"/>
			<point x="472" y="230" type="line" smooth="yes"/>
			<point x="455" y="117"/>
			<point x="380" y="50"/>
			<point x="274" y="50" type="curve" smooth="yes"/>
			<point x="219" y="50" type="line"/>
		</contour>
		<contour>
			<point x="58" y="0" type="line"/>
			<point x="113" y="0" type="line"/>
			<point x="227" y="720" type="line"/>
			<point x="172" y="720" type="line"/>
		</contour>
	</outline>
</glyph>
<glyph name="ij" format="2">
	<advance width="600"/>
	<unicode hex="0133"/>
	<outline>
		<contour>
			<point x="142" y="-165" type="line"/>
			<point x="197" y="-165" type="line" smooth="yes"/>
			<point x="324" y="-165"/>
			<point x="420" y="-87"/>
			<point x="439" y="30" type="curve" smooth="yes"/>
			<point x="520" y="550" type="line"/>
			<point x="465" y="550" type="line"/>
			<point x="383" y="30" type="line" smooth="yes"/>
			<point x="369" y="-57"/>
			<point x="298" y="-115"/>
			<point x="205" y="-115" type="curve" smooth="yes"/>
			<point x="150" y="-115" type="line"/>
		</contour>
		<contour>
			<point x="76" y="0" type="line"/>
			<point x="131" y="0" type="line"/>
			<point x="218" y="550" type="line"/>
			<point x="163" y="550" type="line"/>
		</contour>
		<contour>
			<point x="203" y="645" type="curve" smooth="yes"/>
			<point x="208" y="645" type="line" smooth="yes"/>
			<point x="241" y="645"/>
			<point x="267" y="667"/>
			<point x="272" y="701" type="curve" smooth="yes"/>
			<point x="277" y="733"/>
			<point x="259" y="755"/>
			<point x="226" y="755" type="curve" smooth="yes"/>
			<point x="221" y="755" type="line" smooth="yes"/>
			<point x="188" y="755"/>
			<point x="162" y="733"/>
			<point x="157" y="699" type="curve" smooth="yes"/>
			<point x="152" y="667"/>
			<point x="170" y="645"/>
		</contour>
		<contour>
			<point x="508" y="645" type="curve" smooth="yes"/>
			<point x="513" y="645" type="line" smooth="yes"/>
			<point x="546" y="645"/>
			<point x="572" y="667"/>
			<point x="577" y="701" type="curve" smooth="yes"/>
			<point x="582" y="733"/>
			<point x="564" y="755"/>
			<point x="531" y="755" type="curve" smooth="yes"/>
			<point x="526" y="755" type="line" smooth="yes"/>
			<point x="493" y="755"/>
			<point x="467" y="733"/>
			<point x="462" y="699" type="curve" smooth="yes"/>
			<point x="457" y="667"/>
			<point x="475" y="645"/>
		</contour>
	</outline>
</glyph>
<glyph name="Lslash" format="2">
	<advance width="600"/>
	<unicode hex="0141"/>
	<outline>
		<contour>
			<point x="14" y="240" type="line"/>
			<point x="424" y="495" type="line"/>
			<point x="433" y="550" type="line"/>
			<point x="23" y="295" type="line"/>
		</contour>
		<component base="L" xOffset="10"/>
	</outline>
</glyph>
<glyph name="lslash" format="2">
	<advance width="600"/>
	<unicode hex="0142"/>
	<outline>
		<contour>
			<point x="94" y="240" type="line"/>
			<point x="504" y="495" type="line"/>
			<point x="513" y="550" type="line"/>
			<point x="103" y="295" type="line"/>
		</contour>
		<component base="l"/>
	</outline>
</glyph>
<glyph name="napostrophe" format="2">
	<advance width="600"/>
	<unicode hex="0149"/>
	<outline>
		<contour>
			<point x="113" y="645" type="line"/>
			<point x="163" y="645" type="line"/>
			<point x="291" y="791" type="line"/>
			<point x="226" y="791" type="line"/>
		</contour>
		<component base="n"/>
	</outline>
</glyph>
<glyph name="Eng" format="2">
	<advance width="600"/>
	<unicode hex="014A"/>
	<outline>
		<contour>
			<point x="154" y="-180" type="line"/>
			<point x="234" y="-180" type="line" smooth="yes"/>
			<point x="352" y="-180"/>
			<point x="429" y="-115"/>
			<point x="447" y="0" type="curve" smooth="yes"/>
			<point x="563" y="730" type="line"/>
			<point x="563" y="730"/>
			<point x="524" y="730"/>
			<point x="515" y="730" type="curve"/>
			<point x="434" y="219" type="line" smooth="yes"/>
			<point x="423" y="149"/>
			<point x="418" y="94"/>
			<point x="418" y="94" type="curve"/>
			<point x="250" y="730" type="line"/>
			<point x="181" y="730" type="line"/>
			<point x="65" y="0" type="line"/>
			<point x="65" y="0"/>
			<point x="104" y="0"/>
			<point x="113" y="0" type="curve"/>
			<point x="202" y="560" type="line" smooth="yes"/>
			<point x="213" y="630"/>
			<point x="218" y="675"/>
			<point x="218" y="675" type="curve"/>
			<point x="397" y="0" type="line"/>
			<point x="383" y="-88"/>
			<point x="329" y="-135"/>
			<point x="242" y="-135" type="curve" smooth="yes"/>
			<point x="162" y="-135" type="line"/>
		</contour>
	</outline>
</glyph>
<glyph name="eng" format="2">
	<advance width="600"/>
	<unicode hex="014B"/>
	<outline>
		<contour>
			<point x="172" y="-180" type="line"/>
			<point x="213" y="-180" type="line" smooth="yes"/>
			<point x="339" y="-180"/>
			<point x="432" y="-104"/>
			<point x="450" y="15" type="curve" smooth="yes"/>
			<point x="506" y="367" type="line" smooth="yes"/>
			<point x="525" y="485"/>
			<point x="466" y="560"/>
			<point x="358" y="560" type="curve" smooth="yes"/>
			<point x="260" y="560"/>
			<point x="188" y="499"/>
			<point x="173" y="404" type="curve"/>
			<point x="211" y="455" type="line"/>
			<point x="188" y="455" type="line"/>
			<point x="203" y="550" type="line"/>
			<point x="153" y="550" type="line"/>
			<point x="66" y="0" type="line"/>
			<point x="116" y="0" type="line"/>
			<point x="173" y="360" type="line" smooth="yes"/>
			<point x="188" y="457"/>
			<point x="253" y="517"/>
			<point x="341" y="517" type="curve" smooth="yes"/>
			<point x="427" y="517"/>
			<point x="471" y="459"/>
			<point x="455" y="360" type="curve" smooth="yes"/>
			<point x="400" y="15" type="line" smooth="yes"/>
			<point x="386" y="-78"/>
			<point x="317" y="-135"/>
			<point x="221" y="-135" type="curve" smooth="yes"/>
			<point x="180" y="-135" type="line"/>
		</contour>
	</outline>
</glyph>
<glyph name="OE" format="2">
	<advance width="600"/>
	<unicode hex="0152"/>
	<outline>
		<contour>
			<point x="150" y="-10" type="curve" smooth="yes"/>
			<point x="245" y="-10"/>
			<point x="284" y="80"/>
			<point x="284" y="80" type="curve"/>
			<point x="289" y="80" type="line"/>
			<point x="276" y="0" type="line"/>
			<point x="525" y="0" type="line"/>
			<point x="533" y="50" type="line"/>
			<point x="339" y="50" type="line"/>
			<point x="387" y="352" type="line"/>
			<point x="545" y="352" type="line"/>
			<point x="553" y="402" type="line"/>
			<point x="395" y="402" type="line"/>
			<point x="439" y="680" type="line"/>
			<point x="633" y="680" type="line"/>
			<point x="641" y="730" type="line"/>
			<point x="392" y="730" type="line"/>
			<point x="379" y="650" type="line"/>
			<point x="374" y="650" type="line"/>
			<point x="374" y="650"/>
			<point x="364" y="740"/>
			<point x="269" y="740" type="curve" smooth="yes"/>
			<point x="178" y="740"/>
			<point x="101" y="664"/>
			<point x="84" y="557" type="curve" smooth="yes"/>
			<point x="23" y="173" type="line" smooth="yes"/>
			<point x="6" y="66"/>
			<point x="59" y="-10"/>
		</contour>
		<contour>
			<point x="169" y="40" type="curve" smooth="yes"/>
			<point x="102" y="40"/>
			<point x="66" y="94"/>
			<point x="78" y="173" type="curve" smooth="yes"/>
			<point x="139" y="557" type="line" smooth="yes"/>
			<point x="152" y="636"/>
			<point x="205" y="690"/>
			<point x="272" y="690" type="curve" smooth="yes"/>
			<point x="338" y="690"/>
			<point x="377" y="638"/>
			<point x="364" y="557" type="curve" smooth="yes"/>
			<point x="303" y="173" type="line" smooth="yes"/>
			<point x="291" y="92"/>
			<point x="235" y="40"/>
		</contour>
	</outline>
</glyph>
<glyph name="oe" format="2">
	<advance width="600"/>
	<unicode hex="0153"/>
	<outline>
		<contour>
			<point x="128" y="-10" type="curve" smooth="yes"/>
			<point x="239" y="-10"/>
			<point x="269" y="75"/>
			<point x="269" y="75" type="curve"/>
			<point x="272" y="75" type="line"/>
			<point x="272" y="75"/>
			<point x="275" y="-10"/>
			<point x="380" y="-10" type="curve" smooth="yes"/>
			<point x="461" y="-10"/>
			<point x="527" y="43"/>
			<point x="547" y="125" type="curve"/>
			<point x="492" y="125" type="line"/>
			<point x="478" y="72"/>
			<point x="437" y="40"/>
			<point x="385" y="40" type="curve" smooth="yes"/>
			<point x="328" y="40"/>
			<point x="299" y="79"/>
			<point x="308" y="140" type="curve" smooth="yes"/>
			<point x="327" y="260" type="line"/>
			<point x="562" y="260" type="line"/>
			<point x="586" y="410" type="line" smooth="yes"/>
			<point x="600" y="501"/>
			<point x="555" y="560"/>
			<point x="468" y="560" type="curve" smooth="yes"/>
			<point x="371" y="560"/>
			<point x="335" y="474"/>
			<point x="335" y="474" type="curve"/>
			<point x="333" y="474" type="line"/>
			<point x="333" y="474"/>
			<point x="330" y="560"/>
			<point x="225" y="560" type="curve" smooth="yes"/>
			<point x="137" y="560"/>
			<point x="70" y="500"/>
			<point x="56" y="408" type="curve" smooth="yes"/>
			<point x="13" y="139" type="line" smooth="yes"/>
			<point x="-1" y="48"/>
			<point x="43" y="-10"/>
		</contour>
		<contour>
			<point x="145" y="40" type="curve" smooth="yes"/>
			<point x="88" y="40"/>
			<point x="59" y="79"/>
			<point x="68" y="139" type="curve" smooth="yes"/>
			<point x="111" y="408" type="line" smooth="yes"/>
			<point x="120" y="470"/>
			<point x="163" y="510"/>
			<point x="220" y="510" type="curve" smooth="yes"/>
			<point x="276" y="510"/>
			<point x="306" y="471"/>
			<point x="296" y="410" type="curve" smooth="yes"/>
			<point x="253" y="140" type="line" smooth="yes"/>
			<point x="244" y="79"/>
			<point x="201" y="40"/>
		</contour>
		<contour>
			<point x="335" y="310" type="line"/>
			<point x="351" y="410" type="line" smooth="yes"/>
			<point x="361" y="471"/>
			<point x="402" y="510"/>
			<point x="457" y="510" type="curve" smooth="yes"/>
			<point x="512" y="510"/>
			<point x="541" y="471"/>
			<point x="531" y="410" type="curve" smooth="yes"/>
			<point x="515" y="310" type="line"/>
		</contour>
	</outline>
</glyph>
<glyph name="tbar" format="2">
	<advance width="600"/>
	<unicode hex="0167"/>
	<outline>
		<contour>
			<point x="91" y="261" type="line"/>
			<point x="462" y="261" type="line"/>
			<point x="469" y="304" type="line"/>
			<point x="98" y="304" type="line"/>
		</contour>
		<component base="t"/>
	</outline>
</glyph>
<glyph name="longs" format="2">
	<advance width="600"/>
	<unicode hex="017F"/>
	<outline>
		<contour>
			<point x="230" y="595" type="curve" smooth="yes"/>
			<point x="136" y="0" type="line"/>
			<point x="186" y="0" type="line"/>
			<point x="280" y="595" type="line" smooth="yes"/>
			<point x="289" y="648"/>
			<point x="330" y="685"/>
			<point x="379" y="685" type="curve" smooth="yes"/>
			<point x="559" y="685" type="line"/>
			<point x="567" y="730" type="line"/>
			<point x="388" y="730" type="line" smooth="yes"/>
			<point x="304" y="730"/>
			<point x="243" y="678"/>
		</contour>
	</outline>
</glyph>
<glyph name="uni018F" format="2">
	<advance width="600"/>
	<unicode hex="018F"/>
	<guideline x="211"/>
	<outline>
		<contour>
			<point x="253" y="-10" type="curve" smooth="yes"/>
			<point x="375" y="-10"/>
			<point x="462" y="69"/>
			<point x="481" y="190" type="curve" smooth="yes"/>
			<point x="537" y="540" type="line" smooth="yes"/>
			<point x="556" y="662"/>
			<point x="494" y="740"/>
			<point x="372" y="740" type="curve" smooth="yes"/>
			<point x="248" y="740"/>
			<point x="165" y="658"/>
			<point x="145" y="530" type="curve"/>
			<point x="195" y="530" type="line"/>
			<point x="211" y="632"/>
			<point x="270" y="695"/>
			<point x="365" y="695" type="curve" smooth="yes"/>
			<point x="458" y="695"/>
			<point x="502" y="636"/>
			<point x="487" y="540" type="curve" smooth="yes"/>
			<point x="461" y="378" type="line"/>
			<point x="121" y="378" type="line"/>
			<point x="91" y="190" type="line" smooth="yes"/>
			<point x="72" y="69"/>
			<point x="133" y="-10"/>
		</contour>
		<contour>
			<point x="260" y="34" type="curve" smooth="yes"/>
			<point x="169" y="34"/>
			<point x="126" y="94"/>
			<point x="141" y="190" type="curve" smooth="yes"/>
			<point x="165" y="344" type="line"/>
			<point x="153" y="335" type="line"/>
			<point x="454" y="335" type="line"/>
			<point x="431" y="190" type="line" smooth="yes"/>
			<point x="416" y="93"/>
			<point x="354" y="34"/>
		</contour>
	</outline>
</glyph>
<glyph name="florin" format="2">
	<advance width="600"/>
	<unicode hex="0192"/>
	<outline>
		<contour>
			<point x="-73" y="-180" type="line"/>
			<point x="23" y="-180" type="line" smooth="yes"/>
			<point x="142" y="-180"/>
			<point x="228" y="-113"/>
			<point x="246" y="0" type="curve" smooth="yes"/>
			<point x="314" y="432" type="line"/>
			<point x="547" y="432" type="line"/>
			<point x="555" y="477" type="line"/>
			<point x="322" y="477" type="line"/>
			<point x="342" y="605" type="line" smooth="yes"/>
			<point x="350" y="656"/>
			<point x="383" y="685"/>
			<point x="434" y="685" type="curve" smooth="yes"/>
			<point x="587" y="685" type="line"/>
			<point x="595" y="730" type="line"/>
			<point x="442" y="730" type="line" smooth="yes"/>
			<point x="361" y="730"/>
			<point x="304" y="683"/>
			<point x="292" y="605" type="curve" smooth="yes"/>
			<point x="272" y="477" type="line"/>
			<point x="102" y="477" type="line"/>
			<point x="94" y="432" type="line"/>
			<point x="264" y="432" type="line"/>
			<point x="198" y="10" type="line" smooth="yes"/>
			<point x="183" y="-84"/>
			<point x="125" y="-135"/>
			<point x="31" y="-135" type="curve" smooth="yes"/>
			<point x="-65" y="-135" type="line"/>
		</contour>
	</outline>
</glyph>
<glyph name="Ohorn" format="2">
	<advance width="600"/>
	<unicode hex="01A0"/>
	<outline>
		<contour>
			<point x="254" y="-10" type="curve" smooth="yes"/>
			<point x="373" y="-10"/>
			<point x="462" y="68"/>
			<point x="481" y="190" type="curve" smooth="yes"/>
			<point x="537" y="540" type="line" smooth="yes"/>
			<point x="556" y="661"/>
			<point x="491" y="740"/>
			<point x="373" y="740" type="curve" smooth="yes"/>
			<point x="255" y="740"/>
			<point x="166" y="661"/>
			<point x="147" y="540" type="curve" smooth="yes"/>
			<point x="91" y="190" type="line" smooth="yes"/>
			<point x="72" y="68"/>
			<point x="136" y="-10"/>
		</contour>
		<contour>
			<point x="261" y="34" type="curve" smooth="yes"/>
			<point x="170" y="34"/>
			<point x="125" y="91"/>
			<point x="141" y="190" type="curve" smooth="yes"/>
			<point x="197" y="540" type="line" smooth="yes"/>
			<point x="212" y="638"/>
			<point x="275" y="696"/>
			<point x="366" y="696" type="curve" smooth="yes"/>
			<point x="457" y="696"/>
			<point x="502" y="638"/>
			<point x="487" y="540" type="curve" smooth="yes"/>
			<point x="431" y="190" type="line" smooth="yes"/>
			<point x="415" y="91"/>
			<point x="353" y="34"/>
		</contour>
		<contour>
			<point x="445" y="685" type="line"/>
			<point x="519" y="685" type="line" smooth="yes"/>
			<point x="570" y="685"/>
			<point x="610" y="719"/>
			<point x="618" y="770" type="curve" smooth="yes"/>
			<point x="629" y="840" type="line"/>
			<point x="589" y="840" type="line"/>
			<point x="578" y="770" type="line" smooth="yes"/>
			<point x="573" y="740"/>
			<point x="552" y="720"/>
			<point x="525" y="720" type="curve" smooth="yes"/>
			<point x="450" y="720" type="line"/>
		</contour>
	</outline>
</glyph>
<glyph name="ohorn" format="2">
	<advance width="600"/>
	<unicode hex="01A1"/>
	<outline>
		<contour>
			<point x="254" y="-10" type="curve" smooth="yes"/>
			<point x="373" y="-10"/>
			<point x="462" y="68"/>
			<point x="481" y="190" type="curve" smooth="yes"/>
			<point x="508" y="360" type="line" smooth="yes"/>
			<point x="527" y="481"/>
			<point x="463" y="560"/>
			<point x="345" y="560" type="curve" smooth="yes"/>
			<point x="227" y="560"/>
			<point x="137" y="481"/>
			<point x="118" y="360" type="curve" smooth="yes"/>
			<point x="91" y="190" type="line" smooth="yes"/>
			<point x="72" y="68"/>
			<point x="136" y="-10"/>
		</contour>
		<contour>
			<point x="261" y="34" type="curve" smooth="yes"/>
			<point x="170" y="34"/>
			<point x="125" y="91"/>
			<point x="141" y="190" type="curve" smooth="yes"/>
			<point x="168" y="360" type="line" smooth="yes"/>
			<point x="184" y="458"/>
			<point x="247" y="516"/>
			<point x="338" y="516" type="curve" smooth="yes"/>
			<point x="429" y="516"/>
			<point x="474" y="458"/>
			<point x="458" y="360" type="curve" smooth="yes"/>
			<point x="431" y="190" type="line" smooth="yes"/>
			<point x="415" y="91"/>
			<point x="353" y="34"/>
		</contour>
		<contour>
			<point x="393" y="515" type="line"/>
			<point x="477" y="515" type="line" smooth="yes"/>
			<point x="528" y="515"/>
			<point x="568" y="549"/>
			<point x="576" y="600" type="curve" smooth="yes"/>
			<point x="586" y="660" type="line"/>
			<point x="546" y="660" type="line"/>
			<point x="536" y="600" type="line" smooth="yes"/>
			<point x="531" y="570"/>
			<point x="510" y="550"/>
			<point x="483" y="550" type="curve" smooth="yes"/>
			<point x="398" y="550" type="line"/>
		</contour>
	</outline>
</glyph>
<glyph name="uni0237" format="2">
	<advance width="600"/>
	<unicode hex="0237"/>
	<outline>
		<contour>
			<point x="22" y="-180" type="line"/>
			<point x="157" y="-180" type="line" smooth="yes"/>
			<point x="279" y="-180"/>
			<point x="363" y="-109"/>
			<point x="382" y="10" type="curve" smooth="yes"/>
			<point x="467" y="550" type="line"/>
			<point x="167" y="550" type="line"/>
			<point x="160" y="505" type="line"/>
			<point x="410" y="505" type="line"/>
			<point x="332" y="10" type="line" smooth="yes"/>
			<point x="317" y="-84"/>
			<point x="259" y="-135"/>
			<point x="165" y="-135" type="curve" smooth="yes"/>
			<point x="30" y="-135" type="line"/>
		</contour>
	</outline>
</glyph>
<glyph name="uni0259" format="2">
	<advance width="600"/>
	<unicode hex="0259"/>
	<outline>
		<contour>
			<point x="253" y="-10" type="curve" smooth="yes"/>
			<point x="375" y="-10"/>
			<point x="462" y="69"/>
			<point x="481" y="190" type="curve" smooth="yes"/>
			<point x="508" y="360" type="line" smooth="yes"/>
			<point x="527" y="482"/>
			<point x="467" y="560"/>
			<point x="344" y="560" type="curve" smooth="yes"/>
			<point x="241" y="560"/>
			<point x="161" y="504"/>
			<point x="128" y="415" type="curve"/>
			<point x="178" y="415" type="line"/>
			<point x="206" y="478"/>
			<point x="263" y="516"/>
			<point x="337" y="516" type="curve" smooth="yes"/>
			<point x="430" y="516"/>
			<point x="473" y="456"/>
			<point x="458" y="360" type="curve" smooth="yes"/>
			<point x="446" y="285" type="line"/>
			<point x="106" y="285" type="line"/>
			<point x="91" y="190" type="line" smooth="yes"/>
			<point x="72" y="69"/>
			<point x="133" y="-10"/>
		</contour>
		<contour>
			<point x="260" y="34" type="curve" smooth="yes"/>
			<point x="169" y="34"/>
			<point x="126" y="94"/>
			<point x="141" y="190" type="curve" smooth="yes"/>
			<point x="151" y="251" type="line"/>
			<point x="138" y="242" type="line"/>
			<point x="439" y="242" type="line"/>
			<point x="431" y="190" type="line" smooth="yes"/>
			<point x="416" y="93"/>
			<point x="354" y="34"/>
		</contour>
	</outline>
</glyph>
<glyph name="uni02BA" format="2">
	<advance width="600"/>
	<unicode hex="02BA"/>
	<outline>
		<contour>
			<point x="366" y="409" type="line"/>
			<point x="406" y="409" type="line"/>
			<point x="580" y="720" type="line"/>
			<point x="490" y="720" type="line"/>
		</contour>
		<contour>
			<point x="96" y="409" type="line"/>
			<point x="136" y="409" type="line"/>
			<point x="310" y="720" type="line"/>
			<point x="220" y="720" type="line"/>
		</contour>
	</outline>
</glyph>
<glyph name="uni02BC" format="2">
	<advance width="600"/>
	<unicode hex="02BC"/>
	<outline>
		<contour>
			<point x="215" y="465" type="line"/>
			<point x="255" y="465" type="line"/>
			<point x="429" y="776" type="line"/>
			<point x="339" y="776" type="line"/>
		</contour>
	</outline>
</glyph>
<glyph name="circumflex" format="2">
	<advance width="600"/>
	<unicode hex="02C6"/>
	<outline>
		<contour>
			<point x="208" y="645" type="line"/>
			<point x="255" y="645" type="line"/>
			<point x="375" y="754" type="line"/>
			<point x="378" y="754" type="line"/>
			<point x="464" y="645" type="line"/>
			<point x="508" y="645" type="line"/>
			<point x="410" y="785" type="line"/>
			<point x="349" y="785" type="line"/>
		</contour>
	</outline>
</glyph>
<glyph name="caron" format="2">
	<advance width="600"/>
	<unicode hex="02C7"/>
	<outline>
		<contour>
			<point x="328" y="645" type="line"/>
			<point x="389" y="645" type="line"/>
			<point x="530" y="785" type="line"/>
			<point x="484" y="785" type="line"/>
			<point x="364" y="676" type="line"/>
			<point x="361" y="676" type="line"/>
			<point x="274" y="785" type="line"/>
			<point x="230" y="785" type="line"/>
		</contour>
	</outline>
</glyph>
<glyph name="breve" format="2">
	<advance width="600"/>
	<unicode hex="02D8"/>
	<outline>
		<contour>
			<point x="359" y="650" type="curve" smooth="yes"/>
			<point x="446" y="650"/>
			<point x="513" y="704"/>
			<point x="525" y="785" type="curve"/>
			<point x="485" y="785" type="line"/>
			<point x="476" y="728"/>
			<point x="428" y="690"/>
			<point x="364" y="690" type="curve" smooth="yes"/>
			<point x="302" y="690"/>
			<point x="266" y="728"/>
			<point x="275" y="785" type="curve"/>
			<point x="235" y="785" type="line"/>
			<point x="223" y="704"/>
			<point x="272" y="650"/>
		</contour>
	</outline>
</glyph>
<glyph name="dotaccent" format="2">
	<advance width="600"/>
	<unicode hex="02D9"/>
	<outline>
		<contour>
			<point x="345" y="645" type="curve" smooth="yes"/>
			<point x="350" y="645" type="line" smooth="yes"/>
			<point x="383" y="645"/>
			<point x="409" y="667"/>
			<point x="414" y="700" type="curve" smooth="yes"/>
			<point x="419" y="733"/>
			<point x="401" y="755"/>
			<point x="368" y="755" type="curve" smooth="yes"/>
			<point x="363" y="755" type="line" smooth="yes"/>
			<point x="330" y="755"/>
			<point x="304" y="733"/>
			<point x="299" y="700" type="curve" smooth="yes"/>
			<point x="294" y="667"/>
			<point x="312" y="645"/>
		</contour>
	</outline>
</glyph>
<glyph name="ring" format="2">
	<advance width="600"/>
	<unicode hex="02DA"/>
	<outline>
		<contour>
			<point x="353" y="615" type="curve" smooth="yes"/>
			<point x="416" y="615"/>
			<point x="464" y="653"/>
			<point x="473" y="710" type="curve" smooth="yes"/>
			<point x="482" y="767"/>
			<point x="447" y="805"/>
			<point x="384" y="805" type="curve" smooth="yes"/>
			<point x="321" y="805"/>
			<point x="272" y="767"/>
			<point x="263" y="710" type="curve" smooth="yes"/>
			<point x="254" y="653"/>
			<point x="290" y="615"/>
		</contour>
		<contour>
			<point x="358" y="652" type="curve" smooth="yes"/>
			<point x="320" y="652"/>
			<point x="298" y="675"/>
			<point x="303" y="710" type="curve" smooth="yes"/>
			<point x="309" y="745"/>
			<point x="338" y="769"/>
			<point x="377" y="769" type="curve" smooth="yes"/>
			<point x="419" y="769"/>
			<point x="439" y="745"/>
			<point x="433" y="710" type="curve" smooth="yes"/>
			<point x="428" y="675"/>
			<point x="398" y="652"/>
		</contour>
	</outline>
</glyph>
<glyph name="ogonek" format="2">
	<advance width="600"/>
	<unicode hex="02DB"/>
	<outline>
		<contour>
			<point x="227" y="-195" type="curve" smooth="yes"/>
			<point x="300" y="-195" type="line"/>
			<point x="307" y="-153" type="line"/>
			<point x="243" y="-153" type="line" smooth="yes"/>
			<point x="212" y="-153"/>
			<point x="196" y="-124"/>
			<point x="201" y="-96" type="curve" smooth="yes"/>
			<point x="205" y="-72"/>
			<point x="236" y="-34"/>
			<point x="277" y="1" type="curve" smooth="yes"/>
			<point x="289" y="11" type="line"/>
			<point x="252" y="11" type="line"/>
			<point x="191" y="-30"/>
			<point x="158" y="-67"/>
			<point x="152" y="-109" type="curve" smooth="yes"/>
			<point x="145" y="-158"/>
			<point x="169" y="-195"/>
		</contour>
	</outline>
</glyph>
<glyph name="tilde" format="2">
	<advance width="600"/>
	<unicode hex="02DC"/>
	<outline>
		<contour>
			<point x="435" y="650" type="curve" smooth="yes"/>
			<point x="488" y="650"/>
			<point x="525" y="684"/>
			<point x="534" y="740" type="curve" smooth="yes"/>
			<point x="540" y="775" type="line"/>
			<point x="500" y="775" type="line"/>
			<point x="494" y="740" type="line" smooth="yes"/>
			<point x="489" y="709"/>
			<point x="469" y="690"/>
			<point x="441" y="690" type="curve" smooth="yes"/>
			<point x="391" y="690"/>
			<point x="385" y="780"/>
			<point x="310" y="780" type="curve" smooth="yes"/>
			<point x="254" y="780"/>
			<point x="215" y="746"/>
			<point x="206" y="690" type="curve" smooth="yes"/>
			<point x="200" y="655" type="line"/>
			<point x="240" y="655" type="line"/>
			<point x="246" y="690" type="line" smooth="yes"/>
			<point x="251" y="721"/>
			<point x="273" y="740"/>
			<point x="304" y="740" type="curve" smooth="yes"/>
			<point x="354" y="740"/>
			<point x="360" y="650"/>
		</contour>
	</outline>
</glyph>
<glyph name="hungarumlaut" format="2">
	<advance width="600"/>
	<unicode hex="02DD"/>
	<outline>
		<contour>
			<point x="401" y="645" type="line"/>
			<point x="453" y="645" type="line"/>
			<point x="592" y="786" type="line"/>
			<point x="530" y="786" type="line"/>
		</contour>
		<contour>
			<point x="247" y="645" type="line"/>
			<point x="299" y="645" type="line"/>
			<point x="438" y="786" type="line"/>
			<point x="376" y="786" type="line"/>
		</contour>
	</outline>
</glyph>
<glyph name="hookabovecomb" format="2">
	<advance width="0"/>
	<unicode hex="0309"/>
	<outline>
		<contour>
			<point x="-199" y="715" type="curve" smooth="yes"/>
			<point x="-263" y="645" type="line"/>
			<point x="-219" y="645" type="line"/>
			<point x="-174" y="697" type="line" smooth="yes"/>
			<point x="-151" y="723"/>
			<point x="-139" y="743"/>
			<point x="-136" y="761" type="curve" smooth="yes"/>
			<point x="-131" y="796"/>
			<point x="-158" y="820"/>
			<point x="-204" y="820" type="curve" smooth="yes"/>
			<point x="-294" y="820" type="line"/>
			<point x="-300" y="785" type="line"/>
			<point x="-210" y="785" type="line" smooth="yes"/>
			<point x="-184" y="785"/>
			<point x="-170" y="774"/>
			<point x="-173" y="757" type="curve" smooth="yes"/>
			<point x="-175" y="746"/>
			<point x="-183" y="733"/>
		</contour>
	</outline>
</glyph>
<glyph name="uni031B" format="2">
	<advance width="0"/>
	<unicode hex="031B"/>
	<outline>
		<contour>
			<point x="-82" y="515" type="line"/>
			<point x="-48" y="515" type="line" smooth="yes"/>
			<point x="3" y="515"/>
			<point x="43" y="549"/>
			<point x="51" y="600" type="curve" smooth="yes"/>
			<point x="61" y="660" type="line"/>
			<point x="21" y="660" type="line"/>
			<point x="11" y="600" type="line" smooth="yes"/>
			<point x="6" y="570"/>
			<point x="-15" y="550"/>
			<point x="-42" y="550" type="curve" smooth="yes"/>
			<point x="-77" y="550" type="line"/>
		</contour>
	</outline>
</glyph>
<glyph name="dotbelowcomb" format="2">
	<advance width="0"/>
	<unicode hex="0323"/>
	<outline>
		<contour>
			<point x="-389" y="-200" type="curve" smooth="yes"/>
			<point x="-384" y="-200" type="line" smooth="yes"/>
			<point x="-351" y="-200"/>
			<point x="-325" y="-178"/>
			<point x="-320" y="-145" type="curve" smooth="yes"/>
			<point x="-315" y="-112"/>
			<point x="-333" y="-90"/>
			<point x="-366" y="-90" type="curve" smooth="yes"/>
			<point x="-371" y="-90" type="line" smooth="yes"/>
			<point x="-404" y="-90"/>
			<point x="-430" y="-112"/>
			<point x="-435" y="-145" type="curve" smooth="yes"/>
			<point x="-440" y="-178"/>
			<point x="-422" y="-200"/>
		</contour>
	</outline>
</glyph>
<glyph name="uni0326" format="2">
	<advance width="0"/>
	<unicode hex="0326"/>
	<outline>
		<contour>
			<point x="-467" y="-240" type="line"/>
			<point x="-417" y="-240" type="line"/>
			<point x="-289" y="-94" type="line"/>
			<point x="-354" y="-94" type="line"/>
		</contour>
	</outline>
</glyph>
<glyph name="uni0336" format="2">
	<advance width="0"/>
	<unicode hex="0336"/>
	<outline>
		<contour>
			<point x="-626" y="306" type="line"/>
			<point x="34" y="306" type="line"/>
			<point x="41" y="346" type="line"/>
			<point x="-619" y="346" type="line"/>
		</contour>
	</outline>
</glyph>
<glyph name="uni0338" format="2">
	<advance width="0"/>
	<unicode hex="0338"/>
	<outline>
		<contour>
			<point x="-524" y="-60" type="line"/>
			<point x="-478" y="-60" type="line"/>
			<point x="-50" y="780" type="line"/>
			<point x="-96" y="780" type="line"/>
		</contour>
	</outline>
</glyph>
<glyph name="uni0374" format="2">
	<advance width="600"/>
	<unicode hex="0374"/>
	<outline>
		<contour>
			<point x="206" y="410" type="line"/>
			<point x="246" y="410" type="line"/>
			<point x="420" y="721" type="line"/>
			<point x="330" y="721" type="line"/>
		</contour>
	</outline>
</glyph>
<glyph name="uni0394" format="2">
	<advance width="600"/>
	<unicode hex="0394"/>
	<outline>
		<contour>
			<point x="24" y="0" type="line"/>
			<point x="74" y="0" type="line"/>
			<point x="309" y="550" type="line" smooth="yes"/>
			<point x="343" y="630"/>
			<point x="365" y="690"/>
			<point x="365" y="690" type="curve"/>
			<point x="366" y="690"/>
			<point x="367" y="630"/>
			<point x="376" y="550" type="curve" smooth="yes"/>
			<point x="436" y="0" type="line"/>
			<point x="488" y="0" type="line"/>
			<point x="403" y="730" type="line"/>
			<point x="341" y="730" type="line"/>
		</contour>
		<contour>
			<point x="48" y="0" type="line"/>
			<point x="455" y="0" type="line"/>
			<point x="462" y="45" type="line"/>
			<point x="55" y="45" type="line"/>
		</contour>
	</outline>
</glyph>
<glyph name="uni03A9" format="2">
	<advance width="600"/>
	<unicode hex="03A9"/>
	<outline>
		<contour>
			<point x="6" y="0" type="line"/>
			<point x="216" y="0" type="line"/>
			<point x="229" y="85" type="line"/>
			<point x="167" y="85"/>
			<point x="137" y="133"/>
			<point x="149" y="210" type="curve" smooth="yes"/>
			<point x="201" y="538" type="line" smooth="yes"/>
			<point x="217" y="636"/>
			<point x="280" y="695"/>
			<point x="367" y="695" type="curve" smooth="yes"/>
			<point x="453" y="695"/>
			<point x="497" y="636"/>
			<point x="481" y="538" type="curve" smooth="yes"/>
			<point x="429" y="210" type="line" smooth="yes"/>
			<point x="417" y="132"/>
			<point x="371" y="84"/>
			<point x="309" y="84" type="curve"/>
			<point x="296" y="0" type="line"/>
			<point x="506" y="0" type="line"/>
			<point x="513" y="45" type="line"/>
			<point x="348" y="45" type="line"/>
			<point x="351" y="60" type="line"/>
			<point x="351" y="60"/>
			<point x="456" y="65"/>
			<point x="479" y="210" type="curve" smooth="yes"/>
			<point x="531" y="538" type="line" smooth="yes"/>
			<point x="551" y="661"/>
			<point x="489" y="740"/>
			<point x="374" y="740" type="curve" smooth="yes"/>
			<point x="257" y="740"/>
			<point x="171" y="661"/>
			<point x="151" y="538" type="curve" smooth="yes"/>
			<point x="99" y="210" type="line" smooth="yes"/>
			<point x="76" y="65"/>
			<point x="181" y="60"/>
			<point x="181" y="60" type="curve"/>
			<point x="178" y="45" type="line"/>
			<point x="13" y="45" type="line"/>
		</contour>
	</outline>
</glyph>
<glyph name="lambda" format="2">
	<advance width="600"/>
	<unicode hex="03BB"/>
	<outline>
		<contour>
			<point x="24" y="0" type="line"/>
			<point x="81" y="0" type="line"/>
			<point x="276" y="357" type="line" smooth="yes"/>
			<point x="308" y="417"/>
			<point x="340" y="483"/>
			<point x="340" y="483" type="curve"/>
			<point x="340" y="483"/>
			<point x="351" y="417"/>
			<point x="363" y="357" type="curve" smooth="yes"/>
			<point x="434" y="0" type="line"/>
			<point x="488" y="0" type="line"/>
			<point x="338" y="730" type="line"/>
			<point x="281" y="730" type="line"/>
			<point x="325" y="539" type="line"/>
		</contour>
	</outline>
</glyph>
<glyph name="pi" format="2">
	<advance width="600"/>
	<unicode hex="03C0"/>
	<outline>
		<contour>
			<point x="481" y="-5" type="curve" smooth="yes"/>
			<point x="519" y="-5" type="line"/>
			<point x="526" y="40" type="line"/>
			<point x="488" y="40" type="line" smooth="yes"/>
			<point x="444" y="40"/>
			<point x="422" y="75"/>
			<point x="431" y="130" type="curve" smooth="yes"/>
			<point x="490" y="505" type="line"/>
			<point x="582" y="505" type="line"/>
			<point x="589" y="550" type="line"/>
			<point x="73" y="550" type="line"/>
			<point x="66" y="505" type="line"/>
			<point x="156" y="505" type="line"/>
			<point x="76" y="0" type="line"/>
			<point x="126" y="0" type="line"/>
			<point x="206" y="505" type="line"/>
			<point x="440" y="505" type="line"/>
			<point x="381" y="131" type="line" smooth="yes"/>
			<point x="367" y="46"/>
			<point x="405" y="-5"/>
		</contour>
	</outline>
</glyph>
<glyph name="uni0402" format="2">
	<advance width="600"/>
	<unicode hex="0402"/>
	<outline>
		<contour>
			<point x="194" y="-180" type="line"/>
			<point x="236" y="-180" type="line" smooth="yes"/>
			<point x="362" y="-180"/>
			<point x="455" y="-104"/>
			<point x="473" y="15" type="curve" smooth="yes"/>
			<point x="526" y="346" type="line" smooth="yes"/>
			<point x="540" y="437"/>
			<point x="498" y="495"/>
			<point x="418" y="495" type="curve" smooth="yes"/>
			<point x="364" y="495"/>
			<point x="305" y="468"/>
			<point x="249" y="417" type="curve" smooth="yes"/>
			<point x="194" y="367" type="line"/>
			<point x="244" y="685" type="line"/>
			<point x="369" y="685" type="line"/>
			<point x="377" y="730" type="line"/>
			<point x="72" y="730" type="line"/>
			<point x="64" y="685" type="line"/>
			<point x="194" y="685" type="line"/>
			<point x="86" y="0" type="line"/>
			<point x="136" y="0" type="line"/>
			<point x="185" y="310" type="line"/>
			<point x="272" y="388" type="line" smooth="yes"/>
			<point x="319" y="429"/>
			<point x="365" y="452"/>
			<point x="404" y="452" type="curve" smooth="yes"/>
			<point x="459" y="452"/>
			<point x="486" y="408"/>
			<point x="474" y="336" type="curve" smooth="yes"/>
			<point x="423" y="15" type="line" smooth="yes"/>
			<point x="409" y="-79"/>
			<point x="342" y="-135"/>
			<point x="244" y="-135" type="curve" smooth="yes"/>
			<point x="202" y="-135" type="line"/>
		</contour>
	</outline>
</glyph>
<glyph name="uni0404" format="2">
	<advance width="600"/>
	<unicode hex="0404"/>
	<outline>
		<contour>
			<point x="260" y="-10" type="curve" smooth="yes"/>
			<point x="384" y="-10"/>
			<point x="477" y="72"/>
			<point x="498" y="200" type="curve"/>
			<point x="448" y="200" type="line"/>
			<point x="432" y="98"/>
			<point x="364" y="35"/>
			<point x="268" y="35" type="curve" smooth="yes"/>
			<point x="174" y="35"/>
			<point x="126" y="94"/>
			<point x="141" y="190" type="curve" smooth="yes"/>
			<point x="197" y="540" type="line" smooth="yes"/>
			<point x="212" y="636"/>
			<point x="279" y="695"/>
			<point x="372" y="695" type="curve" smooth="yes"/>
			<point x="467" y="695"/>
			<point x="516" y="632"/>
			<point x="500" y="530" type="curve"/>
			<point x="550" y="530" type="line"/>
			<point x="570" y="658"/>
			<point x="503" y="740"/>
			<point x="379" y="740" type="curve" smooth="yes"/>
			<point x="257" y="740"/>
			<point x="166" y="662"/>
			<point x="147" y="540" type="curve" smooth="yes"/>
			<point x="91" y="190" type="line" smooth="yes"/>
			<point x="72" y="69"/>
			<point x="138" y="-10"/>
		</contour>
		<contour>
			<point x="144" y="346" type="line"/>
			<point x="401" y="346" type="line"/>
			<point x="408" y="391" type="line"/>
			<point x="151" y="391" type="line"/>
		</contour>
	</outline>
</glyph>
<glyph name="uni0409" format="2">
	<advance width="600"/>
	<unicode hex="0409"/>
	<outline>
		<contour>
			<point x="-50" y="-5" type="line"/>
			<point x="-25" y="-5" type="line" smooth="yes"/>
			<point x="47" y="-5"/>
			<point x="105" y="59"/>
			<point x="122" y="158" type="curve" smooth="yes"/>
			<point x="214" y="685" type="line"/>
			<point x="361" y="685" type="line"/>
			<point x="253" y="0" type="line"/>
			<point x="371" y="0" type="line" smooth="yes"/>
			<point x="463" y="0"/>
			<point x="530" y="58"/>
			<point x="545" y="150" type="curve" smooth="yes"/>
			<point x="564" y="270" type="line" smooth="yes"/>
			<point x="578" y="362"/>
			<point x="529" y="420"/>
			<point x="438" y="420" type="curve" smooth="yes"/>
			<point x="370" y="420" type="line"/>
			<point x="419" y="730" type="line"/>
			<point x="172" y="730" type="line"/>
			<point x="73" y="158" type="line" smooth="yes"/>
			<point x="60" y="87"/>
			<point x="27" y="45"/>
			<point x="-17" y="45" type="curve" smooth="yes"/>
			<point x="-42" y="45" type="line"/>
		</contour>
		<contour>
			<point x="378" y="45" type="curve" smooth="yes"/>
			<point x="310" y="45" type="line"/>
			<point x="362" y="375" type="line"/>
			<point x="430" y="375" type="line" smooth="yes"/>
			<point x="492" y="375"/>
			<point x="524" y="335"/>
			<point x="514" y="270" type="curve" smooth="yes"/>
			<point x="495" y="150" type="line" smooth="yes"/>
			<point x="484" y="85"/>
			<point x="440" y="45"/>
		</contour>
	</outline>
</glyph>
<glyph name="uni040A" format="2">
	<advance width="600"/>
	<unicode hex="040A"/>
	<outline>
		<contour>
			<point x="18" y="0" type="line"/>
			<point x="68" y="0" type="line"/>
			<point x="127" y="375" type="line"/>
			<point x="312" y="375" type="line"/>
			<point x="253" y="0" type="line"/>
			<point x="366" y="0" type="line" smooth="yes"/>
			<point x="461" y="0"/>
			<point x="530" y="58"/>
			<point x="545" y="150" type="curve" smooth="yes"/>
			<point x="564" y="270" type="line" smooth="yes"/>
			<point x="578" y="362"/>
			<point x="527" y="420"/>
			<point x="433" y="420" type="curve" smooth="yes"/>
			<point x="370" y="420" type="line"/>
			<point x="419" y="730" type="line"/>
			<point x="369" y="730" type="line"/>
			<point x="320" y="420" type="line"/>
			<point x="135" y="420" type="line"/>
			<point x="184" y="730" type="line"/>
			<point x="134" y="730" type="line"/>
		</contour>
		<contour>
			<point x="373" y="45" type="curve" smooth="yes"/>
			<point x="310" y="45" type="line"/>
			<point x="362" y="375" type="line"/>
			<point x="425" y="375" type="line" smooth="yes"/>
			<point x="490" y="375"/>
			<point x="524" y="335"/>
			<point x="514" y="270" type="curve" smooth="yes"/>
			<point x="495" y="150" type="line" smooth="yes"/>
			<point x="484" y="85"/>
			<point x="438" y="45"/>
		</contour>
	</outline>
</glyph>
<glyph name="uni040B" format="2">
	<advance width="600"/>
	<unicode hex="040B"/>
	<outline>
		<contour>
			<point x="86" y="0" type="line"/>
			<point x="136" y="0" type="line"/>
			<point x="185" y="310" type="line"/>
			<point x="272" y="388" type="line" smooth="yes"/>
			<point x="319" y="429"/>
			<point x="365" y="452"/>
			<point x="404" y="452" type="curve" smooth="yes"/>
			<point x="459" y="452"/>
			<point x="486" y="408"/>
			<point x="474" y="336" type="curve" smooth="yes"/>
			<point x="421" y="0" type="line"/>
			<point x="471" y="0" type="line"/>
			<point x="526" y="346" type="line" smooth="yes"/>
			<point x="540" y="437"/>
			<point x="498" y="495"/>
			<point x="419" y="495" type="curve" smooth="yes"/>
			<point x="365" y="495"/>
			<point x="306" y="468"/>
			<point x="249" y="416" type="curve" smooth="yes"/>
			<point x="194" y="366" type="line"/>
			<point x="244" y="685" type="line"/>
			<point x="369" y="685" type="line"/>
			<point x="377" y="730" type="line"/>
			<point x="72" y="730" type="line"/>
			<point x="64" y="685" type="line"/>
			<point x="194" y="685" type="line"/>
		</contour>
	</outline>
</glyph>
<glyph name="uni040F" format="2">
	<advance width="600"/>
	<unicode hex="040F"/>
	<outline>
		<contour>
			<point x="209" y="-125" type="line"/>
			<point x="264" y="-125" type="line"/>
			<point x="284" y="0" type="line"/>
			<point x="446" y="0" type="line"/>
			<point x="562" y="730" type="line"/>
			<point x="507" y="730" type="line"/>
			<point x="399" y="50" type="line"/>
			<point x="129" y="50" type="line"/>
			<point x="237" y="730" type="line"/>
			<point x="182" y="730" type="line"/>
			<point x="66" y="0" type="line"/>
			<point x="229" y="0" type="line"/>
		</contour>
	</outline>
</glyph>
<glyph name="uni0411" format="2">
	<advance width="600"/>
	<unicode hex="0411"/>
	<outline>
		<contour>
			<point x="66" y="0" type="line"/>
			<point x="262" y="0" type="line" smooth="yes"/>
			<point x="390" y="0"/>
			<point x="485" y="80"/>
			<point x="504" y="204" type="curve" smooth="yes"/>
			<point x="524" y="327"/>
			<point x="454" y="405"/>
			<point x="326" y="405" type="curve" smooth="yes"/>
			<point x="180" y="405" type="line"/>
			<point x="224" y="685" type="line"/>
			<point x="550" y="685" type="line"/>
			<point x="558" y="730" type="line"/>
			<point x="182" y="730" type="line"/>
		</contour>
		<contour>
			<point x="269" y="45" type="curve" smooth="yes"/>
			<point x="123" y="45" type="line"/>
			<point x="173" y="360" type="line"/>
			<point x="319" y="360" type="line" smooth="yes"/>
			<point x="419" y="360"/>
			<point x="470" y="301"/>
			<point x="454" y="203" type="curve" smooth="yes"/>
			<point x="439" y="104"/>
			<point x="369" y="45"/>
		</contour>
	</outline>
</glyph>
<glyph name="uni0413" format="2">
	<advance width="600"/>
	<unicode hex="0413"/>
	<outline>
		<contour>
			<point x="76" y="0" type="line"/>
			<point x="126" y="0" type="line"/>
			<point x="235" y="685" type="line"/>
			<point x="590" y="685" type="line"/>
			<point x="597" y="730" type="line"/>
			<point x="192" y="730" type="line"/>
		</contour>
	</outline>
</glyph>
<glyph name="uni0414" format="2">
	<advance width="600"/>
	<unicode hex="0414"/>
	<outline>
		<contour>
			<point x="-18" y="-140" type="line"/>
			<point x="27" y="-140" type="line"/>
			<point x="49" y="0" type="line"/>
			<point x="461" y="0" type="line"/>
			<point x="439" y="-140" type="line"/>
			<point x="484" y="-140" type="line"/>
			<point x="513" y="45" type="line"/>
			<point x="441" y="45" type="line"/>
			<point x="550" y="730" type="line"/>
			<point x="233" y="730" type="line"/>
			<point x="151" y="276" type="line" smooth="yes"/>
			<point x="124" y="128"/>
			<point x="45" y="45"/>
			<point x="45" y="45" type="curve"/>
			<point x="11" y="45" type="line"/>
		</contour>
		<contour>
			<point x="98" y="45" type="line"/>
			<point x="98" y="45"/>
			<point x="174" y="128"/>
			<point x="201" y="276" type="curve" smooth="yes"/>
			<point x="275" y="685" type="line"/>
			<point x="492" y="685" type="line"/>
			<point x="391" y="45" type="line"/>
		</contour>
	</outline>
</glyph>
<glyph name="uni0416" format="2">
	<advance width="600"/>
	<unicode hex="0416"/>
	<outline>
		<contour>
			<point x="-15" y="0" type="line"/>
			<point x="37" y="0" type="line"/>
			<point x="217" y="355" type="line"/>
			<point x="289" y="355" type="line"/>
			<point x="233" y="0" type="line"/>
			<point x="277" y="0" type="line"/>
			<point x="333" y="355" type="line"/>
			<point x="407" y="355" type="line"/>
			<point x="476" y="0" type="line"/>
			<point x="526" y="0" type="line"/>
			<point x="452" y="378" type="line"/>
			<point x="632" y="730" type="line"/>
			<point x="580" y="730" type="line"/>
			<point x="410" y="395" type="line"/>
			<point x="340" y="395" type="line"/>
			<point x="393" y="730" type="line"/>
			<point x="349" y="730" type="line"/>
			<point x="296" y="395" type="line"/>
			<point x="222" y="395" type="line"/>
			<point x="159" y="730" type="line"/>
			<point x="110" y="730" type="line"/>
			<point x="176" y="380" type="line"/>
		</contour>
	</outline>
</glyph>
<glyph name="uni0417" format="2">
	<advance width="600"/>
	<unicode hex="0417"/>
	<outline>
		<contour>
			<point x="254" y="-10" type="curve" smooth="yes"/>
			<point x="386" y="-10"/>
			<point x="483" y="72"/>
			<point x="504" y="200" type="curve" smooth="yes"/>
			<point x="521" y="308"/>
			<point x="462" y="380"/>
			<point x="356" y="380" type="curve"/>
			<point x="355" y="370" type="line"/>
			<point x="451" y="370"/>
			<point x="527" y="444"/>
			<point x="544" y="547" type="curve" smooth="yes"/>
			<point x="562" y="665"/>
			<point x="495" y="740"/>
			<point x="372" y="740" type="curve" smooth="yes"/>
			<point x="240" y="740"/>
			<point x="145" y="665"/>
			<point x="126" y="545" type="curve"/>
			<point x="176" y="545" type="line"/>
			<point x="191" y="638"/>
			<point x="263" y="696"/>
			<point x="365" y="696" type="curve" smooth="yes"/>
			<point x="460" y="696"/>
			<point x="508" y="639"/>
			<point x="494" y="546" type="curve" smooth="yes"/>
			<point x="479" y="452"/>
			<point x="413" y="397"/>
			<point x="319" y="397" type="curve" smooth="yes"/>
			<point x="234" y="397" type="line"/>
			<point x="227" y="352" type="line"/>
			<point x="312" y="352" type="line" smooth="yes"/>
			<point x="417" y="352"/>
			<point x="468" y="294"/>
			<point x="452" y="192" type="curve" smooth="yes"/>
			<point x="437" y="93"/>
			<point x="366" y="35"/>
			<point x="262" y="35" type="curve" smooth="yes"/>
			<point x="159" y="35"/>
			<point x="106" y="93"/>
			<point x="120" y="190" type="curve"/>
			<point x="70" y="190" type="line"/>
			<point x="51" y="70"/>
			<point x="125" y="-10"/>
		</contour>
	</outline>
</glyph>
<glyph name="uni0418" format="2">
	<advance width="600"/>
	<unicode hex="0418"/>
	<outline>
		<contour>
			<point x="65" y="0" type="line"/>
			<point x="134" y="0" type="line"/>
			<point x="510" y="675" type="line"/>
			<point x="510" y="675"/>
			<point x="491" y="581"/>
			<point x="488" y="560" type="curve" smooth="yes"/>
			<point x="399" y="0" type="line"/>
			<point x="447" y="0" type="line"/>
			<point x="563" y="730" type="line"/>
			<point x="493" y="730" type="line"/>
			<point x="120" y="55" type="line"/>
			<point x="120" y="55"/>
			<point x="129" y="100"/>
			<point x="140" y="170" type="curve" smooth="yes"/>
			<point x="229" y="730" type="line"/>
			<point x="181" y="730" type="line"/>
		</contour>
	</outline>
</glyph>
<glyph name="uni041B" format="2">
	<advance width="600"/>
	<unicode hex="041B"/>
	<outline>
		<contour>
			<point x="-20" y="-5" type="line"/>
			<point x="10" y="-5" type="line" smooth="yes"/>
			<point x="91" y="-5"/>
			<point x="154" y="61"/>
			<point x="171" y="164" type="curve" smooth="yes"/>
			<point x="258" y="684" type="line"/>
			<point x="504" y="684" type="line"/>
			<point x="396" y="0" type="line"/>
			<point x="446" y="0" type="line"/>
			<point x="562" y="730" type="line"/>
			<point x="216" y="730" type="line"/>
			<point x="121" y="164" type="line" smooth="yes"/>
			<point x="109" y="92"/>
			<point x="68" y="45"/>
			<point x="18" y="45" type="curve" smooth="yes"/>
			<point x="-12" y="45" type="line"/>
		</contour>
	</outline>
</glyph>
<glyph name="uni041F" format="2">
	<advance width="600"/>
	<unicode hex="041F"/>
	<outline>
		<contour>
			<point x="66" y="0" type="line"/>
			<point x="116" y="0" type="line"/>
			<point x="224" y="685" type="line"/>
			<point x="504" y="685" type="line"/>
			<point x="396" y="0" type="line"/>
			<point x="446" y="0" type="line"/>
			<point x="562" y="730" type="line"/>
			<point x="182" y="730" type="line"/>
		</contour>
	</outline>
</glyph>
<glyph name="uni0423" format="2">
	<advance width="600"/>
	<unicode hex="0423"/>
	<outline>
		<contour>
			<point x="165" y="0" type="line"/>
			<point x="222" y="0" type="line"/>
			<point x="604" y="730" type="line"/>
			<point x="550" y="730" type="line"/>
			<point x="365" y="373" type="line" smooth="yes"/>
			<point x="334" y="313"/>
			<point x="303" y="247"/>
			<point x="303" y="247" type="curve"/>
			<point x="303" y="247"/>
			<point x="292" y="313"/>
			<point x="278" y="373" type="curve" smooth="yes"/>
			<point x="197" y="730" type="line"/>
			<point x="140" y="730" type="line"/>
			<point x="270" y="191" type="line"/>
		</contour>
	</outline>
</glyph>
<glyph name="uni0424" format="2">
	<advance width="600"/>
	<unicode hex="0424"/>
	<outline>
		<contour>
			<point x="238" y="45" type="curve"/>
			<point x="227" y="-25" type="line"/>
			<point x="277" y="-25" type="line"/>
			<point x="288" y="45" type="line"/>
			<point x="417" y="45"/>
			<point x="509" y="123"/>
			<point x="529" y="247" type="curve" smooth="yes"/>
			<point x="569" y="500" type="line" smooth="yes"/>
			<point x="589" y="622"/>
			<point x="522" y="700"/>
			<point x="392" y="700" type="curve"/>
			<point x="403" y="770" type="line"/>
			<point x="353" y="770" type="line"/>
			<point x="342" y="700" type="line"/>
			<point x="212" y="700"/>
			<point x="121" y="622"/>
			<point x="101" y="500" type="curve" smooth="yes"/>
			<point x="61" y="247" type="line" smooth="yes"/>
			<point x="41" y="123"/>
			<point x="109" y="45"/>
		</contour>
		<contour>
			<point x="335" y="655" type="curve"/>
			<point x="245" y="90" type="line"/>
			<point x="152" y="90"/>
			<point x="97" y="156"/>
			<point x="111" y="247" type="curve" smooth="yes"/>
			<point x="151" y="500" type="line" smooth="yes"/>
			<point x="165" y="589"/>
			<point x="241" y="655"/>
		</contour>
		<contour>
			<point x="295" y="90" type="curve"/>
			<point x="385" y="655" type="line"/>
			<point x="479" y="655"/>
			<point x="533" y="589"/>
			<point x="519" y="500" type="curve" smooth="yes"/>
			<point x="479" y="247" type="line" smooth="yes"/>
			<point x="465" y="156"/>
			<point x="388" y="90"/>
		</contour>
	</outline>
</glyph>
<glyph name="uni0426" format="2">
	<advance width="600"/>
	<unicode hex="0426"/>
	<outline>
		<contour>
			<point x="434" y="-140" type="line"/>
			<point x="484" y="-140" type="line"/>
			<point x="513" y="45" type="line"/>
			<point x="436" y="45" type="line"/>
			<point x="545" y="730" type="line"/>
			<point x="495" y="730" type="line"/>
			<point x="386" y="45" type="line"/>
			<point x="123" y="45" type="line"/>
			<point x="232" y="730" type="line"/>
			<point x="182" y="730" type="line"/>
			<point x="66" y="0" type="line"/>
			<point x="456" y="0" type="line"/>
		</contour>
	</outline>
</glyph>
<glyph name="uni0427" format="2">
	<advance width="600"/>
	<unicode hex="0427"/>
	<outline>
		<contour>
			<point x="446" y="310" type="curve"/>
			<point x="396" y="0" type="line"/>
			<point x="446" y="0" type="line"/>
			<point x="562" y="730" type="line"/>
			<point x="512" y="730" type="line"/>
			<point x="452" y="355" type="line"/>
			<point x="452" y="355"/>
			<point x="398" y="345"/>
			<point x="320" y="345" type="curve" smooth="yes"/>
			<point x="209" y="345"/>
			<point x="160" y="402"/>
			<point x="174" y="491" type="curve" smooth="yes"/>
			<point x="212" y="730" type="line"/>
			<point x="162" y="730" type="line"/>
			<point x="124" y="491" type="line" smooth="yes"/>
			<point x="105" y="372"/>
			<point x="164" y="300"/>
			<point x="303" y="300" type="curve" smooth="yes"/>
			<point x="385" y="300"/>
			<point x="446" y="310"/>
		</contour>
	</outline>
</glyph>
<glyph name="uni0428" format="2">
	<advance width="600"/>
	<unicode hex="0428"/>
	<outline>
		<contour>
			<point x="32" y="0" type="line"/>
			<point x="480" y="0" type="line"/>
			<point x="596" y="730" type="line"/>
			<point x="548" y="730" type="line"/>
			<point x="439" y="43" type="line"/>
			<point x="287" y="43" type="line"/>
			<point x="396" y="730" type="line"/>
			<point x="348" y="730" type="line"/>
			<point x="239" y="43" type="line"/>
			<point x="87" y="43" type="line"/>
			<point x="196" y="730" type="line"/>
			<point x="148" y="730" type="line"/>
		</contour>
	</outline>
</glyph>
<glyph name="uni042A" format="2">
	<advance width="600"/>
	<unicode hex="042A"/>
	<outline>
		<contour>
			<point x="96" y="0" type="line"/>
			<point x="266" y="0" type="line" smooth="yes"/>
			<point x="397" y="0"/>
			<point x="494" y="82"/>
			<point x="514" y="210" type="curve" smooth="yes"/>
			<point x="535" y="338"/>
			<point x="464" y="420"/>
			<point x="333" y="420" type="curve" smooth="yes"/>
			<point x="213" y="420" type="line"/>
			<point x="262" y="730" type="line"/>
			<point x="82" y="730" type="line"/>
			<point x="74" y="680" type="line"/>
			<point x="204" y="680" type="line"/>
		</contour>
		<contour>
			<point x="273" y="45" type="curve" smooth="yes"/>
			<point x="153" y="45" type="line"/>
			<point x="205" y="375" type="line"/>
			<point x="325" y="375" type="line" smooth="yes"/>
			<point x="426" y="375"/>
			<point x="479" y="310"/>
			<point x="463" y="210" type="curve" smooth="yes"/>
			<point x="447" y="110"/>
			<point x="373" y="45"/>
		</contour>
	</outline>
</glyph>
<glyph name="uni042B" format="2">
	<advance width="600"/>
	<unicode hex="042B"/>
	<outline>
		<contour>
			<point x="36" y="0" type="line"/>
			<point x="141" y="0" type="line" smooth="yes"/>
			<point x="260" y="0"/>
			<point x="348" y="75"/>
			<point x="366" y="190" type="curve" smooth="yes"/>
			<point x="372" y="230" type="line" smooth="yes"/>
			<point x="391" y="345"/>
			<point x="326" y="420"/>
			<point x="208" y="420" type="curve" smooth="yes"/>
			<point x="153" y="420" type="line"/>
			<point x="202" y="730" type="line"/>
			<point x="152" y="730" type="line"/>
		</contour>
		<contour>
			<point x="148" y="45" type="curve" smooth="yes"/>
			<point x="93" y="45" type="line"/>
			<point x="145" y="375" type="line"/>
			<point x="200" y="375" type="line" smooth="yes"/>
			<point x="291" y="375"/>
			<point x="337" y="320"/>
			<point x="322" y="230" type="curve" smooth="yes"/>
			<point x="316" y="190" type="line" smooth="yes"/>
			<point x="302" y="100"/>
			<point x="238" y="45"/>
		</contour>
		<contour>
			<point x="426" y="0" type="line"/>
			<point x="476" y="0" type="line"/>
			<point x="592" y="730" type="line"/>
			<point x="542" y="730" type="line"/>
		</contour>
	</outline>
</glyph>
<glyph name="uni042C" format="2">
	<advance width="600"/>
	<unicode hex="042C"/>
	<outline>
		<contour>
			<point x="66" y="0" type="line"/>
			<point x="266" y="0" type="line" smooth="yes"/>
			<point x="397" y="0"/>
			<point x="494" y="82"/>
			<point x="514" y="210" type="curve" smooth="yes"/>
			<point x="535" y="338"/>
			<point x="464" y="420"/>
			<point x="333" y="420" type="curve" smooth="yes"/>
			<point x="183" y="420" type="line"/>
			<point x="232" y="730" type="line"/>
			<point x="182" y="730" type="line"/>
		</contour>
		<contour>
			<point x="273" y="45" type="curve" smooth="yes"/>
			<point x="123" y="45" type="line"/>
			<point x="175" y="375" type="line"/>
			<point x="325" y="375" type="line" smooth="yes"/>
			<point x="426" y="375"/>
			<point x="479" y="310"/>
			<point x="463" y="210" type="curve" smooth="yes"/>
			<point x="447" y="110"/>
			<point x="373" y="45"/>
		</contour>
	</outline>
</glyph>
<glyph name="uni042D" format="2">
	<advance width="600"/>
	<unicode hex="042D"/>
	<guideline x="-88" y="-10" angle="0"/>
	<outline>
		<contour>
			<point x="253" y="-10" type="curve" smooth="yes"/>
			<point x="379" y="-10"/>
			<point x="466" y="65"/>
			<point x="486" y="190" type="curve" smooth="yes"/>
			<point x="542" y="540" type="line" smooth="yes"/>
			<point x="561" y="662"/>
			<point x="495" y="740"/>
			<point x="372" y="740" type="curve" smooth="yes"/>
			<point x="248" y="740"/>
			<point x="155" y="658"/>
			<point x="135" y="530" type="curve"/>
			<point x="185" y="530" type="line"/>
			<point x="201" y="632"/>
			<point x="270" y="695"/>
			<point x="365" y="695" type="curve" smooth="yes"/>
			<point x="458" y="695"/>
			<point x="507" y="636"/>
			<point x="492" y="540" type="curve" smooth="yes"/>
			<point x="436" y="190" type="line" smooth="yes"/>
			<point x="421" y="92"/>
			<point x="356" y="35"/>
			<point x="261" y="35" type="curve" smooth="yes"/>
			<point x="165" y="35"/>
			<point x="116" y="98"/>
			<point x="133" y="200" type="curve"/>
			<point x="83" y="200" type="line"/>
			<point x="62" y="72"/>
			<point x="129" y="-10"/>
		</contour>
		<contour>
			<point x="226" y="346" type="line"/>
			<point x="483" y="346" type="line"/>
			<point x="490" y="391" type="line"/>
			<point x="233" y="391" type="line"/>
		</contour>
	</outline>
</glyph>
